<svg width="220" height="220" viewBox="0 0 220 220" fill="none" xmlns="http://www.w3.org/2000/svg">
<path d="M201.667 31.2583L200.567 19.7083L189.567 23.375C170.715 29.925 150.583 31.935 130.808 29.2416C110.029 26.0169 88.7601 28.8825 69.575 37.4916C59.4044 41.8224 50.4786 48.6284 43.6102 57.2899C36.7418 65.9514 32.149 76.1934 30.25 87.0833C27.7876 101.151 29.0195 115.618 33.825 129.067C36.9192 122.082 40.535 115.341 44.6417 108.9C53.9568 95.1943 66.8642 84.3166 81.95 77.4583C96.4832 70.8228 112.369 67.6834 128.333 68.2916C113.135 70.6154 98.5875 76.0786 85.6167 84.3333C79.3602 88.2644 73.6306 92.9775 68.5667 98.3583C63.7236 103.737 59.4534 109.604 55.825 115.867C49.0099 128.957 44.1606 142.98 41.4333 157.483C38.4937 172.034 36.8981 186.824 36.6667 201.667H55C55.8617 188.355 57.669 175.122 60.4083 162.067C73.1265 168.934 87.3891 172.437 101.842 172.242C115.321 172.232 128.662 169.521 141.075 164.267C210.833 134.475 201.667 35.3833 201.667 31.2583Z" fill="#06A192"/>
</svg>
