<svg width="213" height="207" viewBox="0 0 213 207" fill="none" xmlns="http://www.w3.org/2000/svg">
<path d="M91.6857 146.055C112.177 139.364 125.325 134.295 140.289 134.119C140.289 134.119 161.604 136.865 170.424 134.119C196.213 126.075 198.459 96.7815 184.535 75.1552C170.118 52.7586 144.17 59.1501 144.17 59.1501C113.112 64.8536 92.3913 58.5621 81.5546 53.3231C72.87 49.1366 62.3744 50.6948 55.6831 57.6213C54.1758 59.116 52.9963 60.9082 52.2198 62.8838C42.6885 88.9847 53.6663 114.492 57.5823 130.068C59.0287 135.842 71.1884 152.746 91.6857 146.055Z" stroke="#263238" stroke-linecap="round" stroke-linejoin="round" stroke-dasharray="2 2"/>
<path d="M101.176 38.0825C100.347 47.8549 99.4764 57.7625 99.694 67.529C100.206 91.1898 102.581 114.774 104.086 138.382C104.986 152.452 107.767 167.323 104.933 181.305C102.281 194.411 91.8443 205.23 78.1735 206.201C63.1269 207.271 52.2549 193.224 53.8954 179.094C55.1243 168.51 61.4864 158.732 61.8627 148.066C62.3625 133.707 45.5812 135.56 34.674 126.31C21.8382 115.444 9.167 100.997 5.43914 84.1574C4.36312 79.3182 4.08676 74.1616 5.88013 69.5106C14.0003 48.5075 48.4683 43.2333 61.8627 61.0847C75.6628 79.4888 70.2239 106.254 92.8086 108.765C115.393 111.276 137.561 101.656 159.31 96.2171C181.06 90.7782 205.315 104.167 201.552 132.602C197.788 161.037 162.656 160.237 146.345 140.552C130.034 120.866 137.561 80.7412 140.906 64.8243C142.747 56.0985 147.474 48.2665 151.619 40.4815C154.883 34.3429 158.999 27.9338 157.94 20.6838C154.818 -0.689596 119.133 -6.73414 108.285 11.7111C108.273 11.7346 102.763 19.3138 101.176 38.0825Z" stroke="#263238" stroke-linecap="round" stroke-linejoin="round" stroke-dasharray="2 2"/>
<path d="M105.862 124.07C100.363 124.07 95.09 121.886 91.2019 117.998C87.3138 114.11 85.1295 108.836 85.1295 103.338C85.1295 97.839 87.3138 92.5656 91.2019 88.6775C95.09 84.7894 100.363 82.6051 105.862 82.6051C111.361 82.6051 116.634 84.7894 120.522 88.6775C124.41 92.5656 126.595 97.839 126.595 103.338C126.595 108.836 124.41 114.11 120.522 117.998C116.634 121.886 111.361 124.07 105.862 124.07Z" fill="#263238" stroke="#263238" stroke-miterlimit="10"/>
<path d="M102.575 115.868H107.626V103.232H111.154L111.524 98.9982H107.626V96.5757C107.626 95.582 107.826 95.1881 108.802 95.1881H111.53V90.7958H108.038C104.28 90.7958 102.587 92.448 102.587 95.6114V98.9865H99.9646V103.273H102.587L102.575 115.868Z" fill="#008B4B"/>
<path d="M113.988 86.3448C115.932 87.2729 117.702 88.5279 119.221 90.0551" stroke="#EAEEF2" stroke-width="0.75" stroke-linecap="round" stroke-linejoin="round"/>
<path d="M94.1905 88.5556C94.6198 88.2146 95.0725 87.8912 95.5429 87.5796C98.0506 85.935 100.915 84.9137 103.898 84.6007C106.88 84.2877 109.894 84.6922 112.689 85.7803" stroke="#EAEEF2" stroke-width="0.75" stroke-linecap="round" stroke-linejoin="round"/>
<path d="M103.569 122.03C100.852 121.697 98.2414 120.775 95.9179 119.329C93.5943 117.883 91.6142 115.947 90.1157 113.657C87.9978 110.428 86.9245 106.627 87.0412 102.767C87.158 98.908 88.4592 95.178 90.7683 92.0835" stroke="#EAEEF2" stroke-width="0.75" stroke-linecap="round" stroke-linejoin="round"/>
<path d="M110.531 121.589C109.306 121.912 108.051 122.109 106.785 122.177" stroke="#EAEEF2" stroke-width="0.75" stroke-linecap="round" stroke-linejoin="round"/>
<path d="M119.221 90.0549C120.115 90.9546 120.918 91.9392 121.62 92.9949C122.978 95.0634 123.915 97.3795 124.376 99.8104C124.838 102.241 124.815 104.739 124.31 107.162C123.805 109.584 122.827 111.883 121.432 113.927C120.037 115.97 118.253 117.719 116.181 119.072C114.821 119.961 113.353 120.673 111.813 121.189" stroke="#EAEEF2" stroke-width="0.75" stroke-linecap="round" stroke-linejoin="round"/>
<path d="M191.767 124.07C186.269 124.07 180.995 121.886 177.107 117.998C173.219 114.11 171.035 108.836 171.035 103.338C171.035 97.839 173.219 92.5656 177.107 88.6775C180.995 84.7894 186.269 82.6051 191.767 82.6051C197.266 82.6051 202.539 84.7894 206.428 88.6775C210.316 92.5656 212.5 97.839 212.5 103.338C212.5 108.836 210.316 114.11 206.428 117.998C202.539 121.886 197.266 124.07 191.767 124.07Z" fill="#263238" stroke="#263238" stroke-miterlimit="10"/>
<path d="M181.907 119.372C180.071 118.244 178.444 116.808 177.097 115.127" stroke="#EAEEF2" stroke-width="0.75" stroke-linecap="round" stroke-linejoin="round"/>
<path d="M201.828 119.272C201.358 119.566 200.875 119.86 200.376 120.101C197.708 121.47 194.753 122.181 191.755 122.176C188.757 122.171 185.804 121.449 183.142 120.072" stroke="#EAEEF2" stroke-width="0.75" stroke-linecap="round" stroke-linejoin="round"/>
<path d="M196.066 84.9983C198.731 85.6166 201.23 86.81 203.386 88.495C205.542 90.18 207.304 92.3158 208.549 94.753C210.311 98.1878 210.974 102.082 210.448 105.906C209.922 109.731 208.233 113.301 205.609 116.132" stroke="#EAEEF2" stroke-width="0.75" stroke-linecap="round" stroke-linejoin="round"/>
<path d="M189.08 84.6925C190.334 84.5108 191.603 84.4576 192.867 84.5338" stroke="#EAEEF2" stroke-width="0.75" stroke-linecap="round" stroke-linejoin="round"/>
<path d="M177.097 115.127C176.302 114.132 175.609 113.061 175.027 111.928C173.897 109.728 173.212 107.326 173.012 104.86C172.811 102.395 173.098 99.9136 173.857 97.5592C174.617 95.2048 175.833 93.0232 177.436 91.1393C179.039 89.2553 180.998 87.706 183.2 86.5799C184.647 85.8392 186.182 85.2879 187.769 84.9395" stroke="#EAEEF2" stroke-width="0.75" stroke-linecap="round" stroke-linejoin="round"/>
<path d="M191.768 94.018C194.807 94.018 195.166 94.018 196.366 94.0827C197.087 94.0916 197.801 94.2249 198.477 94.4766C198.966 94.6676 199.41 94.9579 199.782 95.3294C200.153 95.7008 200.443 96.1452 200.634 96.6346C200.884 97.3107 201.015 98.0248 201.023 98.7455C201.075 99.9214 201.087 100.304 201.087 103.338C201.087 106.372 201.087 106.73 201.023 107.93C201.015 108.651 200.884 109.365 200.634 110.041C200.446 110.532 200.157 110.977 199.785 111.349C199.413 111.721 198.967 112.01 198.477 112.199C197.801 112.45 197.087 112.584 196.366 112.593C195.19 112.646 194.807 112.657 191.768 112.657C188.728 112.657 188.375 112.657 187.175 112.593C186.454 112.584 185.74 112.45 185.064 112.199C184.573 112.016 184.127 111.726 183.759 111.352C183.394 110.981 183.117 110.533 182.948 110.041C182.698 109.365 182.567 108.651 182.56 107.93C182.501 106.754 182.489 106.372 182.489 103.338C182.489 100.304 182.489 99.945 182.56 98.7455C182.567 98.0248 182.698 97.3107 182.948 96.6346C183.129 96.1404 183.421 95.694 183.8 95.3292C184.166 94.9512 184.612 94.6599 185.106 94.4766C185.781 94.2249 186.495 94.0916 187.217 94.0827C188.392 94.0298 188.775 94.018 191.809 94.018M191.809 91.9718C188.722 91.9718 188.34 91.9718 187.105 92.0365C186.162 92.0566 185.23 92.2355 184.347 92.5657C183.59 92.853 182.904 93.3003 182.336 93.8769C181.757 94.4451 181.309 95.1336 181.025 95.8937C180.692 96.7758 180.513 97.7086 180.496 98.6514C180.437 99.8626 180.425 100.251 180.425 103.355C180.425 106.46 180.425 106.83 180.496 108.059C180.513 109.004 180.692 109.939 181.025 110.823C181.318 111.577 181.764 112.262 182.336 112.833C182.908 113.405 183.593 113.852 184.347 114.145C185.23 114.475 186.162 114.654 187.105 114.674C188.322 114.727 188.704 114.739 191.809 114.739C194.913 114.739 195.284 114.739 196.513 114.674C197.455 114.653 198.387 114.474 199.27 114.145C200.024 113.852 200.709 113.405 201.281 112.833C201.853 112.262 202.3 111.577 202.592 110.823C202.925 109.939 203.104 109.004 203.122 108.059C203.18 106.848 203.192 106.46 203.192 103.355C203.192 100.251 203.192 99.8803 203.122 98.6514C203.104 97.7086 202.925 96.7758 202.592 95.8937C202.308 95.1336 201.861 94.4451 201.281 93.8769C200.713 93.3003 200.027 92.853 199.27 92.5657C198.387 92.2362 197.455 92.0573 196.513 92.0365C195.295 91.9836 194.907 91.9718 191.809 91.9718Z" fill="#008B4B"/>
<path d="M191.767 97.4989C190.614 97.507 189.49 97.8564 188.535 98.5029C187.58 99.1493 186.838 100.064 186.403 101.132C185.967 102.199 185.857 103.372 186.087 104.502C186.317 105.632 186.876 106.668 187.694 107.481C188.513 108.293 189.553 108.845 190.685 109.067C191.816 109.289 192.988 109.171 194.052 108.728C195.117 108.285 196.026 107.536 196.666 106.577C197.306 105.618 197.647 104.491 197.647 103.338C197.647 101.789 197.032 100.304 195.937 99.209C194.842 98.114 193.357 97.4989 191.809 97.4989M191.767 107.16C191.017 107.16 190.284 106.937 189.66 106.52C189.037 106.104 188.551 105.511 188.264 104.818C187.977 104.125 187.901 103.363 188.048 102.627C188.194 101.891 188.555 101.216 189.086 100.685C189.616 100.155 190.292 99.7937 191.028 99.6474C191.763 99.501 192.526 99.5761 193.219 99.8632C193.912 100.15 194.504 100.636 194.921 101.26C195.338 101.884 195.56 102.617 195.56 103.367C195.561 103.865 195.463 104.359 195.273 104.819C195.083 105.28 194.803 105.698 194.451 106.05C194.099 106.403 193.68 106.682 193.22 106.872C192.759 107.063 192.266 107.16 191.767 107.16Z" fill="#008B4B"/>
<path d="M199.217 97.2697C199.217 97.5395 199.137 97.8032 198.987 98.0275C198.837 98.2519 198.624 98.4267 198.375 98.53C198.126 98.6332 197.852 98.6602 197.587 98.6076C197.322 98.5549 197.079 98.425 196.889 98.2342C196.698 98.0435 196.568 97.8004 196.515 97.5358C196.463 97.2712 196.49 96.9969 196.593 96.7476C196.696 96.4984 196.871 96.2853 197.095 96.1354C197.32 95.9855 197.583 95.9055 197.853 95.9055C198.215 95.9055 198.562 96.0492 198.818 96.3051C199.074 96.5609 199.217 96.9079 199.217 97.2697Z" fill="#008B4B"/>
<path d="M105.862 199.821C100.363 199.821 95.09 197.637 91.2019 193.749C87.3138 189.861 85.1295 184.587 85.1295 179.089C85.1295 173.589 87.3136 168.315 91.2016 164.426C95.0895 160.537 100.363 158.352 105.862 158.35C111.361 158.352 116.635 160.537 120.523 164.426C124.41 168.315 126.595 173.589 126.595 179.089C126.595 184.587 124.41 189.861 120.522 193.749C116.634 197.637 111.361 199.821 105.862 199.821Z" fill="#263238" stroke="#263238" stroke-miterlimit="10"/>
<path d="M96.0956 162.978C97.9345 161.855 99.9536 161.06 102.064 160.626" stroke="#EAEEF2" stroke-width="0.75" stroke-linecap="round" stroke-linejoin="round"/>
<path d="M87.1052 180.753C87.0582 180.206 87.0347 179.647 87.0347 179.089C87.0324 176.09 87.7469 173.134 89.1184 170.468C90.49 167.802 92.479 165.502 94.9196 163.76" stroke="#EAEEF2" stroke-width="0.75" stroke-linecap="round" stroke-linejoin="round"/>
<path d="M120.233 191.242C118.468 193.334 116.268 195.015 113.785 196.167C111.303 197.318 108.599 197.913 105.862 197.91C102.004 197.911 98.238 196.727 95.0739 194.519C91.9099 192.31 89.4998 189.184 88.1695 185.562" stroke="#EAEEF2" stroke-width="0.75" stroke-linecap="round" stroke-linejoin="round"/>
<path d="M123.69 185.18C123.28 186.377 122.75 187.529 122.108 188.62" stroke="#EAEEF2" stroke-width="0.75" stroke-linecap="round" stroke-linejoin="round"/>
<path d="M102.064 160.667C103.314 160.411 104.586 160.283 105.862 160.285C110.852 160.285 115.638 162.267 119.167 165.796C122.695 169.324 124.678 174.11 124.678 179.1C124.678 180.726 124.469 182.344 124.055 183.916" stroke="#EAEEF2" stroke-width="0.75" stroke-linecap="round" stroke-linejoin="round"/>
<path fill-rule="evenodd" clip-rule="evenodd" d="M117.875 185.174C117.628 185.045 117.365 184.95 117.093 184.892C115.815 184.449 114.702 183.629 113.9 182.54C113.44 181.963 113.071 181.318 112.806 180.629C112.75 180.499 112.725 180.357 112.732 180.216C112.739 180.074 112.779 179.936 112.847 179.812C113.137 179.475 113.52 179.232 113.947 179.112C114.488 178.957 114.993 178.697 115.435 178.348C115.52 178.268 115.592 178.175 115.646 178.071C115.662 178.038 115.674 178.002 115.682 177.965C115.716 177.836 115.706 177.7 115.652 177.577C115.535 177.363 115.354 177.19 115.135 177.083C115 177.006 114.851 176.96 114.696 176.946C114.542 176.933 114.386 176.954 114.241 177.007C113.984 177.102 113.721 177.178 113.453 177.236C113.159 177.308 112.853 177.308 112.559 177.236C112.559 177.201 112.559 177.13 112.559 177.036C112.559 176.495 112.589 175.943 112.595 175.361C112.65 174.463 112.626 173.561 112.524 172.668C112.203 171.14 111.298 169.798 110.002 168.928C109.087 168.297 108.022 167.918 106.915 167.828C106.538 167.793 106.174 167.781 105.803 167.781C104.289 167.754 102.808 168.225 101.587 169.122C100.687 169.829 99.9794 170.751 99.5294 171.803C99.1811 172.858 99.0668 173.975 99.1943 175.078C99.2641 175.794 99.2818 176.513 99.2472 177.23C99.2486 177.246 99.2486 177.262 99.2472 177.277C98.897 177.339 98.5389 177.339 98.1888 177.277C97.9419 177.236 97.6773 177.136 97.3774 177.054C97.2411 177.025 97.1002 177.026 96.9642 177.056C96.8282 177.087 96.7004 177.146 96.5895 177.23C96.4688 177.293 96.3658 177.386 96.2898 177.499C96.2138 177.612 96.1673 177.742 96.1544 177.877C96.1515 177.899 96.1515 177.92 96.1544 177.942C96.1932 178.115 96.2883 178.27 96.4248 178.383C96.5424 178.477 96.6424 178.542 96.7012 178.589C97.2275 178.89 97.7856 179.133 98.3652 179.312C98.5339 179.366 98.6881 179.458 98.8164 179.58C98.9447 179.702 99.0437 179.852 99.1061 180.018C99.1545 180.463 99.0531 180.912 98.818 181.293C98.2266 182.45 97.3579 183.442 96.2896 184.18C95.7249 184.566 95.0985 184.852 94.4374 185.027C94.1788 185.071 93.9448 185.206 93.7789 185.409L93.7436 185.486C93.7205 185.575 93.7185 185.668 93.7379 185.758C93.7573 185.848 93.7975 185.932 93.8553 186.003C93.9305 186.095 94.0249 186.169 94.1317 186.221C94.6733 186.497 95.2514 186.695 95.8486 186.809C96.2129 186.863 96.5712 186.951 96.9187 187.073C96.9187 187.073 96.9599 187.197 97.0305 187.367C97.1304 187.667 97.1775 188.026 97.2892 188.402C97.3063 188.453 97.3364 188.499 97.3766 188.535C97.4168 188.572 97.4657 188.597 97.5185 188.608C97.6547 188.648 97.8009 188.638 97.9301 188.579H97.9654C98.8508 188.362 99.7711 188.328 100.67 188.479C101.574 188.824 102.428 189.286 103.21 189.855C103.809 190.276 104.509 190.532 105.239 190.595C105.811 190.619 106.385 190.607 106.956 190.56C107.436 190.509 107.898 190.351 108.308 190.096C109.225 189.572 110.037 188.949 110.931 188.555C111.275 188.47 111.628 188.428 111.983 188.432C112.726 188.41 113.469 188.447 114.206 188.543H114.276C114.375 188.529 114.465 188.478 114.529 188.402C114.57 188.358 114.599 188.303 114.611 188.243C114.611 188.173 114.653 188.138 114.611 188.196C114.615 188.177 114.615 188.157 114.611 188.138C114.681 187.749 114.825 187.378 115.035 187.044C115.165 186.942 115.328 186.892 115.493 186.903H115.535C116.139 186.806 116.731 186.64 117.298 186.409C117.578 186.319 117.827 186.152 118.016 185.927C118.056 185.871 118.085 185.807 118.099 185.739C118.113 185.672 118.113 185.602 118.099 185.534C118.084 185.467 118.056 185.403 118.015 185.347C117.975 185.291 117.923 185.244 117.863 185.209L117.875 185.174Z" fill="#008B4B"/>
<path d="M21.2502 124.07C18.5261 124.073 15.8282 123.538 13.3108 122.497C10.7934 121.456 8.50578 119.929 6.57872 118.004C4.65165 116.079 3.12293 113.792 2.07992 111.276C1.03691 108.759 0.50006 106.062 0.500061 103.338C0.50006 100.614 1.03691 97.9161 2.07992 95.3996C3.12293 92.883 4.65165 90.5967 6.57872 88.6713C8.50578 86.7459 10.7934 85.2191 13.3108 84.1782C15.8282 83.1373 18.5261 82.6028 21.2502 82.6051C26.7489 82.6051 32.0223 84.7894 35.9104 88.6775C39.7985 92.5656 41.9828 97.839 41.9828 103.338C41.9828 108.836 39.7985 114.11 35.9104 117.998C32.0223 121.886 26.7489 124.07 21.2502 124.07Z" fill="#263238" stroke="#263238" stroke-miterlimit="10"/>
<path d="M11.4661 87.2326C13.3046 86.1096 15.3238 85.3138 17.4342 84.8806" stroke="#EAEEF2" stroke-width="0.75" stroke-linecap="round" stroke-linejoin="round"/>
<path d="M2.46972 105.008C2.42268 104.455 2.39917 103.902 2.39917 103.338C2.39695 100.339 3.11139 97.3836 4.48296 94.7172C5.85453 92.0507 7.84349 89.7507 10.2841 88.0088" stroke="#EAEEF2" stroke-width="0.75" stroke-linecap="round" stroke-linejoin="round"/>
<path d="M35.603 115.509C33.8379 117.595 31.6396 119.272 29.161 120.422C26.6823 121.573 23.9828 122.169 21.2502 122.171C17.3908 122.176 13.6232 120.994 10.4583 118.785C7.29337 116.576 4.88426 113.447 3.55758 109.823" stroke="#EAEEF2" stroke-width="0.75" stroke-linecap="round" stroke-linejoin="round"/>
<path d="M39.0547 109.429C38.6481 110.629 38.118 111.784 37.473 112.875" stroke="#EAEEF2" stroke-width="0.75" stroke-linecap="round" stroke-linejoin="round"/>
<path d="M17.4342 84.8865C18.6841 84.6306 19.9568 84.5026 21.2326 84.5043C26.2229 84.5043 31.0087 86.4867 34.5373 90.0153C38.066 93.5439 40.0483 98.3297 40.0483 103.32C40.0494 104.945 39.8399 106.564 39.4251 108.136" stroke="#EAEEF2" stroke-width="0.75" stroke-linecap="round" stroke-linejoin="round"/>
<path d="M10.1843 110.276C12.2565 111.61 14.6696 112.319 17.1343 112.316C25.5485 112.316 30.2994 105.207 30.0172 98.8337C30.9023 98.1886 31.6667 97.3924 32.2751 96.4817C31.4484 96.8452 30.5727 97.0849 29.6761 97.1932C30.6219 96.6286 31.3288 95.7377 31.6636 94.6884C30.7737 95.2137 29.8016 95.5854 28.7883 95.7879C28.1068 95.0606 27.2046 94.5781 26.2213 94.4151C25.2379 94.2522 24.2283 94.4178 23.3486 94.8865C22.4689 95.3551 21.7682 96.1006 21.3549 97.0076C20.9415 97.9145 20.8386 98.9325 21.0621 99.9038C19.2602 99.8138 17.4975 99.3452 15.8887 98.5287C14.2799 97.7121 12.8612 96.5659 11.7248 95.1646C11.1453 96.1631 10.9675 97.3446 11.2274 98.4694C11.4873 99.5942 12.1655 100.578 13.1242 101.221C12.403 101.192 11.6992 100.991 11.0721 100.633C11.058 101.689 11.4134 102.718 12.0769 103.54C12.7403 104.363 13.6703 104.927 14.7059 105.137C14.0383 105.316 13.3388 105.342 12.6597 105.213C12.949 106.114 13.5128 106.901 14.2719 107.465C15.0311 108.029 15.9476 108.342 16.8932 108.359C15.9563 109.105 14.8813 109.658 13.73 109.987C12.5787 110.316 11.3737 110.414 10.1843 110.276Z" fill="#008B4B"/>
<path d="M105.862 43.5096C100.363 43.5096 95.09 41.3253 91.2019 37.4372C87.3138 33.5491 85.1295 28.2757 85.1295 22.7771C85.1295 17.2785 87.3138 12.0051 91.2019 8.11697C95.09 4.22887 100.363 2.04456 105.862 2.04456C111.361 2.04456 116.634 4.22887 120.522 8.11697C124.41 12.0051 126.595 17.2785 126.595 22.7771C126.595 28.2757 124.41 33.5491 120.522 37.4372C116.634 41.3253 111.361 43.5096 105.862 43.5096Z" fill="#263238" stroke="#263238" stroke-miterlimit="10"/>
<path fill-rule="evenodd" clip-rule="evenodd" d="M117.81 22.2715C117.837 19.3085 116.685 16.4564 114.609 14.3425C112.532 12.2287 109.701 11.0262 106.738 10.9997C103.775 10.9732 100.923 12.1248 98.8093 14.2012C96.6954 16.2776 95.493 19.1086 95.4665 22.0716C95.4665 22.2303 95.4665 22.395 95.4665 22.5537C95.4656 24.5731 96.0188 26.554 97.0658 28.2807L95.0725 34.2489L101.258 32.2791C102.953 33.2117 104.861 33.6883 106.795 33.6623C108.729 33.6362 110.623 33.1084 112.292 32.1305C113.961 31.1526 115.348 29.7581 116.316 28.0835C117.284 26.4089 117.801 24.5116 117.816 22.5772C117.816 22.489 117.816 22.3656 117.81 22.2715ZM106.638 31.8734C104.803 31.8779 103.007 31.3399 101.476 30.327L97.8655 31.5029L99.0414 28.0397C97.8872 26.453 97.2692 24.5394 97.2775 22.5772C97.2775 22.2774 97.2775 21.9893 97.3245 21.6776C97.6036 19.3806 98.7194 17.267 100.459 15.7408C102.198 14.2146 104.439 13.383 106.752 13.4048C109.066 13.4266 111.291 14.3004 113.001 15.8591C114.711 17.4178 115.787 19.5521 116.023 21.854C116.046 22.0971 116.058 22.3381 116.058 22.5772C116.045 25.0604 115.047 27.4371 113.283 29.1847C111.519 30.9323 109.133 31.9078 106.65 31.8969L106.638 31.8734Z" fill="#008B4B"/>
<path fill-rule="evenodd" clip-rule="evenodd" d="M111.765 24.7939C111.489 24.6587 110.148 24.0001 109.896 23.9119C109.643 23.8237 109.461 23.7767 109.308 24.0472C109.155 24.3176 108.596 24.9291 108.443 25.1055C108.29 25.2819 108.12 25.3113 107.855 25.1761C107.048 24.8585 106.304 24.4006 105.656 23.8237C105.056 23.2795 104.543 22.647 104.133 21.948C103.98 21.6776 104.133 21.5306 104.257 21.3953C104.38 21.2601 104.527 21.0778 104.668 20.9191L104.768 20.7897C104.827 20.6897 104.874 20.5957 104.939 20.4663C104.979 20.3932 104.999 20.3113 104.999 20.2282C104.999 20.145 104.979 20.0631 104.939 19.99C104.868 19.8548 104.351 18.5142 104.092 17.9732C103.833 17.4323 103.634 17.5205 103.504 17.5205C103.375 17.5205 103.163 17.5205 102.981 17.5205C102.841 17.5232 102.704 17.555 102.578 17.6137C102.451 17.6724 102.338 17.7568 102.246 17.8615C101.939 18.152 101.695 18.5034 101.531 18.8931C101.367 19.2829 101.286 19.7025 101.293 20.1253C101.296 20.4401 101.343 20.753 101.434 21.0543C101.647 21.7337 101.978 22.3706 102.411 22.9359C102.546 23.1123 104.304 25.9464 107.114 27.0518C109.925 28.1572 109.896 27.7691 110.401 27.7221C110.783 27.6501 111.144 27.4981 111.462 27.2761C111.781 27.0542 112.048 26.7673 112.248 26.4344C112.429 26.0288 112.484 25.5782 112.406 25.1408C112.224 24.9997 112.042 24.9291 111.765 24.7939Z" fill="#008B4B"/>
<path d="M96.0956 6.66617C97.9345 5.54392 99.9536 4.7482 102.064 4.31421" stroke="#EAEEF2" stroke-width="0.75" stroke-linecap="round" stroke-linejoin="round"/>
<path d="M87.1052 24.4412C87.0582 23.8943 87.0347 23.3357 87.0347 22.7771C87.0324 19.7786 87.7469 16.823 89.1184 14.1566C90.49 11.4902 92.479 9.19018 94.9196 7.44824" stroke="#EAEEF2" stroke-width="0.75" stroke-linecap="round" stroke-linejoin="round"/>
<path d="M120.233 34.9484C118.467 37.0386 116.266 38.7178 113.784 39.8685C111.302 41.0193 108.598 41.6137 105.862 41.6104C102.004 41.611 98.238 40.4272 95.0739 38.219C91.9099 36.0107 89.4998 32.8845 88.1695 29.2626" stroke="#EAEEF2" stroke-width="0.75" stroke-linecap="round" stroke-linejoin="round"/>
<path d="M123.69 28.8687C123.279 30.0669 122.749 31.2212 122.108 32.3143" stroke="#EAEEF2" stroke-width="0.75" stroke-linecap="round" stroke-linejoin="round"/>
<path d="M102.064 4.32594C103.314 4.07009 104.586 3.94203 105.862 3.94374C110.852 3.94374 115.638 5.9261 119.167 9.45473C122.695 12.9834 124.678 17.7692 124.678 22.7594C124.678 24.3848 124.469 26.0034 124.055 27.5751" stroke="#EAEEF2" stroke-width="0.75" stroke-linecap="round" stroke-linejoin="round"/>
<path d="M148.956 164.171C162.572 164.171 173.611 153.133 173.611 139.517C173.611 125.9 162.572 114.862 148.956 114.862C135.34 114.862 124.302 125.9 124.302 139.517C124.302 153.133 135.34 164.171 148.956 164.171Z" fill="#008B4B" stroke="#263238" stroke-miterlimit="10"/>
<path opacity="0.3" d="M148.956 164.171C162.572 164.171 173.611 153.133 173.611 139.517C173.611 125.9 162.572 114.862 148.956 114.862C135.34 114.862 124.302 125.9 124.302 139.517C124.302 153.133 135.34 164.171 148.956 164.171Z" fill="#EAEEF2" stroke="#263238" stroke-miterlimit="10"/>
<path d="M148.956 114.862C148.956 114.862 136.485 113.51 134.497 119.678C132.51 125.846 140.895 124.752 139.572 127.616C138.249 130.479 132.733 134.207 134.938 138.417C137.143 142.627 141.112 147.237 136.702 145.697C132.292 144.156 131.193 143.709 132.075 148.56C132.957 153.411 137.584 154.734 145.081 154.07C152.578 153.405 151.914 156.939 156.1 157.38C160.287 157.821 164.479 155.393 164.479 149.219C164.479 143.045 159.41 144.374 164.038 141.287C168.665 138.2 167.789 130.262 166.466 127.839C165.143 125.417 162.497 126.516 162.497 123.429C162.497 120.342 156.135 114.451 148.956 114.862Z" fill="#263238" stroke="#263238" stroke-miterlimit="10"/>
<path d="M142.094 117.743C142.094 117.743 137.479 117.126 137.631 120.048C137.784 122.971 145.793 128.668 153.337 128.827C160.881 128.986 161.645 125.129 160.569 124.358" stroke="#EAEEF2" stroke-width="0.75" stroke-linecap="round" stroke-linejoin="round"/>
<path d="M146.869 120.19C146.869 120.19 143.176 120.648 143.635 123.13C144.093 125.611 146.404 126.822 149.95 128.21" stroke="#EAEEF2" stroke-width="0.75" stroke-linecap="round" stroke-linejoin="round"/>
<path d="M165.337 135.271C165.337 135.271 165.032 139.123 160.263 141.586C155.494 144.05 151.196 147.731 155.312 149.589C159.428 151.447 161.78 153.587 160.24 154.052" stroke="#EAEEF2" stroke-width="0.75" stroke-linecap="round" stroke-linejoin="round"/>
<path d="M141.788 146.661C141.788 146.661 139.942 150.971 137.173 150.189C134.403 149.407 133.474 147.249 135.326 147.249C137.179 147.249 137.326 148.172 137.326 148.172" stroke="#EAEEF2" stroke-width="0.75" stroke-linecap="round" stroke-linejoin="round"/>
<path d="M156.488 129.021C156.488 129.021 160.269 128.962 159.652 132.655C159.034 136.348 155.495 136.659 154.571 139.429" stroke="#EAEEF2" stroke-width="0.75" stroke-linecap="round" stroke-linejoin="round"/>
<path d="M148.956 164.195C154.49 164.201 159.863 162.336 164.203 158.903C162.474 157.627 159.393 155.375 157.599 154.199C155.006 152.47 151.549 147.09 146.933 148.049C143.229 148.825 133.315 153.093 129.541 154.752C131.847 157.697 134.794 160.078 138.158 161.714C141.522 163.351 145.215 164.199 148.956 164.195Z" fill="#EAEEF2" stroke="#263238" stroke-miterlimit="10"/>
<path d="M146.181 147.237C146.181 147.237 139.348 149.219 138.466 154.951C137.584 160.684 144.087 156.551 144.087 156.551C144.087 156.551 147.504 161.566 150.591 160.026C153.678 158.485 154.119 153.188 152.355 149.66C150.591 146.132 146.181 147.237 146.181 147.237Z" fill="#EAEEF2" stroke="#263238" stroke-miterlimit="10"/>
<path d="M145.998 143.027C146.035 144.905 145.779 146.778 145.24 148.578C144.376 151.241 141.559 154.91 144.064 156.557C146.569 158.203 149.779 152.964 150.614 148.566C151.449 144.168 152.055 138.911 152.055 138.911L145.998 143.027Z" fill="#EAEEF2"/>
<mask id="mask0_302_774" style="mask-type:luminance" maskUnits="userSpaceOnUse" x="143" y="138" width="10" height="19">
<path d="M145.998 143.027C146.035 144.905 145.779 146.778 145.24 148.578C144.376 151.241 141.559 154.91 144.064 156.557C146.569 158.203 149.779 152.964 150.614 148.566C151.449 144.168 152.055 138.911 152.055 138.911L145.998 143.027Z" fill="white"/>
</mask>
<g mask="url(#mask0_302_774)">
<g style="mix-blend-mode:multiply" opacity="0.5">
<path d="M145.416 147.99C146.224 148.282 147.062 148.479 147.915 148.578C148.68 148.666 148.986 148.501 149.091 148.307C148.997 149.407 148.639 152.423 147.386 154.646C147.004 155.328 146.692 155.904 146.445 156.41C148.303 155.157 150.038 151.665 150.626 148.584C151.461 144.191 152.043 138.946 152.043 138.946L145.987 143.062C146.016 144.723 145.824 146.38 145.416 147.99Z" fill="#008B4B"/>
</g>
</g>
<path d="M145.998 143.027C146.035 144.905 145.779 146.778 145.24 148.578C144.376 151.241 141.559 154.91 144.064 156.557C146.569 158.203 149.779 152.964 150.614 148.566C151.449 144.168 152.055 138.911 152.055 138.911L145.998 143.027Z" stroke="#263238" stroke-miterlimit="10"/>
<path d="M142.3 125.975C142.3 125.975 140.183 134.795 140.183 138.082C140.183 141.369 143.205 145.391 147.039 145.726C151.931 146.12 153.73 139.546 154.789 135.801C155.706 132.549 156.329 129.738 156.482 129.045C149.044 131.855 142.3 125.975 142.3 125.975Z" fill="#EAEEF2"/>
<mask id="mask1_302_774" style="mask-type:luminance" maskUnits="userSpaceOnUse" x="140" y="125" width="17" height="21">
<path d="M142.3 125.975C142.3 125.975 140.183 134.795 140.183 138.082C140.183 141.369 143.205 145.391 147.039 145.726C151.931 146.12 153.73 139.546 154.789 135.801C155.706 132.549 156.329 129.738 156.482 129.045C149.044 131.855 142.3 125.975 142.3 125.975Z" fill="white"/>
</mask>
<g mask="url(#mask1_302_774)">
<g style="mix-blend-mode:multiply" opacity="0.5">
<path d="M156.488 129.021C155.749 129.304 154.982 129.511 154.201 129.639C153.854 131.879 152.79 137.388 150.35 140.775C148.28 143.65 146.063 144.691 144.805 145.067C145.506 145.417 146.265 145.632 147.045 145.703C151.937 146.096 153.736 139.523 154.795 135.777" fill="#008B4B"/>
</g>
</g>
<path d="M142.3 125.975C142.3 125.975 140.183 134.795 140.183 138.082C140.183 141.369 143.205 145.391 147.039 145.726C151.931 146.12 153.73 139.546 154.789 135.801C155.706 132.549 156.329 129.738 156.482 129.045C149.044 131.855 142.3 125.975 142.3 125.975Z" stroke="#263238" stroke-miterlimit="10"/>
<path d="M146.334 132.22C146.064 133.179 145.641 134.089 145.081 134.913C144.317 135.871 142.682 135.007 143.164 135.583C143.431 135.921 143.764 136.199 144.144 136.402C144.523 136.604 144.94 136.726 145.369 136.759" stroke="#263238" stroke-linecap="round" stroke-linejoin="round"/>
<path d="M142.635 138.582C142.635 138.582 144.076 140.699 147.051 139.64" stroke="#263238" stroke-linecap="round" stroke-linejoin="round"/>
<path d="M144.934 131.538C144.846 132.061 144.54 132.449 144.252 132.396C143.964 132.343 143.799 131.885 143.888 131.361C143.976 130.838 144.282 130.456 144.57 130.503C144.858 130.55 145.022 131.014 144.934 131.538Z" fill="#263238"/>
<path d="M149.779 132.919C149.65 133.437 149.321 133.801 149.038 133.731C148.756 133.66 148.627 133.19 148.75 132.672C148.874 132.155 149.203 131.796 149.491 131.861C149.779 131.926 149.903 132.408 149.779 132.919Z" fill="#263238"/>
<path d="M142.964 128.951C142.964 128.951 143.735 127.128 146.04 128.186" stroke="#263238" stroke-linecap="round" stroke-linejoin="round"/>
<path d="M148.721 129.733C148.721 129.733 150.838 129.062 151.414 131.173" stroke="#263238" stroke-linecap="round" stroke-linejoin="round"/>
<path d="M63.1328 164.171C76.7491 164.171 87.7872 153.133 87.7872 139.517C87.7872 125.9 76.7491 114.862 63.1328 114.862C49.5165 114.862 38.4784 125.9 38.4784 139.517C38.4784 153.133 49.5165 164.171 63.1328 164.171Z" fill="#008B4B" stroke="#263238" stroke-miterlimit="10"/>
<path opacity="0.3" d="M63.1328 164.171C76.7491 164.171 87.7872 153.133 87.7872 139.517C87.7872 125.9 76.7491 114.862 63.1328 114.862C49.5165 114.862 38.4784 125.9 38.4784 139.517C38.4784 153.133 49.5165 164.171 63.1328 164.171Z" fill="#EAEEF2" stroke="#263238" stroke-miterlimit="10"/>
<path d="M47.7097 158.726C52.5447 162.621 58.6721 164.546 64.8658 164.117C71.0595 163.687 76.8625 160.935 81.1135 156.41C78.3382 152.835 72.6523 146.708 66.3255 146.708C59.3049 146.708 50.9672 155.087 47.7097 158.726Z" fill="#EAEEF2" stroke="#263238" stroke-miterlimit="10"/>
<path d="M60.4046 144.885C60.4046 144.885 56.224 145.361 55.8653 148.589C55.5066 151.817 58.0115 157.192 58.2525 157.786C58.4936 158.379 63.8679 153.011 65.8964 153.011C67.925 153.011 73.1816 155.875 73.1816 155.875C73.1816 155.875 71.5117 149.183 68.5247 146.672C65.5377 144.162 61.2337 143.927 60.4046 144.885Z" fill="#EAEEF2" stroke="#263238" stroke-miterlimit="10"/>
<path opacity="0.5" d="M54.9067 133.031C54.9067 133.031 53.1133 131.238 52.1608 132.673C51.2082 134.107 52.0373 135.777 53.3368 136.853C54.6362 137.929 56.6824 138.029 56.6824 137.212C56.6824 136.394 54.9067 133.031 54.9067 133.031Z" fill="#008B4B" stroke="#263238" stroke-miterlimit="10"/>
<path d="M54.9067 133.031C54.9067 133.031 53.1133 131.238 52.1608 132.673C51.2082 134.107 52.0373 135.777 53.3368 136.853C54.6362 137.929 56.6824 138.029 56.6824 137.212C56.6824 136.394 54.9067 133.031 54.9067 133.031Z" stroke="#263238" stroke-miterlimit="10"/>
<path d="M70.3239 128.874C70.3239 128.874 71.1588 126.722 72.3524 128.992C73.5461 131.261 71.2764 133.29 71.2764 133.29L70.3239 128.874Z" fill="#EAEEF2" stroke="#263238" stroke-miterlimit="10"/>
<path d="M56.7001 137.235C56.7001 137.235 59.0874 145.838 59.6871 148.825C60.2869 151.812 63.0328 156.116 65.0614 154.705C67.0899 153.293 66.9782 150.642 65.7787 148.372C64.9891 146.803 64.3493 145.163 63.8677 143.474L56.7001 137.235Z" fill="#EAEEF2"/>
<mask id="mask2_302_774" style="mask-type:luminance" maskUnits="userSpaceOnUse" x="56" y="137" width="11" height="18">
<path d="M56.7001 137.235C56.7001 137.235 59.0874 145.838 59.6871 148.825C60.2869 151.812 63.0328 156.116 65.0614 154.705C67.0899 153.293 66.9782 150.642 65.7787 148.372C64.9891 146.803 64.3493 145.163 63.8677 143.474L56.7001 137.235Z" fill="white"/>
</mask>
<g mask="url(#mask2_302_774)">
<g style="mix-blend-mode:multiply" opacity="0.5">
<path d="M65.7787 148.348C64.9891 146.779 64.3493 145.14 63.8677 143.45L56.7001 137.235C56.7001 137.235 58.6581 144.291 59.4696 147.819C60.5059 148.629 61.6845 149.237 62.9446 149.613C64.0339 149.91 65.1961 149.778 66.1903 149.242C66.0721 148.936 65.9346 148.637 65.7787 148.348Z" fill="#008B4B"/>
</g>
</g>
<path d="M56.7001 137.235C56.7001 137.235 59.0874 145.838 59.6871 148.825C60.2869 151.812 63.0328 156.116 65.0614 154.705C67.0899 153.293 66.9782 150.642 65.7787 148.372C64.9891 146.803 64.3493 145.163 63.8677 143.474L56.7001 137.235Z" stroke="#263238" stroke-miterlimit="10"/>
<path d="M52.4137 128.274C52.4137 128.274 58.029 141.798 60.4222 144.885C62.8153 147.972 69.242 148.231 72.0115 143.709C74.7809 139.188 71.6528 133.078 71.1765 130.326C70.7002 127.575 69.4125 123.041 70.2181 122.206C71.0236 121.371 74.3987 120.772 73.0875 118.62C71.7763 116.468 69.8594 117.544 69.6242 115.991C69.389 114.439 70.5768 110.611 66.1551 110.017C61.7334 109.423 53.966 114.674 50.8673 118.737C47.7686 122.8 46.7808 126.481 52.4137 128.274Z" fill="#263238" stroke="#263238" stroke-miterlimit="10"/>
<path d="M54.1777 124.211C54.1777 124.211 50.4969 123.935 52.3432 120.395C54.1895 116.856 66.5079 112.087 66.6608 114.704C66.8137 117.32 64.0442 118.09 64.0442 118.09" stroke="#EAEEF2" stroke-width="0.75" stroke-linecap="round" stroke-linejoin="round"/>
<path d="M59.1285 120.86C59.1285 120.86 56.3591 120.242 57.2823 118.243C58.2054 116.244 64.979 115.303 63.7501 116.55C63.0216 117.28 62.1919 117.902 61.2865 118.396" stroke="#EAEEF2" stroke-width="0.75" stroke-linecap="round" stroke-linejoin="round"/>
<path d="M68.0483 136.4C68.0483 136.4 66.0197 139.623 62.7917 138.07" stroke="#EAEEF2" stroke-width="0.75" stroke-linecap="round" stroke-linejoin="round"/>
<path d="M71.1589 130.303C70.712 127.733 69.5301 123.588 70.0652 122.383C69.7065 121.518 68.4718 119.502 64.8262 119.313C60.1635 119.072 55.1479 121.701 54.1895 124.211C53.2311 126.722 55.5066 125.387 56.3415 127.198C57.1765 129.009 55.0244 131.144 55.5066 132.455C55.9887 133.766 58.2525 138.923 58.2525 138.923C58.6112 137.488 63.9913 135.095 63.9913 135.095C64.7694 135.301 65.575 135.382 66.3785 135.336C67.4545 135.219 66.8548 134.26 66.8548 134.26L72.3643 134.589C71.8939 132.855 71.3353 131.344 71.1589 130.303Z" fill="#EAEEF2"/>
<mask id="mask3_302_774" style="mask-type:luminance" maskUnits="userSpaceOnUse" x="53" y="119" width="20" height="20">
<path d="M71.1589 130.303C70.712 127.733 69.5301 123.588 70.0652 122.383C69.7065 121.518 68.4718 119.502 64.8262 119.313C60.1635 119.072 55.1479 121.701 54.1895 124.211C53.2311 126.722 55.5066 125.387 56.3415 127.198C57.1765 129.009 55.0244 131.144 55.5066 132.455C55.9887 133.766 58.2525 138.923 58.2525 138.923C58.6112 137.488 63.9913 135.095 63.9913 135.095C64.7694 135.301 65.575 135.382 66.3785 135.336C67.4545 135.219 66.8548 134.26 66.8548 134.26L72.3643 134.589C71.8939 132.855 71.3353 131.344 71.1589 130.303Z" fill="white"/>
</mask>
<g mask="url(#mask3_302_774)">
<g style="mix-blend-mode:multiply" opacity="0.5">
<path d="M58.4346 125.17C58.2111 122.818 56.6706 122.353 55.6475 122.312C55.0123 122.818 54.5081 123.469 54.1775 124.211C53.225 126.722 55.4946 125.387 56.3296 127.198C57.1645 129.009 55.0125 131.144 55.4946 132.455C55.9768 133.766 58.2405 138.923 58.2405 138.923C58.3581 138.464 58.9814 137.906 59.7811 137.365C58.6051 135.689 57.1704 133.648 56.359 132.467C54.8302 130.203 58.7815 128.815 58.4346 125.17Z" fill="#008B4B"/>
</g>
</g>
<path d="M71.1589 130.303C70.712 127.733 69.5301 123.588 70.0652 122.383C69.7065 121.518 68.4718 119.502 64.8262 119.313C60.1635 119.072 55.1479 121.701 54.1895 124.211C53.2311 126.722 55.5066 125.387 56.3415 127.198C57.1765 129.009 55.0244 131.144 55.5066 132.455C55.9887 133.766 58.2525 138.923 58.2525 138.923C58.6112 137.488 63.9913 135.095 63.9913 135.095C64.7694 135.301 65.575 135.382 66.3785 135.336C67.4545 135.219 66.8548 134.26 66.8548 134.26L72.3642 134.589C71.8939 132.855 71.3353 131.344 71.1589 130.303Z" stroke="#263238" stroke-miterlimit="10"/>
<path d="M61.0336 129.727C61.1865 130.391 61.0336 130.997 60.7337 131.067C60.4339 131.138 60.034 130.656 59.887 129.985C59.74 129.315 59.887 128.715 60.1869 128.645C60.4868 128.574 60.8866 129.056 61.0336 129.727Z" fill="#263238"/>
<path d="M68.1482 128.263C68.3011 128.933 68.1482 129.533 67.8484 129.603C67.5485 129.674 67.1487 129.192 66.9958 128.521C66.8429 127.851 66.9958 127.251 67.3015 127.181C67.6073 127.11 67.9954 127.592 68.1482 128.263Z" fill="#263238"/>
<path d="M58.2524 126.599C58.2524 126.599 58.7287 123.97 61.4805 125.046" stroke="#263238" stroke-linecap="round" stroke-linejoin="round"/>
<path d="M68.8774 123.853C66.843 122.536 66.1256 124.441 66.1256 124.441C66.1256 124.441 64.8379 125.852 65.3612 128.457" stroke="#263238" stroke-linecap="round" stroke-linejoin="round"/>
<path d="M58.6112 133.649L62.0744 132.22" stroke="#263238" stroke-width="0.5" stroke-linecap="round" stroke-linejoin="round"/>
<path d="M66.9781 131.144L69.8417 130.903" stroke="#263238" stroke-width="0.5" stroke-linecap="round" stroke-linejoin="round"/>
<path d="M154.721 86.7145C167.96 83.5289 176.109 70.2147 172.923 56.9763C169.738 43.7379 156.424 35.5885 143.185 38.7741C129.947 41.9597 121.797 55.2739 124.983 68.5123C128.169 81.7507 141.483 89.9001 154.721 86.7145Z" fill="#008B4B" stroke="#263238" stroke-miterlimit="10"/>
<path opacity="0.3" d="M154.721 86.7145C167.96 83.5289 176.109 70.2147 172.923 56.9763C169.738 43.7379 156.424 35.5885 143.185 38.7741C129.947 41.9597 121.797 55.2739 124.983 68.5123C128.169 81.7507 141.483 89.9001 154.721 86.7145Z" fill="#EAEEF2" stroke="#263238" stroke-miterlimit="10"/>
<path d="M170.012 57.8365C173.333 48.882 168.468 38.8198 159.145 35.3619C149.822 31.904 139.572 36.3599 136.251 45.3144C132.93 54.2688 137.795 64.331 147.118 67.7889C156.441 71.2468 166.691 66.7909 170.012 57.8365Z" fill="#263238" stroke="#263238" stroke-miterlimit="10"/>
<path d="M169.882 48.1488C170.697 51.062 170.644 54.1499 169.729 57.0333" stroke="#EAEEF2" stroke-width="0.75" stroke-linecap="round" stroke-linejoin="round"/>
<path d="M168.636 59.3677C168.636 59.3677 167.542 60.773 166.919 61.555" stroke="#EAEEF2" stroke-width="0.75" stroke-linecap="round" stroke-linejoin="round"/>
<path d="M143.07 40.6637C143.07 40.6637 140.577 43.6036 142.135 47.2139" stroke="#EAEEF2" stroke-width="0.75" stroke-linecap="round" stroke-linejoin="round"/>
<path d="M148.956 87.403C153.499 87.4111 157.955 86.1571 161.827 83.781C158.951 81.1291 151.466 74.526 147.938 74.2379C144.246 73.938 133.468 77.3895 130.016 78.5361C132.328 81.3142 135.224 83.549 138.497 85.0815C141.771 86.614 145.341 87.4066 148.956 87.403Z" fill="#EAEEF2" stroke="#263238" stroke-miterlimit="10"/>
<path d="M152.595 77.3484C152.695 77.0544 152.784 76.7604 152.878 76.5193C150.984 75.261 149.203 74.3438 147.938 74.2379C146.404 74.2221 144.873 74.3979 143.382 74.7612C142.729 76.5252 142.558 78.2892 142.029 81.2938C141.312 85.3568 142.388 86.5504 145.375 84.9981C148.362 83.4459 151.402 80.9293 152.595 77.3484Z" fill="#EAEEF2" stroke="#263238" stroke-miterlimit="10"/>
<path d="M145.428 69.8163C145.428 69.8163 146.145 71.1334 145.31 74.238C144.475 77.3426 142.37 82.4699 143.346 83.4459C144.322 84.422 150.208 79.9768 150.443 76.6311C150.678 73.2855 150.684 66.5941 150.684 66.5941L145.428 69.8163Z" fill="#EAEEF2"/>
<mask id="mask4_302_774" style="mask-type:luminance" maskUnits="userSpaceOnUse" x="143" y="66" width="8" height="18">
<path d="M145.428 69.8163C145.428 69.8163 146.145 71.1334 145.31 74.238C144.475 77.3426 142.37 82.4699 143.346 83.4459C144.322 84.422 150.208 79.9768 150.443 76.6311C150.678 73.2855 150.684 66.5941 150.684 66.5941L145.428 69.8163Z" fill="white"/>
</mask>
<g mask="url(#mask4_302_774)">
<g style="mix-blend-mode:multiply" opacity="0.5">
<path d="M145.704 71.8273L149.479 74.7672L149.191 79.4711C149.86 78.6544 150.293 77.6703 150.443 76.6253C150.684 73.2796 150.684 66.5883 150.684 66.5883L145.428 69.8104C145.683 70.45 145.778 71.1425 145.704 71.8273Z" fill="#008B4B"/>
</g>
</g>
<path d="M145.428 69.8163C145.428 69.8163 146.145 71.1334 145.31 74.238C144.475 77.3426 142.37 82.4699 143.346 83.4459C144.322 84.422 150.208 79.9768 150.443 76.6311C150.678 73.2855 150.684 66.5941 150.684 66.5941L145.428 69.8163Z" stroke="#263238" stroke-miterlimit="10"/>
<path d="M139.436 55.1223C139.436 55.1223 138.601 52.9703 137.525 54.5344C136.449 56.0984 137.76 57.9976 138.36 57.9976C138.96 57.9976 139.436 55.1223 139.436 55.1223Z" fill="#EAEEF2" stroke="#263238" stroke-miterlimit="10"/>
<path d="M142.2 48.1899C142.2 48.1899 138.736 54.9989 137.901 59.6616C137.066 64.3244 140.53 71.3685 143.993 71.3685C147.456 71.3685 152.813 65.9943 152.813 65.9943C152.813 65.9943 157.828 66.1119 158.546 64.442C159.263 62.7721 158.428 61.455 157.111 61.455H154.483C154.483 61.455 153.765 61.8137 154.124 58.468C154.483 55.1223 155.559 53.57 155.559 53.57C155.559 53.57 146.492 54.2815 142.2 48.1899Z" fill="#EAEEF2"/>
<mask id="mask5_302_774" style="mask-type:luminance" maskUnits="userSpaceOnUse" x="137" y="48" width="22" height="24">
<path d="M142.2 48.1899C142.2 48.1899 138.736 54.9989 137.901 59.6616C137.066 64.3244 140.53 71.3685 143.993 71.3685C147.456 71.3685 152.813 65.9943 152.813 65.9943C152.813 65.9943 157.828 66.1119 158.546 64.442C159.263 62.7721 158.428 61.455 157.111 61.455H154.483C154.483 61.455 153.765 61.8137 154.124 58.468C154.483 55.1223 155.559 53.57 155.559 53.57C155.559 53.57 146.492 54.2815 142.2 48.1899Z" fill="white"/>
</mask>
<g mask="url(#mask5_302_774)">
<g style="mix-blend-mode:multiply" opacity="0.5">
<path d="M151.384 63.8363C150.657 65.6848 149.462 67.3123 147.916 68.5587C146.369 69.8051 144.525 70.6276 142.564 70.9451H142.529C142.981 71.2091 143.493 71.3528 144.017 71.3625C147.48 71.3625 152.836 65.9883 152.836 65.9883C152.836 65.9883 157.852 66.1059 158.569 64.436C159.287 62.7661 158.452 61.449 157.135 61.449H154.506C154.506 61.449 153.789 61.8077 154.148 58.462C154.506 55.1164 155.582 53.5641 155.582 53.5641C155.582 53.5641 154.994 53.6052 154.024 53.5641H153.983" fill="#008B4B"/>
</g>
</g>
<path d="M142.2 48.1899C142.2 48.1899 138.736 54.9989 137.901 59.6616C137.066 64.3244 140.53 71.3685 143.993 71.3685C147.456 71.3685 152.813 65.9943 152.813 65.9943C152.813 65.9943 157.828 66.1119 158.546 64.442C159.263 62.7721 158.428 61.455 157.111 61.455H154.483C154.483 61.455 153.765 61.8137 154.124 58.468C154.483 55.1223 155.559 53.57 155.559 53.57C155.559 53.57 146.492 54.2815 142.2 48.1899Z" stroke="#263238" stroke-miterlimit="10"/>
<path d="M142.835 55.8104C142.694 56.4336 142.4 56.8981 142.182 56.8511C141.964 56.8041 141.906 56.2631 142.047 55.6281C142.188 54.9931 142.482 54.5403 142.699 54.5873C142.917 54.6344 142.964 55.1812 142.835 55.8104Z" fill="#263238"/>
<path d="M148.45 58.3151C148.309 58.9384 148.015 59.4088 147.797 59.3559C147.58 59.3029 147.521 58.7679 147.662 58.1387C147.803 57.5096 148.097 57.0451 148.315 57.098C148.532 57.1509 148.591 57.6918 148.45 58.3151Z" fill="#263238"/>
<path d="M143.752 57.3921C143.752 57.3921 141.124 59.3031 141.482 59.7793C142.463 60.6229 143.669 61.1624 144.952 61.3316C146.028 61.3316 145.786 60.0204 145.786 60.0204" stroke="#263238" stroke-linecap="round" stroke-linejoin="round"/>
<path d="M141.841 62.8897C143.155 63.606 144.659 63.8976 146.145 63.7247C146.758 63.6645 147.349 63.46 147.868 63.1279C148.387 62.7957 148.82 62.3454 149.132 61.8137" stroke="#263238" stroke-linecap="round" stroke-linejoin="round"/>
<path d="M142.082 52.9703C142.082 52.9703 142.799 51.4181 144.234 53.2114" stroke="#263238" stroke-linecap="round" stroke-linejoin="round"/>
<path d="M148.174 55.1224C148.174 55.1224 150.567 54.4051 150.567 56.7923" stroke="#263238" stroke-linecap="round" stroke-linejoin="round"/>
<path d="M67.1351 87.0784C80.5708 84.8686 89.6713 72.1853 87.4614 58.7496C85.2516 45.3138 72.5684 36.2134 59.1326 38.4232C45.6969 40.633 36.5965 53.3163 38.8063 66.752C41.0161 80.1878 53.6993 89.2882 67.1351 87.0784Z" fill="#008B4B" stroke="#263238" stroke-miterlimit="10"/>
<path opacity="0.3" d="M67.1351 87.0784C80.5708 84.8686 89.6713 72.1853 87.4614 58.7496C85.2516 45.3138 72.5684 36.2134 59.1326 38.4232C45.6969 40.633 36.5965 53.3163 38.8063 66.752C41.0161 80.1878 53.6993 89.2882 67.1351 87.0784Z" fill="#EAEEF2" stroke="#263238" stroke-miterlimit="10"/>
<path d="M46.1694 75.2554C45.7461 76.9429 43.8175 76.7077 44.4054 78.7833C48.3451 83.3951 53.8472 86.3919 59.8585 87.2002C65.8699 88.0084 71.9681 86.5713 76.986 83.1638C78.75 81.0765 79.8083 78.8833 79.8554 77.1193C80.0141 71.7333 74.3224 67.7114 74.0166 65.1184C73.7109 62.5254 76.1687 56.6631 76.1687 56.6631C76.1687 56.6631 80.4728 56.0457 82.0133 52.2061C83.5538 48.3665 77.6975 39.729 72.4643 37.1124C67.2312 34.4959 58.4702 36.8067 54.1661 43.1099C49.862 49.4132 55.0892 54.952 52.3198 57.8743C49.5504 60.7967 42.324 60.9495 41.5537 66.7942C40.7834 72.6388 46.6281 73.4091 46.1694 75.2554Z" fill="#263238" stroke="#263238" stroke-miterlimit="10"/>
<path d="M72.4818 42.9746C72.4818 42.9746 74.04 46.7907 67.9719 49.0427C61.9039 51.2947 57.2235 50.0834 55.6594 54.07C54.0954 58.0566 55.3125 60.8378 55.4889 62.8898C55.6653 64.9419 50.785 64.6185 47.845 67.2233C44.9051 69.8281 50.785 72.9445 52.3549 74.679C53.9248 76.4136 53.5662 79.0125 50.7908 79.8828" stroke="#EAEEF2" stroke-width="0.75" stroke-linecap="round" stroke-linejoin="round"/>
<path d="M54.1012 50.9536C54.1012 50.9536 56.3532 45.403 59.8223 44.5328C63.2915 43.6625 67.1075 46.2673 69.7065 43.8389C72.3054 41.4105 71.7879 39.6818 69.877 38.2942" stroke="#EAEEF2" stroke-width="0.75" stroke-linecap="round" stroke-linejoin="round"/>
<path d="M75.0807 45.2266C75.0807 45.2266 81.1547 49.219 79.0732 52.3412C76.9917 55.4635 76.2979 51.6474 76.2979 51.6474" stroke="#EAEEF2" stroke-width="0.75" stroke-linecap="round" stroke-linejoin="round"/>
<path d="M49.762 83.4577C54.3677 86.4343 59.8348 87.7892 65.2974 87.3078C70.76 86.8264 75.9059 84.5362 79.92 80.8C78.1047 79.1324 76.1796 77.5884 74.1577 76.1784C70.3123 73.5619 67.2371 72.6505 65.085 72.7916C65.085 72.7916 63.3916 73.5619 60.1636 76.637C58.0585 78.6421 53.0018 81.6232 49.762 83.4577Z" fill="#EAEEF2" stroke="#263238" stroke-miterlimit="10"/>
<path d="M70.7708 77.0193C70.7726 75.9961 70.6261 74.9781 70.3357 73.997C68.7074 73.1831 66.9049 72.7794 65.085 72.821C65.085 72.821 63.7385 73.409 61.1689 75.761C61.1146 76.196 61.0871 76.6339 61.0866 77.0722C61.0866 81.1117 63.2504 84.3809 65.9258 84.3809C68.6011 84.3809 70.7708 81.0588 70.7708 77.0193Z" fill="#EAEEF2" stroke="#263238" stroke-miterlimit="10"/>
<path d="M63.8502 64.9479C63.8502 64.9479 63.8502 69.2578 63.3915 73.2562C62.9329 77.2545 63.5444 81.5586 66.4667 81.8643C69.389 82.1701 68.9245 75.2553 68.6188 72.4859C68.4373 70.7482 68.4373 68.9964 68.6188 67.2587L63.8502 64.9479Z" fill="#EAEEF2"/>
<mask id="mask6_302_774" style="mask-type:luminance" maskUnits="userSpaceOnUse" x="63" y="64" width="6" height="18">
<path d="M63.8502 64.9479C63.8502 64.9479 63.8502 69.2578 63.3915 73.2562C62.9329 77.2545 63.5444 81.5586 66.4667 81.8643C69.389 82.1701 68.9245 75.2553 68.6188 72.4859C68.4373 70.7482 68.4373 68.9964 68.6188 67.2587L63.8502 64.9479Z" fill="white"/>
</mask>
<g mask="url(#mask6_302_774)">
<g style="mix-blend-mode:multiply" opacity="0.5">
<path d="M63.3031 74.1851L68.495 69.1519C68.495 68.9932 68.495 68.8403 68.495 68.6992L67.4366 66.7294L63.8322 64.9655C63.8322 64.9655 63.8322 69.2754 63.3736 73.2738C63.356 73.5619 63.3266 73.8735 63.3031 74.1851Z" fill="#008B4B"/>
</g>
</g>
<path d="M63.8502 64.9479C63.8502 64.9479 63.8502 69.2578 63.3915 73.2562C62.9329 77.2545 63.5444 81.5586 66.4667 81.8643C69.389 82.1701 68.9245 75.2553 68.6188 72.4859C68.4373 70.7482 68.4373 68.9964 68.6188 67.2587L63.8502 64.9479Z" stroke="#263238" stroke-miterlimit="10"/>
<path d="M74.3106 45.7264C74.3106 45.7264 74.6163 47.7256 69.3891 50.1893C64.1618 52.653 61.5453 54.6463 61.0867 56.9512C60.628 59.2561 60.4693 60.1851 60.4693 60.1851C60.4693 60.1851 59.3932 58.0272 57.3941 59.1032C55.3949 60.1792 57.2412 64.3363 59.0875 64.4892C60.9338 64.6421 61.3924 64.0247 61.3924 64.0247C61.3924 64.0247 67.3899 70.0222 70.9237 70.0222C74.4576 70.0222 75.8452 66.6413 76.6155 60.6144C77.3622 54.8285 74.3106 45.7264 74.3106 45.7264Z" fill="#EAEEF2"/>
<mask id="mask7_302_774" style="mask-type:luminance" maskUnits="userSpaceOnUse" x="56" y="45" width="21" height="26">
<path d="M74.3106 45.7264C74.3106 45.7264 74.6163 47.7256 69.3891 50.1893C64.1618 52.653 61.5453 54.6463 61.0867 56.9512C60.628 59.2561 60.4693 60.1851 60.4693 60.1851C60.4693 60.1851 59.3932 58.0272 57.3941 59.1032C55.3949 60.1792 57.2412 64.3363 59.0875 64.4892C60.9338 64.6421 61.3924 64.0247 61.3924 64.0247C61.3924 64.0247 67.3899 70.0222 70.9237 70.0222C74.4576 70.0222 75.8452 66.6413 76.6155 60.6144C77.3622 54.8285 74.3106 45.7264 74.3106 45.7264Z" fill="white"/>
</mask>
<g mask="url(#mask7_302_774)">
<g style="mix-blend-mode:multiply" opacity="0.5">
<path d="M62.7682 58.0625C62.9547 56.1256 63.6438 54.271 64.7674 52.6824C62.5741 54.1171 61.3805 55.4694 61.0865 56.9512C60.622 59.262 60.4691 60.1851 60.4691 60.1851C60.4691 60.1851 59.3931 58.0272 57.394 59.1032C55.3948 60.1792 57.2411 64.3363 59.0874 64.4892C60.9337 64.6421 61.3923 64.0247 61.3923 64.0247C61.3923 64.0247 67.3898 70.0222 70.9236 70.0222C69.8745 69.5008 68.8882 68.8617 67.9837 68.1171C65.8904 66.5883 62.5977 61.8844 62.7682 58.0625Z" fill="#008B4B"/>
</g>
</g>
<path d="M74.3106 45.7264C74.3106 45.7264 74.6163 47.7256 69.3891 50.1893C64.1618 52.653 61.5453 54.6463 61.0867 56.9512C60.628 59.2561 60.4693 60.1851 60.4693 60.1851C60.4693 60.1851 59.3932 58.0272 57.3941 59.1032C55.3949 60.1792 57.2412 64.3363 59.0875 64.4892C60.9338 64.6421 61.3924 64.0247 61.3924 64.0247C61.3924 64.0247 67.3899 70.0222 70.9237 70.0222C74.4576 70.0222 75.8452 66.6413 76.6155 60.6144C77.3622 54.8285 74.3106 45.7264 74.3106 45.7264Z" stroke="#263238" stroke-miterlimit="10"/>
<path d="M73.2463 55.0579C73.0717 55.5346 72.9993 56.0426 73.0337 56.5491C73.0682 57.0556 73.2087 57.5491 73.4462 57.9978C74.2517 59.5089 74.6575 60.0087 74.3576 60.4145C74.2716 60.5539 74.1589 60.6751 74.026 60.771C73.8932 60.8668 73.7427 60.9356 73.5832 60.9733C73.4238 61.011 73.2584 61.0168 73.0967 60.9906C72.935 60.9643 72.78 60.9064 72.6406 60.8202" stroke="#263238" stroke-linecap="round" stroke-linejoin="round"/>
<path d="M72.6406 64.4363C72.6406 64.4363 69.7006 65.5476 68.7069 63.4249" stroke="#263238" stroke-linecap="round" stroke-linejoin="round"/>
<path d="M69.7184 57.3275C69.7184 57.9684 69.5361 58.5035 69.3126 58.5035C69.0892 58.5035 68.9128 57.986 68.9128 57.3275C68.9128 56.6689 69.0892 56.1515 69.3126 56.1515C69.5361 56.1515 69.7184 56.6866 69.7184 57.3275Z" fill="#263238"/>
<path d="M74.6574 57.1746C74.8815 57.1746 75.0632 56.656 75.0632 56.0163C75.0632 55.3765 74.8815 54.8579 74.6574 54.8579C74.4334 54.8579 74.2517 55.3765 74.2517 56.0163C74.2517 56.656 74.4334 57.1746 74.6574 57.1746Z" fill="#263238"/>
<path d="M66.7959 53.9524C66.7959 53.9524 67.3839 52.3354 69.8182 52.6411" stroke="#263238" stroke-linecap="round" stroke-linejoin="round"/>
<path d="M73.3462 52.3354C73.3462 52.3354 74.0518 50.6244 75.5629 52.0355" stroke="#263238" stroke-linecap="round" stroke-linejoin="round"/>
</svg>
