<svg width="150" height="171" viewBox="0 0 150 171" fill="none" xmlns="http://www.w3.org/2000/svg">
<path d="M73.4339 0.150308C74.4718 -0.0501026 75.5431 -0.0501026 76.5809 0.150308L143.539 13.511C147.288 14.2458 150 17.5526 150 21.3604C150 25.1682 147.288 28.4749 143.539 29.2098L117.86 34.3536V53.426C117.86 77.041 98.677 96.1802 75.0074 96.1802C51.3379 96.1802 32.1546 77.041 32.1546 53.426V34.3536L16.0847 31.1471V52.8916L21.3409 79.0785C21.6422 80.6484 21.2405 82.2851 20.2361 83.521C19.2317 84.7568 17.6917 85.4916 16.0847 85.4916H5.37151C3.76453 85.4916 2.25798 84.7902 1.22014 83.521C0.182297 82.2517 -0.219448 80.6484 0.11534 79.0785L5.37151 52.8916V28.9092C2.19103 27.8069 0.0149032 24.8008 0.0149032 21.3604C0.0149032 17.5526 2.72669 14.2458 6.47631 13.511L73.4339 0.150308ZM37.4777 109.441C40.993 108.305 44.7761 109.574 47.3205 112.28L71.0904 137.498C73.1996 139.736 76.7818 139.736 78.891 137.498L102.661 112.28C105.205 109.574 108.988 108.305 112.504 109.441C134.265 116.422 150 136.73 150 160.746C150 166.424 145.38 171 139.722 171H10.2929C4.63498 171 0.0149032 166.391 0.0149032 160.746C0.0149032 136.73 15.7499 116.422 37.4777 109.441Z" fill="#06A192"/>
</svg>
