<svg width="157" height="255" viewBox="0 0 157 255" fill="none" xmlns="http://www.w3.org/2000/svg">
<path d="M140.58 64.9613L134.039 61.455L75.1637 29.58H74.4442C74.0431 29.4148 73.627 29.2867 73.2012 29.1975H71.9583H70.7808C70.3339 29.2868 69.896 29.4148 69.4725 29.58H68.7529L9.87792 61.455C8.87117 62.011 8.03378 62.8173 7.45118 63.7917C6.86859 64.766 6.56163 65.8736 6.56163 67.0013C6.56163 68.129 6.86859 69.2365 7.45118 70.2108C8.03378 71.1852 8.87117 71.9915 9.87792 72.5475L26.1667 81.345V111.563C26.1667 116.635 28.2343 121.499 31.9147 125.086C35.5951 128.673 40.5868 130.688 45.7917 130.688H98.125C103.33 130.688 108.322 128.673 112.002 125.086C115.682 121.499 117.75 116.635 117.75 111.563V81.345L130.833 74.205V92.4375C130.833 94.1283 131.523 95.7498 132.749 96.9453C133.976 98.1409 135.64 98.8125 137.375 98.8125C139.11 98.8125 140.774 98.1409 142.001 96.9453C143.227 95.7498 143.917 94.1283 143.917 92.4375V70.5075C143.915 69.3779 143.605 68.2691 143.018 67.2945C142.432 66.32 141.591 65.5148 140.58 64.9613ZM104.667 111.563C104.667 113.253 103.977 114.875 102.751 116.07C101.524 117.266 99.86 117.938 98.125 117.938H45.7917C44.0567 117.938 42.3928 117.266 41.166 116.07C39.9392 114.875 39.25 113.253 39.25 111.563V88.4213L68.7529 104.359L69.7342 104.741H70.3229C70.8659 104.808 71.4153 104.808 71.9583 104.741C72.5013 104.808 73.0508 104.808 73.5938 104.741H74.1825C74.5298 104.67 74.8618 104.541 75.1637 104.359L104.667 88.4213V111.563ZM71.9583 91.545L26.5592 66.9375L71.9583 42.33L117.358 66.9375L71.9583 91.545Z" fill="#FAE17D"/>
<path fill-rule="evenodd" clip-rule="evenodd" d="M63.3825 137.458H84.6175C91.6855 137.458 97.3792 137.458 101.859 138.063C106.509 138.683 110.425 140.026 113.535 143.131C116.646 146.242 117.979 150.158 118.609 154.808C119.208 159.287 119.208 164.986 119.208 172.049V213.951C119.208 221.014 119.208 226.712 118.609 231.192C117.984 235.842 116.646 239.758 113.535 242.869C110.425 245.979 106.509 247.312 101.859 247.942C97.3792 248.542 91.6803 248.542 84.6175 248.542H63.3825C56.3197 248.542 50.6208 248.542 46.1413 247.942C41.4913 247.312 37.575 245.979 34.4647 242.869C31.3595 239.758 30.0213 235.842 29.3962 231.192C29.1881 229.574 29.0467 227.949 28.9725 226.32C28.7647 225.664 28.7362 224.965 28.8898 224.294C28.8047 220.847 28.7719 217.399 28.7917 213.951V172.049C28.7917 164.986 28.7917 159.287 29.3962 154.808C30.0162 150.158 31.3595 146.242 34.4698 143.131C37.575 140.021 41.4965 138.688 46.1465 138.063C50.6208 137.458 56.3197 137.458 63.3825 137.458ZM36.6812 225.292C36.7587 227.115 36.8827 228.722 37.0738 230.159C37.5853 233.951 38.5205 235.956 39.9465 237.387C41.3777 238.818 43.3875 239.748 47.1798 240.259C51.0807 240.781 56.2525 240.792 63.6667 240.792H84.3333C91.7527 240.792 96.9245 240.781 100.825 240.259C104.618 239.748 106.622 238.813 108.059 237.387C109.071 236.374 109.831 235.067 110.373 233.042H53.3333C52.3056 233.042 51.32 232.633 50.5933 231.907C49.8666 231.18 49.4583 230.194 49.4583 229.167C49.4583 228.139 49.8666 227.153 50.5933 226.427C51.32 225.7 52.3056 225.292 53.3333 225.292H111.319C111.417 223.065 111.448 220.512 111.453 217.542H52.8063C47.7533 217.542 45.9863 217.573 44.6327 217.939C42.8098 218.426 41.1328 219.35 39.7465 220.63C38.3603 221.91 37.3064 223.508 36.676 225.286L36.6812 225.292ZM111.458 209.792H52.207C47.9807 209.792 45.0977 209.792 42.6228 210.453C40.4465 211.036 38.3886 211.994 36.5417 213.284V172.333C36.5417 164.919 36.552 159.742 37.0738 155.841C37.5853 152.049 38.5205 150.044 39.9465 148.613C41.3777 147.182 43.3875 146.252 47.1798 145.74C51.0807 145.219 56.2525 145.208 63.6667 145.208H84.3333C91.7527 145.208 96.9245 145.219 100.825 145.74C104.618 146.252 106.622 147.187 108.059 148.613C109.485 150.044 110.415 152.049 110.926 155.846C111.453 159.742 111.458 164.919 111.458 172.333V209.792ZM49.4583 167.167C49.4583 166.139 49.8666 165.153 50.5933 164.427C51.32 163.7 52.3056 163.292 53.3333 163.292H94.6667C95.6944 163.292 96.68 163.7 97.4067 164.427C98.1334 165.153 98.5417 166.139 98.5417 167.167C98.5417 168.194 98.1334 169.18 97.4067 169.907C96.68 170.633 95.6944 171.042 94.6667 171.042H53.3333C52.3056 171.042 51.32 170.633 50.5933 169.907C49.8666 169.18 49.4583 168.194 49.4583 167.167ZM49.4583 185.25C49.4583 184.222 49.8666 183.237 50.5933 182.51C51.32 181.783 52.3056 181.375 53.3333 181.375H79.1667C80.1944 181.375 81.18 181.783 81.9067 182.51C82.6334 183.237 83.0417 184.222 83.0417 185.25C83.0417 186.278 82.6334 187.263 81.9067 187.99C81.18 188.717 80.1944 189.125 79.1667 189.125H53.3333C52.3056 189.125 51.32 188.717 50.5933 187.99C49.8666 187.263 49.4583 186.278 49.4583 185.25Z" fill="#FAE17D"/>
</svg>
