<svg width="191" height="228" viewBox="0 0 191 228" fill="none" xmlns="http://www.w3.org/2000/svg">
<path d="M37.4708 182C35.1708 182 33.2541 181.138 31.7208 179.413C30.1875 177.688 29.5805 175.675 29.9 173.375L31.1458 163.983C31.6569 160.342 33.318 157.322 36.1291 154.925C38.9403 152.528 42.2305 151.331 46 151.333C49.7694 151.333 53.0597 152.532 55.8708 154.929C58.6819 157.326 60.343 160.344 60.8541 163.983L62.1 173.375C62.4194 175.675 61.8125 177.688 60.2791 179.413C58.7458 181.138 56.8291 182 54.5291 182H37.4708ZM15.3333 212.667V201.933C15.3333 199.761 15.893 197.764 17.0123 195.942C18.1316 194.12 19.6164 192.731 21.4666 191.775C25.4278 189.794 29.4528 188.308 33.5416 187.317C37.6305 186.325 41.7833 185.831 46 185.833C50.2166 185.833 54.3694 186.329 58.4583 187.321C62.5472 188.312 66.5722 189.797 70.5333 191.775C72.3861 192.733 73.8721 194.124 74.9915 195.946C76.1108 197.768 76.6692 199.764 76.6666 201.933V212.667H15.3333Z" fill="#FAE17D"/>
<path d="M171.791 64.08C171.791 64.08 171.791 64.08 171.791 63.7092C166.565 49.4411 157.083 37.1225 144.627 28.4196C132.171 19.7168 117.343 15.0497 102.148 15.0497C86.9534 15.0497 72.1252 19.7168 59.6695 28.4196C47.2137 37.1225 37.7316 49.4411 32.5058 63.7092C32.5058 63.7092 32.5058 63.7092 32.5058 64.08C26.6698 80.1808 26.6698 97.8192 32.5058 113.92C32.5058 113.92 32.5058 113.92 32.5058 114.291C37.7316 128.559 47.2137 140.877 59.6695 149.58C72.1252 158.283 86.9534 162.95 102.148 162.95C117.343 162.95 132.171 158.283 144.627 149.58C157.083 140.877 166.565 128.559 171.791 114.291C171.791 114.291 171.791 114.291 171.791 113.92C177.627 97.8192 177.627 80.1808 171.791 64.08V64.08ZM44.595 103.833C42.0231 94.1117 42.0231 83.8883 44.595 74.1667H58.39C57.2036 84.02 57.2036 93.98 58.39 103.833H44.595ZM50.6767 118.667H61.06C62.8008 125.281 65.2891 131.676 68.4767 137.728C61.2031 132.773 55.1229 126.262 50.6767 118.667ZM61.06 59.3333H50.6767C55.059 51.7615 61.0614 45.2525 68.2542 40.2725C65.1433 46.3337 62.7298 52.7282 61.06 59.3333V59.3333ZM94.5833 146.108C85.4739 139.424 79.0762 129.682 76.5608 118.667H94.5833V146.108ZM94.5833 103.833H73.3717C71.9876 93.9929 71.9876 84.0071 73.3717 74.1667H94.5833V103.833ZM94.5833 59.3333H76.5608C79.0762 48.3179 85.4739 38.5764 94.5833 31.8917V59.3333ZM153.323 59.3333H142.94C141.199 52.7188 138.711 46.324 135.523 40.2725C142.797 45.2273 148.877 51.7382 153.323 59.3333ZM109.417 31.8917C118.526 38.5764 124.924 48.3179 127.439 59.3333H109.417V31.8917ZM109.417 146.108V118.667H127.439C124.924 129.682 118.526 139.424 109.417 146.108V146.108ZM130.628 103.833H109.417V74.1667H130.628C132.012 84.0071 132.012 93.9929 130.628 103.833ZM135.746 137.728C138.933 131.676 141.422 125.281 143.163 118.667H153.546C149.1 126.262 143.019 132.773 135.746 137.728ZM159.405 103.833H145.61C146.213 98.9121 146.51 93.9581 146.5 89C146.508 84.042 146.211 79.0881 145.61 74.1667H159.405C161.977 83.8883 161.977 94.1117 159.405 103.833Z" fill="#FAE17D"/>
<path d="M155 182C158.115 182 161.16 181.076 163.75 179.346C166.34 177.615 168.359 175.155 169.551 172.277C170.743 169.399 171.055 166.233 170.447 163.177C169.84 160.122 168.34 157.316 166.137 155.113C163.934 152.91 161.128 151.41 158.073 150.803C155.017 150.195 151.851 150.507 148.973 151.699C146.095 152.891 143.635 154.91 141.904 157.5C140.174 160.09 139.25 163.135 139.25 166.25C139.25 170.427 140.909 174.433 143.863 177.387C146.817 180.341 150.823 182 155 182ZM155 186.5C145.238 186.5 125.75 192.53 125.75 204.5V213.5H184.25V204.5C184.25 192.53 164.762 186.5 155 186.5Z" fill="#FAE17D"/>
</svg>
