<svg width="177" height="177" viewBox="0 0 177 177" fill="none" xmlns="http://www.w3.org/2000/svg">
<path d="M93.0833 6H19.75C12.1561 6 6 12.1561 6 19.75V120.583C6 128.177 12.1561 134.333 19.75 134.333H157.25C164.844 134.333 171 128.177 171 120.583V83.9167" stroke="#FAE17D" stroke-width="12" stroke-linecap="round" stroke-linejoin="round"/>
<path d="M88.5 134.333V171" stroke="#FAE17D" stroke-width="12" stroke-linecap="round" stroke-linejoin="round"/>
<path d="M116 33.5H171" stroke="#FAE17D" stroke-width="12" stroke-linecap="round" stroke-linejoin="round"/>
<path d="M143.5 6V61" stroke="#FAE17D" stroke-width="12" stroke-linecap="round" stroke-linejoin="round"/>
<path d="M42.6667 171H134.333" stroke="#FAE17D" stroke-width="12" stroke-linecap="round" stroke-linejoin="round"/>
<path d="M100.99 89.1516C105.304 85.7575 108.453 81.1031 109.998 75.836C111.544 70.5689 111.409 64.951 109.613 59.7639C107.818 54.5768 104.45 50.0785 99.978 46.8947C95.5065 43.7109 90.1538 42 84.6646 42C79.1754 42 73.8227 43.7109 69.3512 46.8947C64.8796 50.0785 61.5116 54.5768 59.7157 59.7639C57.9198 64.951 57.7853 70.5689 59.3309 75.836C60.8765 81.1031 64.0254 85.7575 68.3394 89.1516C60.9472 92.1132 54.4973 97.0253 49.6772 103.364C44.8571 109.703 41.8476 117.231 40.9694 125.146C40.9058 125.724 40.9567 126.309 41.1191 126.867C41.2815 127.425 41.5523 127.946 41.916 128.399C42.6504 129.315 43.7187 129.902 44.8857 130.031C46.0527 130.159 47.223 129.818 48.139 129.084C49.055 128.35 49.6417 127.281 49.7701 126.114C50.7363 117.513 54.8378 109.568 61.2911 103.799C67.7443 98.0305 76.0967 94.8414 84.7526 94.8414C93.4085 94.8414 101.761 98.0305 108.214 103.799C114.667 109.568 118.769 117.513 119.735 126.114C119.855 127.196 120.371 128.194 121.183 128.917C121.996 129.641 123.048 130.037 124.135 130.031H124.62C125.773 129.898 126.827 129.315 127.553 128.408C128.278 127.501 128.616 126.345 128.492 125.19C127.609 117.253 124.584 109.705 119.739 103.357C114.894 97.008 108.413 92.0975 100.99 89.1516ZM84.6646 86.0274C81.1834 86.0274 77.7804 84.9951 74.8858 83.061C71.9913 81.127 69.7353 78.378 68.4031 75.1618C67.0709 71.9456 66.7224 68.4066 67.4015 64.9923C68.0807 61.578 69.757 58.4417 72.2186 55.9801C74.6802 53.5185 77.8164 51.8422 81.2308 51.163C84.6451 50.4839 88.1841 50.8324 91.4003 52.1646C94.6165 53.4968 97.3655 55.7528 99.2995 58.6474C101.234 61.5419 102.266 64.9449 102.266 68.4261C102.266 73.0943 100.411 77.5712 97.1106 80.8721C93.8097 84.173 89.3327 86.0274 84.6646 86.0274Z" fill="#FAE17D"/>
</svg>
