<svg width="213" height="241" viewBox="0 0 213 241" fill="none" xmlns="http://www.w3.org/2000/svg">
<path d="M102.74 241C148.713 241 185.98 233.487 185.98 224.22C185.98 214.952 148.713 207.44 102.74 207.44C56.7683 207.44 19.5005 214.952 19.5005 224.22C19.5005 233.487 56.7683 241 102.74 241Z" fill="#008B4B"/>
<path opacity="0.5" d="M102.74 241C148.713 241 185.98 233.487 185.98 224.22C185.98 214.952 148.713 207.44 102.74 207.44C56.7683 207.44 19.5005 214.952 19.5005 224.22C19.5005 233.487 56.7683 241 102.74 241Z" fill="#EAEEF2"/>
<path d="M191.108 1.00024H131.09C129.04 1.00024 127.378 2.67557 127.378 4.7422V71.4333C127.378 73.4999 129.04 75.1753 131.09 75.1753H191.108C193.158 75.1753 194.82 73.4999 194.82 71.4333V4.7422C194.82 2.67557 193.158 1.00024 191.108 1.00024Z" fill="#EAEEF2" stroke="#263238" stroke-linecap="round" stroke-linejoin="round"/>
<path d="M131.09 1.00005H191.102C192.082 1.00005 193.021 1.39233 193.714 2.09061C194.407 2.78888 194.796 3.73594 194.796 4.72345V8.6082H127.378V4.74207C127.375 4.24997 127.47 3.76226 127.655 3.30714C127.841 2.85203 128.114 2.43853 128.46 2.09056C128.805 1.74259 129.215 1.46705 129.667 1.27987C130.118 1.09269 130.602 0.99758 131.09 1.00005Z" fill="#263238" stroke="#263238" stroke-linecap="round" stroke-linejoin="round"/>
<path d="M131.053 40.604H158.19" stroke="#263238" stroke-linecap="round" stroke-linejoin="round"/>
<path d="M131.053 44.1348H158.19" stroke="#263238" stroke-linecap="round" stroke-linejoin="round"/>
<path d="M131.053 47.6659H158.19" stroke="#263238" stroke-linecap="round" stroke-linejoin="round"/>
<path d="M131.053 51.1968H158.19" stroke="#263238" stroke-linecap="round" stroke-linejoin="round"/>
<path d="M131.053 54.7277H158.19" stroke="#263238" stroke-linecap="round" stroke-linejoin="round"/>
<path d="M131.053 58.2649H158.19" stroke="#263238" stroke-linecap="round" stroke-linejoin="round"/>
<path d="M131.053 61.7959H158.19" stroke="#263238" stroke-linecap="round" stroke-linejoin="round"/>
<path d="M131.053 65.3269H158.19" stroke="#263238" stroke-linecap="round" stroke-linejoin="round"/>
<path d="M131.053 68.8579H158.19" stroke="#263238" stroke-linecap="round" stroke-linejoin="round"/>
<path d="M162.962 40.604H190.099" stroke="#263238" stroke-linecap="round" stroke-linejoin="round"/>
<path d="M162.962 44.1348H190.099" stroke="#263238" stroke-linecap="round" stroke-linejoin="round"/>
<path d="M162.962 47.6659H190.099" stroke="#263238" stroke-linecap="round" stroke-linejoin="round"/>
<path d="M162.962 51.1968H190.099" stroke="#263238" stroke-linecap="round" stroke-linejoin="round"/>
<path d="M162.962 54.7277H190.099" stroke="#263238" stroke-linecap="round" stroke-linejoin="round"/>
<path d="M162.962 58.2649H190.099" stroke="#263238" stroke-linecap="round" stroke-linejoin="round"/>
<path d="M162.962 61.7959H190.099" stroke="#263238" stroke-linecap="round" stroke-linejoin="round"/>
<path d="M162.962 65.3269H190.099" stroke="#263238" stroke-linecap="round" stroke-linejoin="round"/>
<path d="M162.962 68.8579H190.099" stroke="#263238" stroke-linecap="round" stroke-linejoin="round"/>
<path d="M149.202 18.2453C149.336 17.826 149.407 17.3887 149.412 16.9483C149.412 15.341 147.792 15.2479 146.204 15.2479H145.804V14.8694H152.736V15.2479C150.932 15.2479 150.273 16.4084 149.713 18.1274L146.019 29.2417C145.742 30.0671 145.508 30.6814 144.64 30.6814H144.567L141.316 20.0635L138.293 29.2665C138.01 30.0919 137.776 30.7063 136.908 30.7063H136.84L132.112 15.2479H130.45V14.8694H136.532V15.2479H134.803L138.312 27.4235H138.453L141.1 19.3375L139.869 15.279H138.207V14.8694H144.296V15.2479H142.566L146.075 27.4235H146.21L149.202 18.2453Z" fill="#008B4B"/>
<path d="M190.29 11.3508H162.364V36.7941H190.29V11.3508Z" fill="#008B4B" stroke="#263238" stroke-width="2" stroke-linecap="round" stroke-linejoin="round"/>
<path d="M190.289 21.9873C189.353 22.0411 188.422 22.1718 187.507 22.3783C183.265 23.3091 182.157 29.4465 177.361 29.4465C173.113 29.4465 172.75 23.6815 166.661 22.9368C165.18 22.7016 163.663 22.9724 162.352 23.7063V36.794H190.289V21.9873Z" fill="#263238" stroke="#263238" stroke-linecap="round" stroke-linejoin="round"/>
<path d="M171.642 17.1716C171.643 17.7981 171.46 18.4109 171.116 18.9323C170.771 19.4537 170.281 19.8603 169.707 20.1006C169.133 20.3409 168.501 20.4041 167.891 20.2822C167.282 20.1603 166.722 19.8587 166.282 19.4157C165.843 18.9728 165.544 18.4083 165.423 17.7938C165.302 17.1792 165.364 16.5424 165.603 15.9638C165.841 15.3853 166.245 14.891 166.762 14.5437C167.279 14.1965 167.887 14.0117 168.509 14.0129C169.34 14.0129 170.137 14.3457 170.724 14.9381C171.312 15.5305 171.642 16.3339 171.642 17.1716Z" fill="#EAEEF2" stroke="#263238" stroke-linecap="round" stroke-linejoin="round"/>
<path d="M191.564 3.22791H129.403V5.64191H191.564V3.22791Z" fill="#EAEEF2" stroke="#263238" stroke-linecap="round" stroke-linejoin="round"/>
<path d="M187.685 89.9751H160.776C159.718 89.9751 158.703 90.3988 157.955 91.1529C157.207 91.907 156.787 92.9299 156.787 93.9964V108.505C156.787 109.572 157.207 110.595 157.955 111.349C158.703 112.103 159.718 112.527 160.776 112.527H161.601C160.764 114.388 159.138 117.243 156.571 118.937C156.571 118.937 162.032 118.552 167.72 112.527H187.673C188.731 112.527 189.746 112.103 190.494 111.349C191.242 110.595 191.662 109.572 191.662 108.505V93.9964C191.662 92.932 191.244 91.9111 190.498 91.1573C189.753 90.4035 188.741 89.9784 187.685 89.9751Z" fill="#263238" stroke="#263238" stroke-linecap="round" stroke-linejoin="round"/>
<path d="M169.604 100.736C169.605 100.325 169.486 99.9234 169.26 99.5816C169.035 99.2398 168.714 98.9732 168.338 98.8156C167.962 98.6579 167.548 98.6164 167.148 98.6961C166.749 98.7759 166.382 98.9734 166.094 99.2637C165.806 99.5539 165.61 99.9238 165.531 100.326C165.452 100.729 165.493 101.146 165.649 101.525C165.806 101.904 166.07 102.228 166.409 102.455C166.748 102.683 167.147 102.803 167.554 102.802C168.097 102.8 168.618 102.582 169.002 102.195C169.386 101.808 169.602 101.283 169.604 100.736Z" fill="#008B4B" stroke="#263238" stroke-linecap="round" stroke-linejoin="round"/>
<path d="M176.579 100.735C176.579 100.327 176.459 99.9272 176.234 99.5874C176.008 99.2475 175.688 98.9827 175.314 98.8262C174.939 98.6698 174.527 98.6289 174.129 98.7087C173.732 98.7884 173.366 98.9852 173.08 99.2742C172.793 99.5632 172.598 99.9314 172.518 100.332C172.439 100.733 172.48 101.149 172.635 101.526C172.79 101.904 173.053 102.227 173.39 102.454C173.727 102.681 174.124 102.802 174.529 102.802C175.072 102.8 175.593 102.582 175.977 102.195C176.361 101.808 176.578 101.283 176.579 100.735Z" fill="#008B4B" stroke="#263238" stroke-linecap="round" stroke-linejoin="round"/>
<path d="M183.561 100.736C183.562 100.325 183.442 99.924 183.217 99.5823C182.992 99.2406 182.671 98.974 182.296 98.8162C181.92 98.6583 181.506 98.6164 181.107 98.6957C180.708 98.775 180.341 98.9719 180.053 99.2615C179.764 99.5511 179.568 99.9204 179.488 100.323C179.408 100.725 179.449 101.142 179.604 101.521C179.76 101.9 180.023 102.224 180.361 102.452C180.7 102.68 181.097 102.802 181.504 102.802C182.048 102.8 182.569 102.582 182.954 102.195C183.339 101.808 183.557 101.284 183.561 100.736Z" fill="#008B4B" stroke="#263238" stroke-linecap="round" stroke-linejoin="round"/>
<path d="M39.7055 9.7998H84.0312C85.086 9.7998 86.0976 10.2222 86.8434 10.974C87.5892 11.7258 88.0082 12.7455 88.0082 13.8087V44.7812H35.747V13.8087C35.747 12.7487 36.1635 11.7318 36.9053 10.9805C37.6471 10.2293 38.654 9.80473 39.7055 9.7998Z" fill="#008B4B" stroke="#263238" stroke-linecap="round" stroke-linejoin="round"/>
<path d="M87.9836 39.7849H35.747V44.7619H87.9836V39.7849Z" fill="#263238" stroke="#263238" stroke-linecap="round" stroke-linejoin="round"/>
<path d="M85.5953 41.4851H38.1422V43.0613H85.5953V41.4851Z" fill="#EAEEF2" stroke="#263238" stroke-linecap="round" stroke-linejoin="round"/>
<path d="M61.8685 32.9466C65.8534 32.9466 69.0837 29.6904 69.0837 25.6736C69.0837 21.6568 65.8534 18.4005 61.8685 18.4005C57.8836 18.4005 54.6533 21.6568 54.6533 25.6736C54.6533 29.6904 57.8836 32.9466 61.8685 32.9466Z" fill="#263238" stroke="#263238" stroke-linecap="round" stroke-linejoin="round"/>
<path d="M58.6119 21.1494L66.3997 25.6796L58.6119 30.2097V21.1494Z" fill="#EAEEF2" stroke="#263238" stroke-linecap="round" stroke-linejoin="round"/>
<path d="M65.39 57.5017H15.813C14.8542 57.5017 14.0769 58.2852 14.0769 59.2517V78.2969C14.0769 79.2634 14.8542 80.0469 15.813 80.0469H65.39C66.3489 80.0469 67.1261 79.2634 67.1261 78.2969V59.2517C67.1261 58.2852 66.3489 57.5017 65.39 57.5017Z" fill="#263238" stroke="#263238" stroke-linecap="round" stroke-linejoin="round"/>
<path d="M20.3932 60.5735L20.6517 61.0079C19.482 61.6657 18.3924 62.8199 18.3924 64.1728C18.3774 64.4052 18.4086 64.6382 18.4841 64.8583C18.5597 65.0784 18.678 65.2811 18.8322 65.4545C18.9865 65.6278 19.1735 65.7685 19.3823 65.8681C19.5912 65.9677 19.8176 66.0242 20.0484 66.0345C20.2208 66.0345 20.3378 65.9476 20.3378 65.7738C20.3378 65.6001 20.2516 65.5442 20.0792 65.5132C19.8467 65.4497 19.6442 65.305 19.5078 65.105C19.3713 64.9049 19.3099 64.6625 19.3343 64.421C19.3388 64.2283 19.3821 64.0386 19.4616 63.8633C19.5411 63.688 19.6552 63.5309 19.7968 63.4014C19.9385 63.272 20.1048 63.1729 20.2857 63.1103C20.4665 63.0477 20.6581 63.0228 20.8488 63.0371C21.0562 63.0379 21.2614 63.0805 21.4521 63.1626C21.6429 63.2446 21.8155 63.3644 21.9595 63.5148C22.1036 63.6652 22.2163 63.8433 22.2909 64.0384C22.3655 64.2334 22.4006 64.4416 22.394 64.6506C22.391 64.9133 22.3355 65.1726 22.2308 65.4131C22.1262 65.6537 21.9745 65.8705 21.7849 66.0506C21.5953 66.2307 21.3716 66.3705 21.1272 66.4616C20.8828 66.5526 20.6227 66.5931 20.3624 66.5806C20.0388 66.6017 19.7145 66.554 19.4103 66.4407C19.1062 66.3274 18.8291 66.151 18.5969 65.9228C18.3647 65.6946 18.1827 65.4198 18.0626 65.1162C17.9426 64.8126 17.8871 64.487 17.8999 64.1604C17.8814 62.5903 19.0819 61.3244 20.3932 60.5735ZM25.6815 60.5735L25.94 61.0079C24.7642 61.6657 23.6807 62.8199 23.6807 64.1728C23.6648 64.4054 23.6954 64.6388 23.7707 64.8592C23.8459 65.0797 23.9642 65.2827 24.1186 65.4562C24.273 65.6298 24.4603 65.7704 24.6695 65.8697C24.8788 65.9691 25.1056 66.0251 25.3367 66.0345C25.5091 66.0345 25.6261 65.9476 25.6261 65.7738C25.6261 65.6001 25.5399 65.5442 25.3675 65.5132C25.135 65.4497 24.9325 65.305 24.7961 65.105C24.6596 64.9049 24.5982 64.6625 24.6226 64.421C24.6262 64.228 24.6689 64.0379 24.7481 63.8622C24.8274 63.6864 24.9414 63.5289 25.0833 63.3993C25.2251 63.2697 25.3918 63.1707 25.573 63.1084C25.7542 63.0461 25.9462 63.0219 26.1371 63.0371C26.3445 63.0379 26.5497 63.0805 26.7404 63.1626C26.9312 63.2446 27.1038 63.3644 27.2478 63.5148C27.3919 63.6652 27.5046 63.8433 27.5792 64.0384C27.6538 64.2334 27.6889 64.4416 27.6823 64.6506C27.6784 64.913 27.6224 65.1719 27.5174 65.4121C27.4125 65.6522 27.2608 65.8687 27.0714 66.0486C26.8819 66.2286 26.6586 66.3684 26.4145 66.4598C26.1705 66.5512 25.9108 66.5922 25.6507 66.5806C25.3274 66.6007 25.0034 66.5524 24.6997 66.4387C24.396 66.3251 24.1193 66.1486 23.8873 65.9206C23.6554 65.6926 23.4733 65.4182 23.3529 65.1151C23.2325 64.8119 23.1764 64.4867 23.1882 64.1604C23.1635 62.5903 24.364 61.3244 25.6815 60.5735Z" fill="#008B4B"/>
<path d="M30.7418 65.1655H60.9325" stroke="#EAEEF2" stroke-linecap="round" stroke-linejoin="round"/>
<path d="M30.7418 67.7781H60.9325" stroke="#EAEEF2" stroke-linecap="round" stroke-linejoin="round"/>
<path d="M30.7418 70.3906H60.9325" stroke="#EAEEF2" stroke-linecap="round" stroke-linejoin="round"/>
<path d="M30.7418 73.0093H60.9325" stroke="#EAEEF2" stroke-linecap="round" stroke-linejoin="round"/>
<path d="M55.5909 115.002C61.8223 113.977 66.0494 108.054 65.0323 101.773C64.0152 95.4912 58.1391 91.2303 51.9076 92.2555C45.6762 93.2807 41.4491 99.2039 42.4662 105.485C43.4833 111.767 49.3594 116.028 55.5909 115.002Z" fill="#263238" stroke="#263238" stroke-linecap="round" stroke-linejoin="round"/>
<path d="M61.0008 110.058C64.5166 106.023 64.1213 99.8789 60.118 96.3351C56.1147 92.7912 50.0194 93.1896 46.5036 97.2249C42.9878 101.26 43.3831 107.404 47.3864 110.948C51.3897 114.492 57.4851 114.094 61.0008 110.058Z" fill="#EAEEF2" stroke="#263238" stroke-linecap="round" stroke-linejoin="round"/>
<path d="M53.7543 96.5964V103.627H58.4701" stroke="#263238" stroke-width="2" stroke-linecap="round" stroke-linejoin="round"/>
<path d="M125.279 103.652C125.279 103.652 131.835 117.758 131.835 118.502C131.835 119.247 126.017 122.437 124.909 123.107C124.05 123.6 123.164 124.046 122.256 124.441L122.921 130.976C122.921 130.976 132.937 128.673 137.136 126.371C141.334 124.069 141.187 121.469 140.214 117.609C139.241 113.749 132.771 98.8303 132.771 98.8303L125.279 103.652Z" fill="#EAEEF2"/>
<mask id="mask0_302_47" style="mask-type:luminance" maskUnits="userSpaceOnUse" x="122" y="98" width="19" height="33">
<path d="M125.279 103.652C125.279 103.652 131.835 117.758 131.835 118.502C131.835 119.247 126.017 122.437 124.909 123.107C124.05 123.6 123.164 124.046 122.256 124.441L122.921 130.976C122.921 130.976 132.937 128.673 137.136 126.371C141.334 124.069 141.187 121.469 140.214 117.609C139.241 113.749 132.771 98.8303 132.771 98.8303L125.279 103.652Z" fill="white"/>
</mask>
<g mask="url(#mask0_302_47)">
<g style="mix-blend-mode:multiply" opacity="0.5">
<path d="M137.117 126.371C141.316 124.069 141.168 121.468 140.195 117.609C139.223 113.749 132.752 98.8302 132.752 98.8302L131.706 99.5004L131.373 100.121C131.373 100.121 137.413 115.064 137.776 120.041C138.022 123.386 131.343 127.556 126.929 129.939C130.204 129.064 134.661 127.718 137.117 126.371Z" fill="#008B4B"/>
</g>
</g>
<path d="M125.279 103.652C125.279 103.652 131.835 117.758 131.835 118.502C131.835 119.247 126.017 122.437 124.909 123.107C124.05 123.6 123.164 124.046 122.256 124.441L122.921 130.976C122.921 130.976 132.937 128.673 137.136 126.371C141.334 124.069 141.187 121.469 140.214 117.609C139.241 113.749 132.771 98.8303 132.771 98.8303L125.279 103.652Z" stroke="#263238" stroke-linecap="round" stroke-linejoin="round"/>
<path d="M77.9734 100.537C77.9734 100.537 73.19 118.204 73.0484 121.326C72.9068 124.447 82.5476 130.603 82.8985 130.976C83.2494 131.348 82.3506 120.24 82.3506 120.24L85.6196 104.105L77.9734 100.537Z" fill="#EAEEF2"/>
<mask id="mask1_302_47" style="mask-type:luminance" maskUnits="userSpaceOnUse" x="73" y="100" width="13" height="31">
<path d="M77.9734 100.537C77.9734 100.537 73.19 118.204 73.0484 121.326C72.9068 124.447 82.5476 130.603 82.8985 130.976C83.2494 131.348 82.3506 120.24 82.3506 120.24L85.6196 104.105L77.9734 100.537Z" fill="white"/>
</mask>
<g mask="url(#mask1_302_47)">
<g style="mix-blend-mode:multiply" opacity="0.5">
<path d="M80.1651 101.983L80.0604 101.505L77.9734 100.537C77.9734 100.537 73.19 118.204 73.0484 121.326C72.9068 124.447 82.5476 130.603 82.8985 130.976C83.0401 131.125 82.9847 129.461 82.8677 127.407C79.9989 124.956 75.8803 121.506 75.4001 120.054" fill="#008B4B"/>
</g>
</g>
<path d="M77.9734 100.537C77.9734 100.537 73.19 118.204 73.0484 121.326C72.9068 124.447 82.5476 130.603 82.8985 130.976C83.2494 131.348 82.3506 120.24 82.3506 120.24L85.6196 104.105L77.9734 100.537Z" stroke="#263238" stroke-linecap="round" stroke-linejoin="round"/>
<path d="M100.438 82.7891C100.438 82.7891 98.5908 84.1295 94.9893 84.2785C91.3879 84.4274 91.2155 81.7962 86.7398 81.7962C81.3161 81.7962 74.5133 99.0914 74.5133 99.0914C74.5133 99.0914 77.8993 102.436 81.2176 103.845C83.0532 104.656 84.9831 105.229 86.9614 105.552L87.4786 116.914H124.01L124.447 105.552L135.867 98.0861C135.867 98.0861 130.265 87.9895 127.544 84.204C124.823 80.4185 120.249 81.8272 118.851 82.7891C117.454 83.751 113.311 83.9806 111.784 83.7572C109.792 83.3129 107.824 82.7681 105.886 82.1251C105.886 82.1251 103.534 80.1517 100.438 82.7891Z" fill="#008B4B" stroke="#263238" stroke-linecap="round" stroke-linejoin="round"/>
<path d="M87.3312 86.7979L87.1834 105.657" stroke="#263238" stroke-width="0.5" stroke-linecap="round" stroke-linejoin="round"/>
<path d="M88.6545 88.5105C88.6545 88.5105 89.1717 97.7135 91.1171 102.839" stroke="#263238" stroke-width="0.5" stroke-linecap="round" stroke-linejoin="round"/>
<path d="M91.4557 103.578C91.8759 104.829 92.3925 106.044 93.0009 107.214" stroke="#263238" stroke-width="0.5" stroke-linecap="round" stroke-linejoin="round"/>
<path d="M89.8304 87.468C90.5293 90.8144 91.516 94.093 92.7793 97.2668" stroke="#263238" stroke-width="0.5" stroke-linecap="round" stroke-linejoin="round"/>
<path d="M121.585 89.1C121.585 89.1 119.818 96.3792 118.266 99.6496" stroke="#263238" stroke-width="0.5" stroke-linecap="round" stroke-linejoin="round"/>
<path d="M124.448 105.582L124.374 90.881" stroke="#263238" stroke-width="0.5" stroke-linecap="round" stroke-linejoin="round"/>
<path d="M123.641 91.179C123.641 91.179 122.311 100.487 119.073 105.359" stroke="#263238" stroke-width="0.5" stroke-linecap="round" stroke-linejoin="round"/>
<path d="M122.022 103.503C122.022 103.503 120.544 106.327 119.516 107.81" stroke="#263238" stroke-width="0.5" stroke-linecap="round" stroke-linejoin="round"/>
<path d="M98.3754 83.906C98.3754 83.906 99.4096 90.2916 100.881 93.5558C102.352 96.82 104.932 97.4902 107.142 96.5283C109.352 95.5665 110.971 90.8067 110.836 84.7376" stroke="#263238" stroke-width="0.5" stroke-linecap="round" stroke-linejoin="round"/>
<path d="M93.1487 70.5392C93.1487 70.5392 91.7451 68.0942 90.6431 69.3539C89.5411 70.6137 91.5296 73.5117 92.6316 74.4736C93.7336 75.4355 94.5462 74.8459 94.4785 73.8096C94.4108 72.7733 93.1487 70.5392 93.1487 70.5392Z" fill="#008B4B" stroke="#263238" stroke-linecap="round" stroke-linejoin="round"/>
<path opacity="0.5" d="M93.1487 70.5392C93.1487 70.5392 91.7451 68.0942 90.6431 69.3539C89.5411 70.6137 91.5296 73.5117 92.6316 74.4736C93.7336 75.4355 94.5462 74.8459 94.4785 73.8096C94.4108 72.7733 93.1487 70.5392 93.1487 70.5392Z" fill="#EAEEF2"/>
<path d="M93.1487 70.5392C93.1487 70.5392 91.7451 68.0942 90.6431 69.3539C89.5411 70.6137 91.5296 73.5117 92.6316 74.4736C93.7336 75.4355 94.5462 74.8459 94.4785 73.8096C94.4108 72.7733 93.1487 70.5392 93.1487 70.5392Z" stroke="#263238" stroke-linecap="round" stroke-linejoin="round"/>
<path d="M115.429 70.5392C115.429 70.5392 116.826 68.0942 117.934 69.3539C119.042 70.6137 117.048 73.5117 115.946 74.4736C114.844 75.4355 114.025 74.8459 114.099 73.8096C114.173 72.7733 115.429 70.5392 115.429 70.5392Z" fill="#008B4B" stroke="#263238" stroke-linecap="round" stroke-linejoin="round"/>
<path opacity="0.5" d="M115.429 70.5392C115.429 70.5392 116.826 68.0942 117.934 69.3539C119.042 70.6137 117.048 73.5117 115.946 74.4736C114.844 75.4355 114.025 74.8459 114.099 73.8096C114.173 72.7733 115.429 70.5392 115.429 70.5392Z" fill="#EAEEF2"/>
<path d="M115.429 70.5392C115.429 70.5392 116.826 68.0942 117.934 69.3539C119.042 70.6137 117.048 73.5117 115.946 74.4736C114.844 75.4355 114.025 74.8459 114.099 73.8096C114.173 72.7733 115.429 70.5392 115.429 70.5392Z" stroke="#263238" stroke-linecap="round" stroke-linejoin="round"/>
<path d="M99.7726 82.2739C100.468 85.4426 101.354 88.5657 102.426 91.6259C103.756 94.9645 106.255 94.9645 107.29 92.8112C108.324 90.6578 108.983 82.6339 108.983 82.6339C108.983 82.6339 102.057 83.6081 99.7726 82.2739Z" fill="#EAEEF2" stroke="#263238" stroke-linecap="round" stroke-linejoin="round"/>
<path d="M93.2963 71.3586C93.2963 71.3586 95.2109 78.1849 98.837 82.1999C102.463 86.215 103.762 87.1645 105.689 86.8728C107.616 86.5811 109.666 84.0554 112.535 78.8054C115.404 73.5554 115.613 69.5279 115.853 69.1556C116.093 68.7833 115.238 61.3613 111.137 58.1654C107.037 54.9694 102.445 53.567 98.4676 57.0545C94.4906 60.5421 91.9665 66.2327 93.2963 71.3586Z" fill="#EAEEF2"/>
<mask id="mask2_302_47" style="mask-type:luminance" maskUnits="userSpaceOnUse" x="92" y="55" width="24" height="32">
<path d="M93.2963 71.3586C93.2963 71.3586 95.2109 78.1849 98.837 82.1999C102.463 86.215 103.762 87.1645 105.689 86.8728C107.616 86.5811 109.666 84.0554 112.535 78.8054C115.404 73.5554 115.613 69.5279 115.853 69.1556C116.093 68.7833 115.238 61.3613 111.137 58.1654C107.037 54.9694 102.445 53.567 98.4676 57.0545C94.4906 60.5421 91.9665 66.2327 93.2963 71.3586Z" fill="white"/>
</mask>
<g mask="url(#mask2_302_47)">
<g style="mix-blend-mode:multiply" opacity="0.5">
<path d="M111.119 58.1401C106.994 54.9504 102.426 53.5417 98.4493 57.0293C94.4723 60.5169 91.9667 66.2323 93.2965 71.3582C93.2965 71.3582 93.6597 72.6738 94.38 74.461C94.3779 74.2322 94.409 74.0043 94.4723 73.7846C95.3527 70.9734 97.9507 65.531 106.693 68.0257C113.637 69.9991 112.787 76.1551 112.141 79.4379L112.517 78.7553C115.392 73.4867 115.595 69.4778 115.835 69.1055C116.075 68.7332 115.244 61.336 111.119 58.1401Z" fill="#008B4B"/>
</g>
</g>
<path d="M93.2963 71.3586C93.2963 71.3586 95.2109 78.1849 98.837 82.1999C102.463 86.215 103.762 87.1645 105.689 86.8728C107.616 86.5811 109.666 84.0554 112.535 78.8054C115.404 73.5554 115.613 69.5279 115.853 69.1556C116.093 68.7833 115.238 61.3613 111.137 58.1654C107.037 54.9694 102.445 53.567 98.4676 57.0545C94.4906 60.5421 91.9665 66.2327 93.2963 71.3586Z" stroke="#263238" stroke-linecap="round" stroke-linejoin="round"/>
<path d="M105.671 74.9204C105.442 76.3699 105.319 77.8341 105.301 79.3016C105.375 80.7848 105.818 81.2316 105.153 81.3805C104.489 81.5294 103.756 80.4869 103.756 80.4869" stroke="#263238" stroke-linecap="round" stroke-linejoin="round"/>
<path d="M98.3016 76.1118C98.7284 76.4225 99.2384 76.5959 99.7647 76.6092C100.291 76.6225 100.809 76.4751 101.251 76.1863" stroke="#263238" stroke-linecap="round" stroke-linejoin="round"/>
<path d="M107.659 76.1118C108.085 76.422 108.594 76.5951 109.119 76.6084C109.644 76.6217 110.161 76.4745 110.602 76.1863" stroke="#263238" stroke-linecap="round" stroke-linejoin="round"/>
<path d="M103.005 73.6111C103.005 73.6111 101.601 70.1173 96.9656 71.7493" stroke="#263238" stroke-linecap="round" stroke-linejoin="round"/>
<path d="M106.865 73.1828C106.865 73.1828 108.041 69.7635 112.239 71.768" stroke="#263238" stroke-linecap="round" stroke-linejoin="round"/>
<path d="M103.898 76.3663C103.898 78.2777 101.724 79.8229 99.0402 79.8229C96.356 79.8229 94.1767 78.2777 94.1767 76.3663C94.1767 74.455 96.2083 73.6606 98.8925 73.6606C101.577 73.6606 103.898 74.4612 103.898 76.3663Z" stroke="#263238" stroke-linecap="round" stroke-linejoin="round"/>
<path d="M115.096 76.3663C115.096 78.2777 112.917 79.8229 110.233 79.8229C107.548 79.8229 105.375 78.2777 105.375 76.3663C105.375 74.455 107.401 73.6606 110.085 73.6606C112.769 73.6606 115.096 74.4612 115.096 76.3663Z" stroke="#263238" stroke-linecap="round" stroke-linejoin="round"/>
<path d="M53.0218 135.896L52.7202 211.126C52.7202 211.363 52.8136 211.59 52.9798 211.758C53.1461 211.925 53.3716 212.02 53.6067 212.02C53.8359 212.02 54.0562 211.93 54.2206 211.768C54.385 211.607 54.4806 211.388 54.487 211.157L56.6171 136.001L53.0218 135.896Z" fill="#EAEEF2" stroke="#263238" stroke-linecap="round" stroke-linejoin="round"/>
<path d="M47.9982 153.482L47.7088 231.257C47.708 231.374 47.7304 231.491 47.7746 231.6C47.8189 231.708 47.8842 231.807 47.9667 231.89C48.0491 231.973 48.1472 232.039 48.2551 232.084C48.363 232.129 48.4787 232.151 48.5953 232.15C48.8242 232.15 49.0443 232.061 49.2095 231.902C49.3747 231.742 49.4723 231.524 49.4819 231.294L51.6058 153.582L47.9982 153.482Z" fill="#EAEEF2" stroke="#263238" stroke-linecap="round" stroke-linejoin="round"/>
<path d="M156.202 135.896L156.503 211.126C156.504 211.243 156.482 211.359 156.438 211.467C156.394 211.576 156.33 211.674 156.248 211.757C156.166 211.841 156.069 211.906 155.961 211.951C155.854 211.996 155.739 212.02 155.623 212.02C155.393 212.02 155.172 211.93 155.007 211.769C154.842 211.608 154.745 211.389 154.737 211.157L152.613 136.001L156.202 135.896Z" fill="#EAEEF2" stroke="#263238" stroke-linecap="round" stroke-linejoin="round"/>
<path d="M161.231 153.482L161.533 231.257C161.534 231.374 161.512 231.491 161.467 231.6C161.423 231.708 161.358 231.807 161.275 231.89C161.193 231.973 161.095 232.039 160.987 232.084C160.879 232.129 160.763 232.151 160.647 232.15C160.418 232.15 160.199 232.061 160.035 231.901C159.871 231.742 159.774 231.524 159.766 231.294L157.636 153.582L161.231 153.482Z" fill="#EAEEF2" stroke="#263238" stroke-linecap="round" stroke-linejoin="round"/>
<path d="M82.9783 156.716L82.7998 225.746C82.7803 225.918 82.8277 226.092 82.9322 226.229C83.0367 226.367 83.19 226.458 83.36 226.485C83.5259 226.461 83.6769 226.375 83.7821 226.244C83.8873 226.113 83.9389 225.946 83.9264 225.777L85.2623 156.796L82.9783 156.716Z" fill="#EAEEF2" stroke="#263238" stroke-linecap="round" stroke-linejoin="round"/>
<path d="M126.325 154.494L126.491 214.738C126.506 214.883 126.464 215.029 126.374 215.145C126.285 215.26 126.155 215.337 126.011 215.358C125.868 215.337 125.738 215.26 125.65 215.144C125.562 215.028 125.521 214.883 125.537 214.738L124.398 154.544L126.325 154.494Z" fill="#EAEEF2" stroke="#263238" stroke-linecap="round" stroke-linejoin="round"/>
<path d="M82.3074 154.494L82.4736 214.738C82.4879 214.883 82.446 215.029 82.3566 215.145C82.2672 215.26 82.1372 215.337 81.9935 215.358C81.8502 215.337 81.7207 215.26 81.6324 215.144C81.544 215.028 81.5035 214.883 81.5194 214.738L80.3805 154.544L82.3074 154.494Z" fill="#EAEEF2" stroke="#263238" stroke-linecap="round" stroke-linejoin="round"/>
<path d="M125.088 156.716L125.279 225.746C125.298 225.918 125.251 226.092 125.146 226.229C125.042 226.367 124.888 226.458 124.718 226.485C124.553 226.46 124.403 226.374 124.298 226.243C124.193 226.111 124.141 225.945 124.152 225.777L122.816 156.796L125.088 156.716Z" fill="#EAEEF2" stroke="#263238" stroke-linecap="round" stroke-linejoin="round"/>
<path d="M103.731 161.55C118.862 161.55 131.127 158.724 131.127 155.239C131.127 151.753 118.862 148.928 103.731 148.928C88.6012 148.928 76.3358 151.753 76.3358 155.239C76.3358 158.724 88.6012 161.55 103.731 161.55Z" fill="#EAEEF2" stroke="#263238" stroke-linecap="round" stroke-linejoin="round"/>
<path d="M90.3904 208.811C90.3904 208.811 88.956 210.884 89.9841 211.914C91.0122 212.944 92.0341 212.534 91.9295 213.571C91.8248 214.607 90.1872 218.12 88.7528 221.843C87.3184 225.566 90.2919 229.29 93.0622 228.26C95.8326 227.229 95.5248 216.878 95.9311 215.017C96.3374 213.155 96.6514 212.845 96.5467 211.088C96.4421 209.332 96.3436 207.471 95.0076 207.26C93.6717 207.049 91.006 208.091 90.3904 208.811Z" fill="#EAEEF2" stroke="#263238" stroke-linecap="round" stroke-linejoin="round"/>
<path d="M94.7926 225.405C92.9457 224.697 90.1138 224.84 88.5193 225.001C89.0549 227.341 91.105 228.985 93.0627 228.259C93.8815 227.955 94.4171 226.851 94.7926 225.405Z" fill="#008B4B" stroke="#263238" stroke-linecap="round" stroke-linejoin="round"/>
<path d="M87.2138 204.262C87.2138 204.262 90.1873 209.333 91.0061 210.673C91.8249 212.013 94.6014 211.604 94.9092 209.742C95.2171 207.88 93.7765 202.711 93.7765 202.711L87.6201 204.262H87.2138Z" fill="#EAEEF2" stroke="#263238" stroke-linecap="round" stroke-linejoin="round"/>
<path d="M80.1342 196.195C80.1342 196.195 79.3092 197.542 79.7217 198.473C80.1342 199.404 81.2608 202.091 81.9811 203.437C82.7014 204.784 85.9827 205.609 89.775 204.989C93.5673 204.368 95.7282 202.606 95.8329 201.054C95.9375 199.503 95.2172 197.436 94.7001 194.954C94.183 192.472 92.8532 192.577 91.0063 192.577C89.1594 192.577 81.6733 194.749 80.1342 196.195Z" fill="#008B4B" stroke="#263238" stroke-linecap="round" stroke-linejoin="round"/>
<path d="M91.2156 165.788C91.271 163.244 92.73 161.99 92.8409 160.247C93.0145 157.941 92.8254 155.623 92.2806 153.377L89.4733 149.511C81.3962 149.616 75.6092 149.753 75.5169 149.784C75.2091 149.883 74.9998 151.646 74.7966 153.092C74.7966 153.092 71.3675 153.532 71.9832 163.151C72.0693 164.491 75.5292 179.999 75.7816 181.767C77.3207 192.571 80.7498 197.983 80.7498 197.983C80.7498 197.983 81.0576 199.329 85.0592 199.019C89.0609 198.709 93.0625 196.022 93.0625 196.022C93.0625 196.022 91.0063 174.991 91.2156 165.788Z" fill="#263238" stroke="#263238" stroke-linecap="round" stroke-linejoin="round"/>
<path d="M74.2426 151.515C74.2426 151.515 70.0009 152.136 67.4029 155.127C64.805 158.118 67.0089 160.092 72.0571 159.558C77.1053 159.024 82.9292 153.818 83.1755 153.538C83.4217 153.259 77.9118 149.722 74.2426 151.515Z" fill="#EAEEF2" stroke="#263238" stroke-linecap="round" stroke-linejoin="round"/>
<path d="M81.7718 153.377C84.4743 153.517 87.1557 153.933 89.7751 154.618C93.2657 155.655 99.422 157.721 100.856 157.721C102.291 157.721 101.885 152.341 101.885 151.311C101.885 150.28 83.4155 149.654 81.1562 149.654C78.8968 149.654 81.7718 153.377 81.7718 153.377Z" fill="#EAEEF2" stroke="#263238" stroke-linecap="round" stroke-linejoin="round"/>
<path d="M101.884 151.31C101.884 151.31 100.241 152.136 99.6249 155.239C99.0093 158.341 98.1905 159.998 99.4217 160.824C100.653 161.649 105.991 162.27 106.809 161.444C107.628 160.619 109.888 156.48 110.3 153.793C110.712 151.106 101.884 151.31 101.884 151.31Z" fill="#008B4B" stroke="#263238" stroke-linecap="round" stroke-linejoin="round"/>
<path d="M108.86 152.341C107.905 153.445 107.144 154.704 106.606 156.064C106.171 157.488 105.828 158.939 105.578 160.408C107.542 160.951 109.463 161.644 111.322 162.481C114.61 163.927 120.15 164.963 125.482 166.204C130.813 167.445 132.254 168.687 134.101 168.687C135.948 168.687 138.207 167.234 141.082 163.722C143.957 160.21 141.488 152.757 138.619 150.479C135.751 148.202 120.354 146.346 118.304 146.967C116.253 147.587 108.86 152.341 108.86 152.341Z" fill="#263238" stroke="#263238" stroke-linecap="round" stroke-linejoin="round"/>
<path d="M70.3578 159.614C69.9524 157.757 69.1311 156.019 67.9568 154.531C67.766 154.711 67.5813 154.897 67.4028 155.102C65.1188 157.721 66.547 159.583 70.3578 159.614Z" fill="#008B4B" stroke="#263238" stroke-linecap="round" stroke-linejoin="round"/>
<path d="M90.9016 161.252C90.9016 161.252 88.7838 184.095 84.462 187.651" stroke="#EAEEF2" stroke-width="0.5" stroke-linecap="round" stroke-linejoin="round"/>
<path d="M89.4058 182.934C89.4058 182.934 87.7251 190.381 83.3172 193.341" stroke="#EAEEF2" stroke-width="0.5" stroke-linecap="round" stroke-linejoin="round"/>
<path d="M116.659 157.1C116.659 157.1 110.091 157.516 114.4 160.408C118.71 163.3 126.51 165.168 126.51 165.168" stroke="#EAEEF2" stroke-width="0.5" stroke-linecap="round" stroke-linejoin="round"/>
<path d="M164.347 149.275L162.131 147.265L157.009 136.095C156.766 135.586 156.384 135.158 155.909 134.861C155.434 134.563 154.884 134.407 154.324 134.413H54.8379C54.2772 134.406 53.7264 134.561 53.2499 134.859C52.7734 135.157 52.391 135.585 52.1476 136.095L45.7634 150.008L44.7107 149.617V152.8L44.7599 152.763C44.8227 153.188 45.0365 153.575 45.3616 153.852C45.6867 154.13 46.1009 154.279 46.5268 154.271H162.629C163.078 154.281 163.513 154.116 163.843 153.809C164.172 153.502 164.371 153.078 164.396 152.626L164.347 149.275Z" fill="#263238" stroke="#263238" stroke-linecap="round" stroke-linejoin="round"/>
<path d="M162.629 151.361H46.5268C46.2393 151.372 45.9535 151.31 45.6964 151.18C45.4393 151.049 45.2192 150.855 45.0568 150.616C44.8943 150.377 44.7949 150.1 44.7677 149.811C44.7406 149.522 44.7866 149.231 44.9015 148.965L52.1475 133.184C52.3897 132.674 52.7718 132.245 53.2486 131.947C53.7254 131.648 54.2769 131.494 54.8378 131.502H154.324C154.884 131.496 155.434 131.65 155.91 131.948C156.386 132.246 156.767 132.675 157.009 133.184L164.255 148.965C164.369 149.231 164.416 149.522 164.388 149.811C164.361 150.1 164.262 150.377 164.099 150.616C163.937 150.855 163.717 151.049 163.46 151.18C163.203 151.31 162.917 151.372 162.629 151.361Z" fill="#EAEEF2" stroke="#263238" stroke-linecap="round" stroke-linejoin="round"/>
<g style="mix-blend-mode:multiply" opacity="0.5">
<path d="M52.4062 140.761C52.4062 140.761 49.7774 142.58 51.4212 143.244C53.0649 143.908 71.9588 143.411 74.2612 142.747C76.5637 142.083 79.1863 135.958 79.1863 134.965C79.1863 133.972 75.8742 133.259 74.6552 133.203C73.4363 133.147 57.3313 134.134 57.3313 134.134L52.4062 140.761Z" fill="#008B4B"/>
</g>
<g style="mix-blend-mode:multiply" opacity="0.5">
<path d="M146.388 143.907C150.108 143.907 153.123 142.646 153.123 141.09C153.123 139.534 150.108 138.273 146.388 138.273C142.669 138.273 139.653 139.534 139.653 141.09C139.653 142.646 142.669 143.907 146.388 143.907Z" fill="#008B4B"/>
</g>
<g style="mix-blend-mode:multiply" opacity="0.5">
<path d="M103.51 147.389C116.848 147.389 127.661 145.349 127.661 142.834C127.661 140.318 116.848 138.279 103.51 138.279C90.1714 138.279 79.3585 140.318 79.3585 142.834C79.3585 145.349 90.1714 147.389 103.51 147.389Z" fill="#008B4B"/>
</g>
<path d="M141.463 130.007C141.463 130.007 141.02 128.226 139.549 128.822C138.077 129.417 138.225 133.352 138.515 135.58C138.804 137.807 140.799 136.765 140.799 136.765V135.431C140.799 135.431 140.066 136.02 139.697 135.207C139.327 134.394 139.401 130.305 139.77 130.379C140.14 130.454 140.872 131.713 140.872 131.713C140.872 131.713 141.094 131.571 141.463 130.007Z" fill="#008B4B" stroke="#263238" stroke-linecap="round" stroke-linejoin="round"/>
<path d="M140.404 130.305V140.06C140.404 141.208 143.021 142.139 146.253 142.139C149.485 142.139 152.095 141.208 152.095 140.06V130.305H140.404Z" fill="#008B4B" stroke="#263238" stroke-linecap="round" stroke-linejoin="round"/>
<path d="M152.095 130.305C152.095 131.298 149.479 132.098 146.253 132.098C143.027 132.098 140.404 131.298 140.404 130.305C140.404 129.312 143.021 128.511 146.253 128.511C149.485 128.511 152.095 129.318 152.095 130.305Z" fill="#EAEEF2" stroke="#263238" stroke-linecap="round" stroke-linejoin="round"/>
<path d="M151.332 130.305C151.332 131.167 149.054 131.862 146.253 131.862C143.452 131.862 141.168 131.167 141.168 130.305C141.168 129.442 143.446 128.747 146.253 128.747C149.06 128.747 151.332 129.442 151.332 130.305Z" fill="#EAEEF2" stroke="#263238" stroke-linecap="round" stroke-linejoin="round"/>
<path d="M142.331 131.298C144.89 132.051 147.609 132.051 150.168 131.298C147.609 130.545 144.89 130.545 142.331 131.298Z" fill="#263238" stroke="#263238" stroke-linecap="round" stroke-linejoin="round"/>
<path d="M51.6797 134.76L51.7536 138.099L74.0703 138.322V134.462L51.6797 134.76Z" fill="#EAEEF2" stroke="#263238" stroke-linecap="round" stroke-linejoin="round"/>
<path d="M74.0702 138.323L77.3146 131.273V129.194L73.9225 135.133L74.0702 138.323Z" fill="#EAEEF2" stroke="#263238" stroke-linecap="round" stroke-linejoin="round"/>
<path d="M51.6797 137.801L51.7536 141.146L74.0703 141.369V137.509L51.6797 137.801Z" fill="#EAEEF2" stroke="#263238" stroke-linecap="round" stroke-linejoin="round"/>
<path d="M74.0702 141.369L77.3146 134.314V132.235L73.9225 138.173L74.0702 141.369Z" fill="#EAEEF2" stroke="#263238" stroke-linecap="round" stroke-linejoin="round"/>
<path d="M60.2986 126.296C60.2986 126.296 60.8158 125.26 60.077 124.813C59.3383 124.366 58.5318 125.433 58.0885 125.775C57.6453 126.116 48.3676 132.309 48.0721 133.277C47.7766 134.245 48.0721 136.38 50.0606 136.616C52.0491 136.852 53.816 135.505 54.7025 135.282C55.589 135.058 55.9338 134.984 55.9338 134.984L62.047 126.668L60.2986 126.296Z" fill="#EAEEF2" stroke="#263238" stroke-linecap="round" stroke-linejoin="round"/>
<path d="M50.0604 136.622C52.0489 136.846 53.8158 135.511 54.7023 135.288C55.5888 135.065 55.9336 134.99 55.9336 134.99L56.1552 134.686L50.4113 133.507C50.0991 133.21 49.6976 133.028 49.2705 132.987C48.8434 132.947 48.4151 133.051 48.0535 133.284C47.7764 134.239 48.0719 136.393 50.0604 136.622Z" fill="#EAEEF2" stroke="#263238" stroke-linecap="round" stroke-linejoin="round"/>
<path d="M50.4299 133.519H67.6677C73.0483 133.519 74.6675 133.222 74.6675 133.222L77.9796 126.315C77.9796 126.315 67.5138 126.985 64.2817 126.761C62.9461 126.723 61.616 126.573 60.3047 126.315L50.4299 133.519Z" fill="#EAEEF2" stroke="#263238" stroke-linecap="round" stroke-linejoin="round"/>
<path d="M50.4299 133.519L50.7254 134.853C50.7254 134.853 64.7188 134.928 68.4003 134.928C72.0818 134.928 74.8829 135.077 74.8829 135.077L74.6613 133.215L50.4299 133.519Z" fill="#EAEEF2" stroke="#263238" stroke-linecap="round" stroke-linejoin="round"/>
<path d="M74.8828 135.058L77.9733 127.928V126.296L74.6612 133.203L74.8828 135.058Z" fill="#EAEEF2" stroke="#263238" stroke-linecap="round" stroke-linejoin="round"/>
<path d="M124.602 143.399H82.4C82.3065 143.399 82.2138 143.381 82.1272 143.346C82.0406 143.311 81.9618 143.258 81.8954 143.192C81.829 143.125 81.7763 143.046 81.7403 142.959C81.7044 142.872 81.6858 142.779 81.6859 142.685C81.6858 142.591 81.7044 142.497 81.7403 142.41C81.7763 142.323 81.829 142.244 81.8954 142.178C81.9618 142.112 82.0406 142.059 82.1272 142.024C82.2138 141.988 82.3065 141.97 82.4 141.971H124.602C124.695 141.97 124.787 141.988 124.874 142.024C124.96 142.059 125.038 142.112 125.104 142.178C125.17 142.245 125.222 142.324 125.257 142.411C125.293 142.498 125.311 142.591 125.31 142.685C125.311 142.779 125.293 142.872 125.257 142.959C125.222 143.046 125.17 143.125 125.104 143.191C125.038 143.258 124.96 143.31 124.874 143.346C124.787 143.381 124.695 143.399 124.602 143.399Z" fill="#EAEEF2" stroke="#263238" stroke-linecap="round" stroke-linejoin="round"/>
<path d="M124.958 141.96H82.0363C81.8793 141.96 81.728 141.9 81.6136 141.791C81.4991 141.683 81.4301 141.534 81.4207 141.376L79.0875 113.109C79.077 113.022 79.0851 112.933 79.1113 112.849C79.1375 112.765 79.1812 112.687 79.2394 112.622C79.2977 112.556 79.3691 112.503 79.4491 112.468C79.529 112.432 79.6156 112.414 79.7031 112.414H127.298C127.385 112.414 127.472 112.432 127.552 112.468C127.632 112.503 127.703 112.556 127.761 112.622C127.82 112.687 127.863 112.765 127.89 112.849C127.916 112.933 127.924 113.022 127.913 113.109L125.58 141.376C125.571 141.535 125.501 141.685 125.385 141.793C125.269 141.902 125.117 141.961 124.958 141.96Z" fill="#EAEEF2" stroke="#263238" stroke-linecap="round" stroke-linejoin="round"/>
<path d="M107.548 127.674C107.548 129.362 105.732 130.727 103.497 130.727C101.263 130.727 99.4404 129.362 99.4404 127.674C99.4404 125.986 101.257 124.627 103.497 124.627C105.738 124.627 107.548 125.992 107.548 127.674Z" fill="#EAEEF2" stroke="#263238" stroke-linecap="round" stroke-linejoin="round"/>
<path d="M149.491 105.594C150.15 105.077 150.613 104.347 150.803 103.528C150.941 102.913 150.926 102.274 150.76 101.666" stroke="#263238" stroke-linecap="round" stroke-linejoin="round"/>
<path d="M144.579 127.724C144.579 127.724 148.673 125.241 147.337 122.405C146.001 119.569 141.482 117.689 141.482 113.271C141.482 109.46 145.502 108.052 148.125 106.525" stroke="#263238" stroke-linecap="round" stroke-linejoin="round"/>
<path d="M148.358 127.643C148.358 127.643 150.642 126.11 150.642 123.678C150.642 122.045 148.913 120.978 146.629 118.353" stroke="#263238" stroke-linecap="round" stroke-linejoin="round"/>
<path d="M145.367 116.764C145.367 116.764 143.871 115.579 144.973 113.351" stroke="#263238" stroke-linecap="round" stroke-linejoin="round"/>
<path d="M110.707 51.7616C111.439 51.6065 113.009 50.9983 114.068 48.5223C114.084 48.4848 114.093 48.4445 114.094 48.4036C114.095 48.3626 114.087 48.322 114.072 48.2839C114.058 48.2459 114.035 48.2111 114.007 48.1817C113.979 48.1524 113.945 48.1289 113.908 48.1127C113.833 48.0812 113.748 48.0804 113.672 48.1105C113.596 48.1406 113.535 48.1993 113.502 48.2741C112.529 50.5453 111.138 51.048 110.559 51.1597C111.594 49.8964 112.166 48.3118 112.178 46.673C112.178 42.3663 108.219 38.8787 103.337 38.8787C98.4554 38.8787 94.4969 42.3663 94.4969 46.673C94.5002 48.2457 95.0197 49.7731 95.9744 51.017C95.0448 50.9673 93.475 51.3645 91.4865 53.704C91.4297 53.7631 91.3979 53.8421 91.3979 53.9243C91.3979 54.0066 91.4297 54.0856 91.4865 54.1446C91.5436 54.1924 91.6154 54.2188 91.6896 54.2191C91.7344 54.2191 91.7786 54.2091 91.8191 54.1898C91.8595 54.1705 91.8952 54.1423 91.9236 54.1074C94.4661 51.1225 96.1468 51.6251 96.4854 51.7616C95.9105 52.0804 95.3718 52.4611 94.8786 52.8973C92.0405 55.4726 90.3106 60.3441 90.5322 64.4026C90.7813 67.0944 91.7494 69.6678 93.3334 71.8494C95.3947 70.3623 97.1039 68.4338 98.3385 66.2022C99.2585 64.563 100.081 62.87 100.801 61.1322C100.801 62.9505 101.035 65.1473 101.983 66.7173C102.667 67.9574 103.669 68.9895 104.884 69.7057C106.099 70.4218 107.483 70.7957 108.89 70.7882C109.376 70.7953 109.862 70.7474 110.337 70.6455C110.379 70.635 110.418 70.6157 110.452 70.589C110.486 70.5623 110.514 70.5287 110.534 70.4903C112.911 70.9992 115.275 70.9558 115.638 70.4469C116.223 69.634 117.054 67.0959 117.331 63.993C117.836 58.7306 114.548 54.1632 110.707 51.7616ZM102.556 66.3388C101.361 64.3716 101.398 61.1632 101.54 59.3201L101.62 59.1091C101.677 61.0048 102.156 62.8632 103.022 64.5465C103.889 66.2299 105.12 67.6951 106.625 68.8334C107.456 69.4126 108.378 69.8469 109.352 70.118C107.844 70.2235 104.741 69.9318 102.556 66.3388Z" fill="#263238"/>
<path d="M102.66 56.5706C102.66 56.5706 102.156 60.3312 106.896 64.0174C111.636 67.7035 116.13 66.2514 116.13 66.2514" stroke="#EAEEF2" stroke-width="0.5" stroke-linecap="round" stroke-linejoin="round"/>
<path d="M103.356 55.3293C103.356 55.3293 108.349 62.6582 115.244 60.7469" stroke="#EAEEF2" stroke-width="0.5" stroke-linecap="round" stroke-linejoin="round"/>
<path d="M100.887 52.8908C100.1 52.4878 99.2179 52.3105 98.3374 52.3784C97.457 52.4462 96.6119 52.7566 95.8945 53.2755C93.2411 55.0566 91.9113 59.264 91.9113 59.264" stroke="#EAEEF2" stroke-width="0.5" stroke-linecap="round" stroke-linejoin="round"/>
<path d="M101.016 54.9323C101.016 54.9323 98.8679 54.3551 97.5382 55.6956C96.8901 56.2876 96.3358 56.9761 95.8944 57.7372" stroke="#EAEEF2" stroke-width="0.5" stroke-linecap="round" stroke-linejoin="round"/>
</svg>
