<svg width="255" height="232" viewBox="0 0 255 232" fill="none" xmlns="http://www.w3.org/2000/svg">
<path d="M37.3438 212.458C87.1325 238.472 167.867 238.472 217.656 212.458C267.445 186.445 267.451 144.271 217.656 118.258C167.862 92.2441 87.1325 92.2441 37.3438 118.258C-12.4449 144.271 -12.4508 186.445 37.3438 212.458Z" fill="#F5F5F5"/>
<path d="M166.411 205.879C181.425 205.879 193.597 200.078 193.597 192.923C193.597 185.767 181.425 179.966 166.411 179.966C151.396 179.966 139.225 185.767 139.225 192.923C139.225 200.078 151.396 205.879 166.411 205.879Z" fill="#EBEBEB"/>
<path d="M214.571 176.331C226.155 176.331 235.545 171.855 235.545 166.335C235.545 160.815 226.155 156.339 214.571 156.339C202.987 156.339 193.597 160.815 193.597 166.335C193.597 171.855 202.987 176.331 214.571 176.331Z" fill="#EBEBEB"/>
<path d="M65.0806 163.534C63.8963 157.281 59.5617 148.369 54.2737 143.401C49.1871 138.628 41.637 136.964 38.6289 139.167C35.6207 141.37 37.5926 146.131 43.4313 151.934C50.022 158.477 62.6764 176.633 65.0806 186.918V163.534Z" fill="#008B4B"/>
<g opacity="0.2">
<path d="M65.0806 163.534C63.8963 157.281 59.5617 148.369 54.2737 143.401C49.1871 138.628 41.637 136.964 38.6289 139.167C35.6207 141.37 37.5926 146.131 43.4313 151.934C50.022 158.477 62.6764 176.633 65.0806 186.918V163.534Z" fill="black"/>
</g>
<path d="M65.0805 178.581C65.0063 178.58 64.9351 178.551 64.8805 178.501C64.8259 178.451 64.7917 178.382 64.7844 178.309C63.2922 162.557 52.278 144.852 41.6902 141.162C41.6163 141.136 41.5558 141.081 41.5215 141.01C41.4872 140.939 41.4819 140.858 41.5067 140.783C41.5335 140.709 41.5881 140.649 41.6589 140.615C41.7297 140.58 41.811 140.575 41.8857 140.6C52.8643 144.419 63.8488 162.018 65.3884 178.255C65.3951 178.334 65.371 178.411 65.3213 178.472C65.2715 178.533 65.2 178.572 65.122 178.581H65.0805Z" fill="white"/>
<path d="M65.0805 194.48C65.0805 194.48 63.0317 196.115 56.1981 195.475C49.3646 194.836 45.8413 189.95 45.8413 187.854C45.8413 185.758 52.1241 185.397 53.4861 180.198C52.1007 181.682 50.2577 182.66 48.2514 182.975C44.6984 183.644 41.8442 182.507 41.033 176.035C42.7841 176.291 44.5706 176.143 46.2558 175.602C49.0686 174.696 49.7377 173.151 49.0034 172.819C48.2691 172.488 44.349 172.819 41.8383 171.866C39.3275 170.912 41.2461 157.838 42.8923 156.908C44.5385 155.978 52.3254 158.169 53.8414 159.342C55.1915 160.384 57.0864 162.19 56.21 166.009C57.2481 165.039 58.0572 163.85 58.5786 162.528C59.3129 160.751 59.8458 161.166 60.9473 161.847C61.6087 162.219 62.1827 162.729 62.6311 163.342C63.0794 163.955 63.3916 164.656 63.5468 165.399C63.8133 167.058 63.381 172.778 61.0479 174.637C61.0479 174.637 63.2863 174.921 65.1161 171.143C65.1161 171.143 68.669 172.576 69.4744 174.898C70.2797 177.219 71.1561 188.582 65.0805 194.48Z" fill="#008B4B"/>
<path d="M65.6845 195.771C65.6121 195.771 65.5424 195.744 65.4881 195.696C65.4337 195.648 65.3983 195.582 65.3884 195.511C63.8251 182.714 54.0959 165.903 44.5563 159.59C44.4903 159.546 44.4445 159.478 44.429 159.4C44.4134 159.323 44.4294 159.242 44.4734 159.176C44.5173 159.11 44.5857 159.064 44.6634 159.049C44.7412 159.033 44.8219 159.049 44.8879 159.093C54.546 165.518 64.4291 182.501 65.9747 195.44C65.9847 195.517 65.9636 195.596 65.9159 195.658C65.8681 195.72 65.7977 195.761 65.72 195.771H65.6845Z" fill="white"/>
<path d="M66.2828 197.56C65.9295 197.315 65.6383 196.991 65.4327 196.614C65.227 196.236 65.1126 195.816 65.0984 195.386V53.9136C65.1226 53.4684 65.2516 53.0353 65.4749 52.6494C65.6982 52.2635 66.0095 51.9358 66.3834 51.693L155.207 0.400211C155.578 0.167343 156.006 0.0400869 156.444 0.0321352C156.882 0.0241835 157.314 0.135835 157.694 0.35508C158.073 0.574324 158.386 0.892865 158.598 1.27643C158.81 1.66 158.913 2.09408 158.896 2.53198L68.7698 197.512C68.3882 197.715 67.9641 197.825 67.532 197.833C67.0998 197.842 66.6718 197.748 66.2828 197.56Z" fill="#E0E0E0"/>
<path d="M67.4848 56.602L103.565 32.9926L101.161 31.6011L66.3656 51.693C65.9916 51.9358 65.6804 52.2635 65.4571 52.6494C65.2338 53.0353 65.1048 53.4684 65.0806 53.9136V55.2105L67.4848 56.602Z" fill="#37474F"/>
<path opacity="0.2" d="M67.4848 56.602L103.565 32.9926L101.161 31.6011L66.3656 51.693C65.9916 51.9358 65.6804 52.2635 65.4571 52.6494C65.2338 53.0353 65.1048 53.4684 65.0806 53.9136V55.2105L67.4848 56.602Z" fill="#37474F"/>
<path d="M79.5352 60.7649L65.4537 52.6642C65.2242 53.0461 65.0958 53.4802 65.0806 53.9255V195.374C65.0653 195.812 65.1695 196.245 65.3818 196.628C65.5941 197.011 65.9067 197.328 66.2859 197.547C66.6651 197.765 67.0967 197.876 67.5343 197.868C67.9719 197.86 68.399 197.733 68.7698 197.5L79.5352 191.312V60.7649Z" fill="#263238"/>
<path opacity="0.4" d="M79.5352 60.7649L65.4537 52.6642C65.2242 53.0461 65.0958 53.4802 65.0806 53.9255V195.374C65.0653 195.812 65.1695 196.245 65.3818 196.628C65.5941 197.011 65.9067 197.328 66.2859 197.547C66.6651 197.765 67.0967 197.876 67.5343 197.868C67.9719 197.86 68.399 197.733 68.7698 197.5L79.5352 191.312V60.7649Z" fill="#263238"/>
<path d="M68.7697 197.512L157.594 146.219C157.967 145.977 158.279 145.649 158.502 145.263C158.725 144.877 158.854 144.444 158.879 143.999V2.53207C158.879 1.71489 158.286 1.38329 157.594 1.79187L68.7697 53.0847C68.3958 53.3275 68.0845 53.6552 67.8612 54.041C67.6379 54.4269 67.5089 54.8601 67.4847 55.3053V196.772C67.4847 197.589 68.0591 197.921 68.7697 197.512Z" fill="#455A64"/>
<path opacity="0.1" d="M68.7697 197.512L157.594 146.219C157.967 145.977 158.279 145.649 158.502 145.263C158.725 144.877 158.854 144.444 158.879 143.999V2.53207C158.879 1.71489 158.286 1.38329 157.594 1.79187L68.7697 53.0847C68.3958 53.3275 68.0845 53.6552 67.8612 54.041C67.6379 54.4269 67.5089 54.8601 67.4847 55.3053V196.772C67.4847 197.589 68.0591 197.921 68.7697 197.512Z" fill="#455A64"/>
<path d="M74.863 87.9806L96.1808 75.6637C97.596 74.8465 98.7448 75.4268 98.7448 76.9605C98.6815 77.8216 98.4164 78.6557 97.971 79.3954C97.5256 80.135 96.9123 80.7595 96.1808 81.2181L74.863 93.535C73.4418 94.3522 72.299 93.7719 72.299 92.2382C72.3609 91.3767 72.6254 90.5421 73.0709 89.8022C73.5165 89.0623 74.1305 88.4382 74.863 87.9806Z" fill="#008B4B"/>
<path d="M74.863 96.7208L88.9742 88.5727C90.3894 87.7555 91.5382 88.3359 91.5382 89.8696C91.475 90.7307 91.2099 91.5648 90.7644 92.3044C90.319 93.0441 89.7057 93.6685 88.9742 94.1272L74.863 102.275C73.4418 103.092 72.299 102.512 72.299 100.978C72.3609 100.117 72.6254 99.2823 73.0709 98.5425C73.5165 97.8026 74.1305 97.1784 74.863 96.7208Z" fill="#008B4B"/>
<path d="M73.3234 111.679L76.0829 110.086C76.675 109.76 77.1073 110.027 77.1073 110.678V113.864C77.0881 114.22 76.9853 114.566 76.8073 114.875C76.6294 115.183 76.3812 115.446 76.0829 115.64L73.3234 117.21C72.7313 117.541 72.299 117.275 72.299 116.617V113.432C72.3223 113.08 72.4269 112.739 72.6047 112.435C72.7825 112.13 73.0285 111.872 73.3234 111.679Z" fill="#008B4B"/>
<path opacity="0.2" d="M73.3234 111.679L76.0829 110.086C76.675 109.76 77.1073 110.027 77.1073 110.678V113.864C77.0881 114.22 76.9853 114.566 76.8073 114.875C76.6294 115.183 76.3812 115.446 76.0829 115.64L73.3234 117.21C72.7313 117.541 72.299 117.275 72.299 116.617V113.432C72.3223 113.08 72.4269 112.739 72.6047 112.435C72.7825 112.13 73.0285 111.872 73.3234 111.679Z" fill="black"/>
<path d="M73.3234 122.794L76.0829 121.201C76.675 120.869 77.1073 121.136 77.1073 121.793V124.979C77.0867 125.334 76.9834 125.68 76.8055 125.988C76.6276 126.297 76.3802 126.559 76.0829 126.755L73.3234 128.348C72.7313 128.674 72.299 128.407 72.299 127.756V124.57C72.3173 124.214 72.4196 123.867 72.5977 123.559C72.7758 123.25 73.0245 122.988 73.3234 122.794Z" fill="#008B4B"/>
<g opacity="0.2">
<path d="M73.3234 122.794L76.0829 121.201C76.675 120.869 77.1073 121.136 77.1073 121.793V124.979C77.0867 125.334 76.9834 125.68 76.8055 125.988C76.6276 126.297 76.3802 126.559 76.0829 126.755L73.3234 128.348C72.7313 128.674 72.299 128.407 72.299 127.756V124.57C72.3173 124.214 72.4196 123.867 72.5977 123.559C72.7758 123.25 73.0245 122.988 73.3234 122.794Z" fill="black"/>
</g>
<path d="M80.7965 119.868L97.4717 110.234C98.1823 109.825 98.7567 110.115 98.7567 110.885C98.7245 111.316 98.5914 111.732 98.3681 112.102C98.1449 112.471 97.8378 112.782 97.4717 113.011L80.7965 122.645C80.0859 123.054 79.5115 122.764 79.5115 121.994C79.5437 121.564 79.6768 121.147 79.9 120.778C80.1233 120.408 80.4304 120.097 80.7965 119.868Z" fill="#008B4B"/>
<path opacity="0.2" d="M80.7965 119.868L97.4717 110.234C98.1823 109.825 98.7567 110.115 98.7567 110.885C98.7245 111.316 98.5914 111.732 98.3681 112.102C98.1449 112.471 97.8378 112.782 97.4717 113.011L80.7965 122.645C80.0859 123.054 79.5115 122.764 79.5115 121.994C79.5437 121.564 79.6768 121.147 79.9 120.778C80.1233 120.408 80.4304 120.097 80.7965 119.868Z" fill="black"/>
<path d="M73.3234 133.902L76.0829 132.31C76.675 131.978 77.1073 132.244 77.1073 132.902V136.088C77.0872 136.443 76.984 136.789 76.8061 137.097C76.6282 137.406 76.3805 137.668 76.0829 137.864L73.3234 139.457C72.7313 139.783 72.299 139.516 72.299 138.865V135.679C72.3173 135.323 72.4196 134.976 72.5977 134.668C72.7758 134.359 73.0245 134.097 73.3234 133.902Z" fill="#E0E0E0"/>
<path d="M80.7965 130.977L97.4717 121.355C98.1823 120.946 98.7567 121.236 98.7567 122.006C98.7254 122.437 98.5927 122.854 98.3694 123.223C98.146 123.593 97.8384 123.904 97.4717 124.132L80.7965 133.766C80.0859 134.175 79.5115 133.885 79.5115 133.115C79.5419 132.682 79.6741 132.263 79.8975 131.892C80.1208 131.52 80.4289 131.207 80.7965 130.977Z" fill="#F0F0F0"/>
<path d="M73.3234 145.041L76.0829 143.448C76.675 143.116 77.1073 143.383 77.1073 144.04V147.226C77.0872 147.582 76.984 147.927 76.8061 148.236C76.6282 148.544 76.3805 148.807 76.0829 149.003L73.3234 150.595C72.7313 150.921 72.299 150.655 72.299 150.003V146.817C72.3173 146.461 72.4196 146.115 72.5977 145.806C72.7758 145.497 73.0245 145.235 73.3234 145.041Z" fill="#E0E0E0"/>
<path d="M80.7965 142.116L97.4717 132.487C98.1823 132.073 98.7567 132.369 98.7567 133.133C98.7254 133.564 98.5927 133.982 98.3694 134.352C98.1461 134.723 97.8385 135.035 97.4717 135.264L80.7965 144.893C80.0859 145.302 79.5115 145.011 79.5115 144.242C79.5437 143.811 79.6768 143.394 79.9 143.025C80.1233 142.656 80.4304 142.344 80.7965 142.116Z" fill="#F0F0F0"/>
<path d="M73.3234 156.15L76.0829 154.557C76.675 154.225 77.1073 154.492 77.1073 155.149V158.335C77.0872 158.69 76.984 159.036 76.8061 159.345C76.6282 159.653 76.3805 159.916 76.0829 160.111L73.3234 161.704C72.7313 162.03 72.299 161.764 72.299 161.112V157.926C72.3173 157.57 72.4196 157.224 72.5977 156.915C72.7758 156.606 73.0245 156.344 73.3234 156.15Z" fill="#E0E0E0"/>
<path d="M80.7965 153.225L97.4717 143.596C98.1823 143.182 98.7567 143.478 98.7567 144.242C98.7254 144.673 98.5927 145.091 98.3694 145.461C98.1461 145.832 97.8385 146.144 97.4717 146.373L80.7965 156.002C80.0859 156.411 79.5115 156.12 79.5115 155.351C79.5437 154.92 79.6768 154.503 79.9 154.134C80.1233 153.765 80.4304 153.453 80.7965 153.225Z" fill="#F0F0F0"/>
<path d="M73.578 167.081L85.4212 160.23C86.1318 159.821 86.7062 160.111 86.7062 160.881C86.674 161.312 86.5409 161.728 86.3177 162.098C86.0944 162.467 85.7873 162.779 85.4212 163.007L73.578 169.858C72.8734 170.267 72.299 169.977 72.299 169.213C72.3301 168.782 72.462 168.365 72.6842 167.994C72.9064 167.624 73.2126 167.311 73.578 167.081Z" fill="#008B4B"/>
<path d="M73.578 172.636L97.4717 158.844C98.1822 158.436 98.7566 158.726 98.7566 159.49C98.7254 159.921 98.5927 160.339 98.3694 160.709C98.1461 161.08 97.8385 161.392 97.4717 161.621L73.578 175.413C72.8734 175.821 72.299 175.531 72.299 174.767C72.3301 174.337 72.462 173.919 72.6842 173.549C72.9064 173.179 73.2126 172.866 73.578 172.636Z" fill="#008B4B"/>
<path opacity="0.8" d="M73.578 172.636L97.4717 158.844C98.1822 158.436 98.7566 158.726 98.7566 159.49C98.7254 159.921 98.5927 160.339 98.3694 160.709C98.1461 161.08 97.8385 161.392 97.4717 161.621L73.578 175.413C72.8734 175.821 72.299 175.531 72.299 174.767C72.3301 174.337 72.462 173.919 72.6842 173.549C72.9064 173.179 73.2126 172.866 73.578 172.636Z" fill="white"/>
<path d="M73.578 172.636L90.2592 163.007C90.9638 162.599 91.5382 162.889 91.5382 163.658C91.5062 164.088 91.3738 164.504 91.1517 164.874C90.9295 165.243 90.6238 165.555 90.2592 165.784L73.578 175.413C72.8734 175.821 72.299 175.531 72.299 174.767C72.3301 174.337 72.462 173.919 72.6842 173.549C72.9064 173.179 73.2126 172.866 73.578 172.636Z" fill="#008B4B"/>
<path d="M73.578 178.202L85.4212 171.351C86.1318 170.942 86.7062 171.232 86.7062 172.002C86.674 172.432 86.5409 172.849 86.3177 173.218C86.0944 173.588 85.7873 173.899 85.4212 174.128L73.578 180.979C72.8734 181.388 72.299 181.098 72.299 180.334C72.3301 179.903 72.462 179.486 72.6842 179.115C72.9064 178.745 73.2126 178.432 73.578 178.202Z" fill="#008B4B"/>
<path d="M80.7965 108.754L97.4717 99.125C98.1823 98.7164 98.7567 99.0066 98.7567 99.7764C98.7245 100.207 98.5914 100.623 98.3681 100.993C98.1449 101.362 97.8378 101.674 97.4717 101.902L80.7965 111.531C80.0859 111.939 79.5115 111.649 79.5115 110.885C79.5428 110.454 79.6755 110.036 79.8988 109.666C80.122 109.295 80.4296 108.983 80.7965 108.754Z" fill="#008B4B"/>
<path opacity="0.2" d="M80.7965 108.754L97.4717 99.125C98.1823 98.7164 98.7567 99.0066 98.7567 99.7764C98.7245 100.207 98.5914 100.623 98.3681 100.993C98.1449 101.362 97.8378 101.674 97.4717 101.902L80.7965 111.531C80.0859 111.939 79.5115 111.649 79.5115 110.885C79.5428 110.454 79.6755 110.036 79.8988 109.666C80.122 109.295 80.4296 108.983 80.7965 108.754Z" fill="black"/>
<path d="M73.578 178.202L85.4212 171.351C86.1318 170.942 86.7062 171.232 86.7062 172.002C86.674 172.432 86.5409 172.849 86.3177 173.218C86.0944 173.588 85.7873 173.899 85.4212 174.128L73.578 180.979C72.8734 181.388 72.299 181.098 72.299 180.334C72.3301 179.903 72.462 179.486 72.6842 179.115C72.9064 178.745 73.2126 178.432 73.578 178.202Z" fill="#008B4B"/>
<path d="M73.578 183.739L97.4717 169.947C98.1822 169.539 98.7566 169.829 98.7566 170.593C98.7254 171.024 98.5927 171.442 98.3694 171.812C98.1461 172.183 97.8385 172.495 97.4717 172.724L73.578 186.492C72.8734 186.907 72.299 186.611 72.299 185.847C72.3337 185.42 72.4673 185.007 72.6894 184.641C72.9114 184.276 73.2157 183.966 73.578 183.739Z" fill="#008B4B"/>
<path opacity="0.8" d="M73.578 183.739L97.4717 169.947C98.1822 169.539 98.7566 169.829 98.7566 170.593C98.7254 171.024 98.5927 171.442 98.3694 171.812C98.1461 172.183 97.8385 172.495 97.4717 172.724L73.578 186.492C72.8734 186.907 72.299 186.611 72.299 185.847C72.3337 185.42 72.4673 185.007 72.6894 184.641C72.9114 184.276 73.2157 183.966 73.578 183.739Z" fill="white"/>
<path d="M73.578 183.739L95.0675 171.303C95.7781 170.895 96.3525 171.185 96.3525 171.955C96.3203 172.385 96.1872 172.802 95.9639 173.171C95.7407 173.54 95.4336 173.852 95.0675 174.08L73.578 186.516C72.8734 186.93 72.299 186.634 72.299 185.87C72.3301 185.44 72.462 185.022 72.6842 184.652C72.9064 184.282 73.2126 183.969 73.578 183.739Z" fill="#008B4B"/>
<path d="M157.605 1.79184L103.565 32.9927V177.42L157.605 146.225C157.979 145.983 158.291 145.655 158.514 145.269C158.737 144.883 158.866 144.45 158.89 144.005V2.53204C158.884 1.73854 158.292 1.38325 157.605 1.79184Z" fill="#EBEBEB"/>
<path opacity="0.6" d="M157.605 1.79184L103.565 32.9927V177.42L157.605 146.225C157.979 145.983 158.291 145.655 158.514 145.269C158.737 144.883 158.866 144.45 158.89 144.005V2.53204C158.884 1.73854 158.292 1.38325 157.605 1.79184Z" fill="#FAFAFA"/>
<path d="M103.565 38.5471V49.656L98.7567 55.2105H103.565V66.3194L154.076 37.1556V9.3833L103.565 38.5471Z" fill="#008B4B"/>
<g opacity="0.6">
<path d="M110.174 38.9319L130.639 27.0887C131.627 26.4966 132.415 26.9821 132.415 28.125C132.382 28.746 132.205 29.3506 131.896 29.8905C131.588 30.4304 131.157 30.8905 130.639 31.2338L110.174 43.0474C109.179 43.6396 108.397 43.154 108.397 42.0111C108.433 41.395 108.612 40.7957 108.92 40.2611C109.229 39.7265 109.658 39.2713 110.174 38.9319Z" fill="white"/>
</g>
<path d="M109.019 47.927L148.628 25.0578C148.984 24.8564 149.268 24.9986 149.268 25.3835C149.253 25.5989 149.187 25.8077 149.076 25.9929C148.964 26.1781 148.811 26.3345 148.628 26.4494L109.019 49.2889C108.664 49.4903 108.379 49.3481 108.379 48.9632C108.399 48.753 108.467 48.5501 108.578 48.3704C108.689 48.1906 108.84 48.0389 109.019 47.927Z" fill="#008B4B"/>
<path d="M109.019 47.927L148.628 25.0578C148.984 24.8564 149.268 24.9986 149.268 25.3835C149.253 25.5989 149.187 25.8077 149.076 25.9929C148.964 26.1781 148.811 26.3345 148.628 26.4494L109.019 49.2889C108.664 49.4903 108.379 49.3481 108.379 48.9632C108.399 48.753 108.467 48.5501 108.578 48.3704C108.689 48.1906 108.84 48.0389 109.019 47.927Z" fill="#008B4B"/>
<path opacity="0.6" d="M109.019 47.927L148.628 25.0578C148.984 24.8564 149.268 24.9986 149.268 25.3835C149.253 25.5989 149.187 25.8077 149.076 25.9929C148.964 26.1781 148.811 26.3345 148.628 26.4494L109.019 49.2889C108.664 49.4903 108.379 49.3481 108.379 48.9632C108.399 48.753 108.467 48.5501 108.578 48.3704C108.689 48.1906 108.84 48.0389 109.019 47.927Z" fill="white"/>
<path d="M109.019 52.072L148.628 29.2029C148.984 28.9956 149.268 29.1436 149.268 29.5285C149.253 29.7432 149.187 29.9511 149.075 30.1354C148.964 30.3196 148.811 30.4749 148.628 30.5885L109.019 53.4577C108.664 53.6649 108.379 53.5169 108.379 53.132C108.395 52.9174 108.46 52.7094 108.572 52.5252C108.683 52.3409 108.836 52.1856 109.019 52.072Z" fill="#008B4B"/>
<path opacity="0.6" d="M109.019 52.072L148.628 29.2029C148.984 28.9956 149.268 29.1436 149.268 29.5285C149.253 29.7432 149.187 29.9511 149.075 30.1354C148.964 30.3196 148.811 30.4749 148.628 30.5885L109.019 53.4577C108.664 53.6649 108.379 53.5169 108.379 53.132C108.395 52.9174 108.46 52.7094 108.572 52.5252C108.683 52.3409 108.836 52.1856 109.019 52.072Z" fill="white"/>
<path opacity="0.6" d="M109.019 56.2171L148.628 33.3479C148.984 33.1466 149.268 33.2887 149.268 33.6736C149.253 33.8891 149.187 34.0979 149.076 34.283C148.964 34.4682 148.811 34.6246 148.628 34.7395L109.019 57.6087C108.664 57.81 108.379 57.6679 108.379 57.283C108.395 57.0676 108.46 56.8588 108.572 56.6736C108.683 56.4884 108.836 56.332 109.019 56.2171Z" fill="white"/>
<path d="M110.511 67.8826L113.288 66.2838C113.88 65.9522 114.313 66.2186 114.313 66.8759V70.0618C114.293 70.4174 114.19 70.7635 114.012 71.072C113.834 71.3806 113.586 71.6431 113.288 71.8382L110.529 73.4311C109.937 73.7568 109.504 73.4904 109.504 72.839V69.6591C109.521 69.3047 109.62 68.9591 109.795 68.6504C109.97 68.3418 110.215 68.0787 110.511 67.8826Z" fill="#008B4B"/>
<path opacity="0.2" d="M110.511 67.8826L113.288 66.2838C113.88 65.9522 114.313 66.2186 114.313 66.8759V70.0618C114.293 70.4174 114.19 70.7635 114.012 71.072C113.834 71.3806 113.586 71.6431 113.288 71.8382L110.529 73.4311C109.937 73.7568 109.504 73.4904 109.504 72.839V69.6591C109.521 69.3047 109.62 68.9591 109.795 68.6504C109.97 68.3418 110.215 68.0787 110.511 67.8826Z" fill="white"/>
<path d="M117.984 64.9574L134.659 55.323C135.37 54.9144 135.944 55.2046 135.944 55.9744C135.912 56.4048 135.779 56.8215 135.556 57.1908C135.332 57.5602 135.025 57.8717 134.659 58.1002L117.984 67.7347C117.273 68.1433 116.699 67.8531 116.699 67.0833C116.731 66.6529 116.864 66.2362 117.088 65.8669C117.311 65.4975 117.618 65.186 117.984 64.9574Z" fill="#008B4B"/>
<path opacity="0.8" d="M117.984 64.9574L134.659 55.323C135.37 54.9144 135.944 55.2046 135.944 55.9744C135.912 56.4048 135.779 56.8215 135.556 57.1908C135.332 57.5602 135.025 57.8717 134.659 58.1002L117.984 67.7347C117.273 68.1433 116.699 67.8531 116.699 67.0833C116.731 66.6529 116.864 66.2362 117.088 65.8669C117.311 65.4975 117.618 65.186 117.984 64.9574Z" fill="white"/>
<path d="M110.126 77.8309L152.169 53.5524C152.525 53.3451 152.809 53.4932 152.809 53.8722C152.794 54.0877 152.728 54.2967 152.617 54.4819C152.506 54.6672 152.353 54.8235 152.169 54.938L110.126 79.2166C109.771 79.4238 109.487 79.2758 109.487 78.8909C109.502 78.6762 109.568 78.4683 109.679 78.284C109.79 78.0998 109.943 77.9445 110.126 77.8309Z" fill="#008B4B"/>
<path d="M110.126 81.9938L152.169 57.7153C152.525 57.5139 152.809 57.656 152.809 58.0409C152.794 58.2564 152.728 58.4652 152.617 58.6504C152.506 58.8355 152.352 58.9919 152.169 59.1068L110.126 83.3853C109.771 83.5867 109.487 83.4446 109.487 83.0597C109.502 82.8442 109.568 82.6354 109.679 82.4502C109.79 82.2651 109.943 82.1087 110.126 81.9938Z" fill="#008B4B"/>
<path d="M110.126 86.1626L152.169 61.8841C152.525 61.6768 152.809 61.8248 152.809 62.2038C152.794 62.4194 152.728 62.6283 152.617 62.8136C152.506 62.9989 152.353 63.1552 152.169 63.2697L110.126 87.5482C109.771 87.7555 109.487 87.6074 109.487 87.2285C109.501 87.0129 109.567 86.804 109.678 86.6187C109.789 86.4334 109.943 86.2771 110.126 86.1626Z" fill="#008B4B"/>
<path d="M110.126 90.3374L152.169 66.0589C152.525 65.8575 152.809 65.9997 152.809 66.3846C152.794 66.6 152.728 66.8088 152.617 66.994C152.506 67.1792 152.352 67.3356 152.169 67.4505L110.126 91.729C109.771 91.9303 109.487 91.7882 109.487 91.4033C109.502 91.1879 109.568 90.9791 109.679 90.7939C109.79 90.6087 109.943 90.4523 110.126 90.3374Z" fill="#008B4B"/>
<path d="M110.126 77.8309L152.169 53.5524C152.525 53.3451 152.809 53.4932 152.809 53.8722C152.794 54.0877 152.728 54.2967 152.617 54.4819C152.506 54.6672 152.353 54.8235 152.169 54.938L110.126 79.2166C109.771 79.4238 109.487 79.2758 109.487 78.8909C109.502 78.6762 109.568 78.4683 109.679 78.284C109.79 78.0998 109.943 77.9445 110.126 77.8309Z" fill="#E0E0E0"/>
<path d="M110.126 81.9938L152.169 57.7153C152.525 57.5139 152.809 57.656 152.809 58.0409C152.794 58.2564 152.728 58.4652 152.617 58.6504C152.506 58.8355 152.352 58.9919 152.169 59.1068L110.126 83.3853C109.771 83.5867 109.487 83.4446 109.487 83.0597C109.502 82.8442 109.568 82.6354 109.679 82.4502C109.79 82.2651 109.943 82.1087 110.126 81.9938Z" fill="#E0E0E0"/>
<path d="M110.126 86.1626L152.169 61.8841C152.525 61.6768 152.809 61.8248 152.809 62.2038C152.794 62.4194 152.728 62.6283 152.617 62.8136C152.506 62.9989 152.353 63.1552 152.169 63.2697L110.126 87.5482C109.771 87.7555 109.487 87.6074 109.487 87.2285C109.501 87.0129 109.567 86.804 109.678 86.6187C109.789 86.4334 109.943 86.2771 110.126 86.1626Z" fill="#E0E0E0"/>
<path d="M110.126 90.3374L152.169 66.0589C152.525 65.8575 152.809 65.9997 152.809 66.3846C152.794 66.6 152.728 66.8088 152.617 66.994C152.506 67.1792 152.352 67.3356 152.169 67.4505L110.126 91.729C109.771 91.9303 109.487 91.7882 109.487 91.4033C109.502 91.1879 109.568 90.9791 109.679 90.7939C109.79 90.6087 109.943 90.4523 110.126 90.3374Z" fill="#E0E0E0"/>
<path opacity="0.8" d="M110.126 77.8309L152.169 53.5524C152.525 53.3451 152.809 53.4932 152.809 53.8722C152.794 54.0877 152.728 54.2967 152.617 54.4819C152.506 54.6672 152.353 54.8235 152.169 54.938L110.126 79.2166C109.771 79.4238 109.487 79.2758 109.487 78.8909C109.502 78.6762 109.568 78.4683 109.679 78.284C109.79 78.0998 109.943 77.9445 110.126 77.8309Z" fill="#E0E0E0"/>
<path opacity="0.8" d="M110.126 81.9938L152.169 57.7153C152.525 57.5139 152.809 57.656 152.809 58.0409C152.794 58.2564 152.728 58.4652 152.617 58.6504C152.506 58.8355 152.352 58.9919 152.169 59.1068L110.126 83.3853C109.771 83.5867 109.487 83.4446 109.487 83.0597C109.502 82.8442 109.568 82.6354 109.679 82.4502C109.79 82.2651 109.943 82.1087 110.126 81.9938Z" fill="#E0E0E0"/>
<path opacity="0.8" d="M110.126 86.1626L152.169 61.8841C152.525 61.6768 152.809 61.8248 152.809 62.2038C152.794 62.4194 152.728 62.6283 152.617 62.8136C152.506 62.9989 152.353 63.1552 152.169 63.2697L110.126 87.5482C109.771 87.7555 109.487 87.6074 109.487 87.2285C109.501 87.0129 109.567 86.804 109.678 86.6187C109.789 86.4334 109.943 86.2771 110.126 86.1626Z" fill="#E0E0E0"/>
<path opacity="0.8" d="M110.126 90.3374L152.169 66.0589C152.525 65.8575 152.809 65.9997 152.809 66.3846C152.794 66.6 152.728 66.8088 152.617 66.994C152.506 67.1792 152.352 67.3356 152.169 67.4505L110.126 91.729C109.771 91.9303 109.487 91.7882 109.487 91.4033C109.502 91.1879 109.568 90.9791 109.679 90.7939C109.79 90.6087 109.943 90.4523 110.126 90.3374Z" fill="#E0E0E0"/>
<path d="M110.126 108.031L152.169 83.7525C152.525 83.5452 152.809 83.6933 152.809 84.0722C152.794 84.2878 152.728 84.4968 152.617 84.682C152.506 84.8673 152.353 85.0236 152.169 85.1381L110.126 109.417C109.771 109.624 109.487 109.476 109.487 109.091C109.502 108.876 109.568 108.668 109.679 108.484C109.79 108.3 109.943 108.145 110.126 108.031Z" fill="#E0E0E0"/>
<path d="M110.126 112.194L152.169 87.9154C152.525 87.7141 152.809 87.8562 152.809 88.2411C152.794 88.4566 152.728 88.6654 152.617 88.8505C152.506 89.0357 152.352 89.1921 152.169 89.307L110.126 113.586C109.771 113.787 109.487 113.645 109.487 113.26C109.502 113.044 109.568 112.836 109.679 112.65C109.79 112.465 109.943 112.309 110.126 112.194Z" fill="#E0E0E0"/>
<path d="M110.126 116.363L152.169 92.0843C152.525 91.877 152.809 92.025 152.809 92.404C152.794 92.6196 152.728 92.8285 152.617 93.0138C152.506 93.1991 152.353 93.3554 152.169 93.4699L110.126 117.748C109.771 117.956 109.487 117.808 109.487 117.429C109.501 117.213 109.567 117.004 109.678 116.819C109.789 116.634 109.943 116.477 110.126 116.363Z" fill="#E0E0E0"/>
<path d="M110.126 120.537L152.169 96.259C152.525 96.0576 152.809 96.1997 152.809 96.5846C152.794 96.8001 152.728 97.0089 152.617 97.1941C152.506 97.3792 152.352 97.5356 152.169 97.6505L110.126 121.929C109.771 122.13 109.487 121.988 109.487 121.603C109.502 121.388 109.568 121.179 109.679 120.994C109.79 120.809 109.943 120.652 110.126 120.537Z" fill="#E0E0E0"/>
<path opacity="0.8" d="M110.126 108.031L152.169 83.7525C152.525 83.5452 152.809 83.6933 152.809 84.0722C152.794 84.2878 152.728 84.4968 152.617 84.682C152.506 84.8673 152.353 85.0236 152.169 85.1381L110.126 109.417C109.771 109.624 109.487 109.476 109.487 109.091C109.502 108.876 109.568 108.668 109.679 108.484C109.79 108.3 109.943 108.145 110.126 108.031Z" fill="#E0E0E0"/>
<path opacity="0.8" d="M110.126 112.194L152.169 87.9154C152.525 87.7141 152.809 87.8562 152.809 88.2411C152.794 88.4566 152.728 88.6654 152.617 88.8505C152.506 89.0357 152.352 89.1921 152.169 89.307L110.126 113.586C109.771 113.787 109.487 113.645 109.487 113.26C109.502 113.044 109.568 112.836 109.679 112.65C109.79 112.465 109.943 112.309 110.126 112.194Z" fill="#E0E0E0"/>
<path opacity="0.8" d="M110.126 116.363L152.169 92.0843C152.525 91.877 152.809 92.025 152.809 92.404C152.794 92.6196 152.728 92.8285 152.617 93.0138C152.506 93.1991 152.353 93.3554 152.169 93.4699L110.126 117.748C109.771 117.956 109.487 117.808 109.487 117.429C109.501 117.213 109.567 117.004 109.678 116.819C109.789 116.634 109.943 116.477 110.126 116.363Z" fill="#E0E0E0"/>
<path opacity="0.8" d="M110.126 120.537L152.169 96.259C152.525 96.0576 152.809 96.1997 152.809 96.5846C152.794 96.8001 152.728 97.0089 152.617 97.1941C152.506 97.3792 152.352 97.5356 152.169 97.6505L110.126 121.929C109.771 122.13 109.487 121.988 109.487 121.603C109.502 121.388 109.568 121.179 109.679 120.994C109.79 120.809 109.943 120.652 110.126 120.537Z" fill="#E0E0E0"/>
<path d="M110.126 138.823L152.169 114.545C152.525 114.338 152.809 114.486 152.809 114.865C152.794 115.08 152.728 115.289 152.617 115.474C152.506 115.66 152.353 115.816 152.169 115.93L110.126 140.209C109.771 140.416 109.487 140.268 109.487 139.883C109.502 139.669 109.568 139.461 109.679 139.276C109.79 139.092 109.943 138.937 110.126 138.823Z" fill="#E0E0E0"/>
<path d="M110.126 142.986L152.169 118.708C152.525 118.506 152.809 118.648 152.809 119.033C152.794 119.249 152.728 119.458 152.617 119.643C152.506 119.828 152.352 119.984 152.169 120.099L110.126 144.378C109.771 144.579 109.487 144.437 109.487 144.052C109.502 143.837 109.568 143.628 109.679 143.443C109.79 143.257 109.943 143.101 110.126 142.986Z" fill="#E0E0E0"/>
<path d="M110.126 147.155L152.169 122.876C152.525 122.669 152.809 122.817 152.809 123.196C152.794 123.412 152.728 123.621 152.617 123.806C152.506 123.991 152.353 124.148 152.169 124.262L110.126 148.541C109.771 148.748 109.487 148.6 109.487 148.221C109.501 148.005 109.567 147.796 109.678 147.611C109.789 147.426 109.943 147.27 110.126 147.155Z" fill="#E0E0E0"/>
<path d="M110.126 151.33L152.169 127.051C152.525 126.85 152.809 126.992 152.809 127.377C152.794 127.592 152.728 127.801 152.617 127.986C152.506 128.171 152.352 128.328 152.169 128.443L110.126 152.721C109.771 152.923 109.487 152.781 109.487 152.396C109.502 152.18 109.568 151.971 109.679 151.786C109.79 151.601 109.943 151.445 110.126 151.33Z" fill="#E0E0E0"/>
<path opacity="0.8" d="M110.126 138.823L152.169 114.545C152.525 114.338 152.809 114.486 152.809 114.865C152.794 115.08 152.728 115.289 152.617 115.474C152.506 115.66 152.353 115.816 152.169 115.93L110.126 140.209C109.771 140.416 109.487 140.268 109.487 139.883C109.502 139.669 109.568 139.461 109.679 139.276C109.79 139.092 109.943 138.937 110.126 138.823Z" fill="#E0E0E0"/>
<path opacity="0.8" d="M110.126 142.986L152.169 118.708C152.525 118.506 152.809 118.648 152.809 119.033C152.794 119.249 152.728 119.458 152.617 119.643C152.506 119.828 152.352 119.984 152.169 120.099L110.126 144.378C109.771 144.579 109.487 144.437 109.487 144.052C109.502 143.837 109.568 143.628 109.679 143.443C109.79 143.257 109.943 143.101 110.126 142.986Z" fill="#E0E0E0"/>
<path opacity="0.8" d="M110.126 147.155L152.169 122.876C152.525 122.669 152.809 122.817 152.809 123.196C152.794 123.412 152.728 123.621 152.617 123.806C152.506 123.991 152.353 124.148 152.169 124.262L110.126 148.541C109.771 148.748 109.487 148.6 109.487 148.221C109.501 148.005 109.567 147.796 109.678 147.611C109.789 147.426 109.943 147.27 110.126 147.155Z" fill="#E0E0E0"/>
<path opacity="0.8" d="M110.126 151.33L152.169 127.051C152.525 126.85 152.809 126.992 152.809 127.377C152.794 127.592 152.728 127.801 152.617 127.986C152.506 128.171 152.352 128.328 152.169 128.443L110.126 152.721C109.771 152.923 109.487 152.781 109.487 152.396C109.502 152.18 109.568 151.971 109.679 151.786C109.79 151.601 109.943 151.445 110.126 151.33Z" fill="#E0E0E0"/>
<path d="M110.511 98.4321L113.288 96.8392C113.88 96.5135 114.313 96.78 114.313 97.4314V100.629C114.294 100.985 114.192 101.332 114.014 101.64C113.836 101.949 113.587 102.211 113.288 102.405L110.529 103.998C109.937 104.324 109.504 104.064 109.504 103.406V100.22C109.519 99.8641 109.618 99.5163 109.793 99.2055C109.968 98.8947 110.214 98.6297 110.511 98.4321Z" fill="#008B4B"/>
<path opacity="0.2" d="M110.511 98.4321L113.288 96.8392C113.88 96.5135 114.313 96.78 114.313 97.4314V100.629C114.294 100.985 114.192 101.332 114.014 101.64C113.836 101.949 113.587 102.211 113.288 102.405L110.529 103.998C109.937 104.324 109.504 104.064 109.504 103.406V100.22C109.519 99.8641 109.618 99.5163 109.793 99.2055C109.968 98.8947 110.214 98.6297 110.511 98.4321Z" fill="white"/>
<path d="M117.984 95.5069L134.659 85.8784C135.37 85.4698 135.944 85.7599 135.944 86.5238C135.913 86.9552 135.78 87.3731 135.557 87.7436C135.334 88.114 135.026 88.4265 134.659 88.6556L117.984 98.2604C117.273 98.669 116.699 98.3788 116.699 97.615C116.734 97.1877 116.868 96.7745 117.091 96.4085C117.315 96.0424 117.62 95.7337 117.984 95.5069Z" fill="#008B4B"/>
<path opacity="0.8" d="M117.984 95.5069L134.659 85.8784C135.37 85.4698 135.944 85.7599 135.944 86.5238C135.913 86.9552 135.78 87.3731 135.557 87.7436C135.334 88.114 135.026 88.4265 134.659 88.6556L117.984 98.2604C117.273 98.669 116.699 98.3788 116.699 97.615C116.734 97.1877 116.868 96.7745 117.091 96.4085C117.315 96.0424 117.62 95.7337 117.984 95.5069Z" fill="white"/>
<path d="M110.511 128.988L113.288 127.395C113.88 127.063 114.313 127.329 114.313 127.987V131.173C114.294 131.528 114.191 131.875 114.013 132.184C113.835 132.492 113.587 132.755 113.288 132.949L110.529 134.542C109.937 134.868 109.504 134.601 109.504 133.95V130.764C109.521 130.41 109.62 130.064 109.795 129.755C109.97 129.447 110.215 129.184 110.511 128.988Z" fill="#008B4B"/>
<path opacity="0.2" d="M110.511 128.988L113.288 127.395C113.88 127.063 114.313 127.329 114.313 127.987V131.173C114.294 131.528 114.191 131.875 114.013 132.184C113.835 132.492 113.587 132.755 113.288 132.949L110.529 134.542C109.937 134.868 109.504 134.601 109.504 133.95V130.764C109.521 130.41 109.62 130.064 109.795 129.755C109.97 129.447 110.215 129.184 110.511 128.988Z" fill="white"/>
<path d="M117.984 126.092L134.659 116.457C135.37 116.049 135.944 116.339 135.944 117.109C135.912 117.54 135.78 117.958 135.556 118.328C135.333 118.699 135.026 119.011 134.659 119.241L117.984 128.869C117.273 129.278 116.699 128.988 116.699 128.218C116.731 127.787 116.864 127.371 117.088 127.001C117.311 126.632 117.618 126.32 117.984 126.092Z" fill="#008B4B"/>
<path opacity="0.8" d="M117.984 126.092L134.659 116.457C135.37 116.049 135.944 116.339 135.944 117.109C135.912 117.54 135.78 117.958 135.556 118.328C135.333 118.699 135.026 119.011 134.659 119.241L117.984 128.869C117.273 129.278 116.699 128.988 116.699 128.218C116.731 127.787 116.864 127.371 117.088 127.001C117.311 126.632 117.618 126.32 117.984 126.092Z" fill="white"/>
<path d="M114.437 155.883L117.197 154.29C117.789 153.965 118.227 154.231 118.227 154.883V158.068C118.207 158.425 118.104 158.772 117.925 159.08C117.746 159.389 117.496 159.651 117.197 159.845L114.437 161.438C113.875 161.769 113.413 161.503 113.413 160.846V157.66C113.433 157.304 113.537 156.959 113.714 156.65C113.892 156.342 114.14 156.079 114.437 155.883Z" fill="#008B4B"/>
<path d="M110.126 166.708L121.513 160.135C121.869 159.934 122.153 160.076 122.153 160.461C122.138 160.676 122.072 160.885 121.961 161.07C121.849 161.255 121.696 161.412 121.513 161.527L110.126 168.1C109.771 168.301 109.487 168.159 109.487 167.774C109.502 167.559 109.568 167.35 109.679 167.165C109.79 166.979 109.943 166.823 110.126 166.708Z" fill="#E0E0E0"/>
<path d="M129.756 147.037L132.516 145.444C133.078 145.118 133.54 145.384 133.54 146.036V149.222C133.521 149.577 133.418 149.924 133.24 150.232C133.062 150.541 132.814 150.803 132.516 150.998L129.756 152.591C129.164 152.917 128.726 152.656 128.726 151.999V148.813C128.746 148.457 128.849 148.11 129.028 147.802C129.207 147.493 129.457 147.231 129.756 147.037Z" fill="#008B4B"/>
<path d="M125.439 157.861L136.827 151.288C137.182 151.081 137.466 151.229 137.466 151.614C137.451 151.829 137.385 152.037 137.274 152.221C137.163 152.405 137.009 152.56 136.827 152.674L125.439 159.253C125.084 159.46 124.8 159.312 124.8 158.933C124.814 158.717 124.879 158.506 124.99 158.32C125.101 158.134 125.255 157.976 125.439 157.861Z" fill="#E0E0E0"/>
<path d="M145.069 138.19L147.829 136.597C148.391 136.265 148.853 136.532 148.853 137.189V140.375C148.833 140.73 148.73 141.076 148.552 141.385C148.374 141.693 148.126 141.956 147.829 142.151L145.069 143.744C144.477 144.07 144.045 143.803 144.045 143.152V139.966C144.063 139.61 144.166 139.264 144.344 138.955C144.522 138.646 144.77 138.384 145.069 138.19Z" fill="#008B4B"/>
<path opacity="0.2" d="M114.437 155.883L117.197 154.29C117.789 153.965 118.227 154.231 118.227 154.883V158.068C118.207 158.425 118.104 158.772 117.925 159.08C117.746 159.389 117.496 159.651 117.197 159.845L114.437 161.438C113.875 161.769 113.413 161.503 113.413 160.846V157.66C113.433 157.304 113.537 156.959 113.714 156.65C113.892 156.342 114.14 156.079 114.437 155.883Z" fill="white"/>
<path opacity="0.2" d="M129.756 147.037L132.516 145.444C133.078 145.118 133.54 145.384 133.54 146.036V149.222C133.521 149.577 133.418 149.924 133.24 150.232C133.062 150.541 132.814 150.803 132.516 150.998L129.756 152.591C129.164 152.917 128.726 152.656 128.726 151.999V148.813C128.746 148.457 128.849 148.11 129.028 147.802C129.207 147.493 129.457 147.231 129.756 147.037Z" fill="white"/>
<path opacity="0.2" d="M145.069 138.19L147.829 136.597C148.391 136.265 148.853 136.532 148.853 137.189V140.375C148.833 140.73 148.73 141.076 148.552 141.385C148.374 141.693 148.126 141.956 147.829 142.151L145.069 143.744C144.477 144.07 144.045 143.803 144.045 143.152V139.966C144.063 139.61 144.166 139.264 144.344 138.955C144.522 138.646 144.77 138.384 145.069 138.19Z" fill="white"/>
<path d="M140.753 149.014L152.14 142.441C152.495 142.234 152.779 142.382 152.779 142.761C152.765 142.977 152.699 143.186 152.588 143.371C152.477 143.556 152.323 143.713 152.14 143.827L140.753 150.4C140.403 150.607 140.113 150.459 140.113 150.074C140.13 149.86 140.196 149.653 140.307 149.469C140.418 149.285 140.571 149.129 140.753 149.014Z" fill="#E0E0E0"/>
<mask id="mask0_302_235" style="mask-type:luminance" maskUnits="userSpaceOnUse" x="72" y="48" width="25" height="32">
<path d="M84.3257 50.2127C77.6817 53.9551 72.299 63.2816 72.299 71.0389C72.299 78.7962 77.6817 81.982 84.3257 78.1448C90.9698 74.3076 96.3525 64.987 96.3525 57.3127C96.3525 49.6383 90.9638 46.4643 84.3257 50.2127Z" fill="white"/>
</mask>
<g mask="url(#mask0_302_235)">
<path d="M84.3257 50.2127C77.6817 53.9551 72.299 63.2816 72.299 71.0389C72.299 78.7962 77.6817 81.982 84.3257 78.1448C90.9698 74.3076 96.3525 64.987 96.3525 57.3127C96.3525 49.6383 90.9638 46.4643 84.3257 50.2127Z" fill="#FAFAFA"/>
<path d="M90.1525 74.1181L80.524 76.6999C80.3582 76.754 80.1816 76.7659 80.01 76.7344C79.8385 76.703 79.6775 76.6292 79.5417 76.5198C79.4058 76.4105 79.2994 76.2689 79.2321 76.108C79.1648 75.9472 79.1387 75.772 79.1561 75.5985V59.2075C79.1902 57.8508 79.6433 56.5379 80.4533 55.449C81.2633 54.3601 82.3906 53.5487 83.6802 53.1261L86.9726 52.2437C89.4775 51.5746 91.5086 53.209 91.5086 55.8915V72.2883C91.4978 72.6957 91.3619 73.0898 91.1193 73.4172C90.8767 73.7446 90.5391 73.9893 90.1525 74.1181Z" fill="#37474F"/>
<path d="M90.6144 78.358L89.6018 73.8872C89.6018 73.8872 89.6018 67.8531 88.7432 67.2965C87.8846 66.7398 87.6359 66.6332 87.6359 66.6332C88.7373 66.2542 91.0585 65.97 91.781 68.0899C92.4738 70.0914 93.5101 75.0241 94.0016 77.452L90.6144 78.358Z" fill="#F28F8F"/>
<path d="M90.5316 78.3818L87.097 66.6866C88.6189 66.0945 90.573 65.603 91.5205 67.1722C92.3732 68.5815 93.7351 75.9658 94.0016 77.4521L90.5316 78.3818Z" fill="#008B4B"/>
<g opacity="0.4">
<path d="M90.5316 78.3818L87.097 66.6866C88.6189 66.0945 90.573 65.603 91.5205 67.1722C92.3732 68.5815 93.7351 75.9658 94.0016 77.4521L90.5316 78.3818Z" fill="black"/>
</g>
<path d="M90.9934 78.2573L87.6181 79.1633C87.754 78.194 88.0736 77.2594 88.5596 76.4098C89.2352 75.4363 90.2072 74.7072 91.3309 74.3313C91.0877 75.6254 90.9746 76.9407 90.9934 78.2573Z" fill="#008B4B"/>
<path d="M90.9934 78.2573L87.6181 79.1633C87.754 78.194 88.0736 77.2594 88.5596 76.4098C89.2352 75.4363 90.2072 74.7072 91.3309 74.3313C91.0877 75.6254 90.9746 76.9407 90.9934 78.2573Z" fill="#008B4B"/>
<g opacity="0.7">
<path d="M90.9934 78.2573L87.6181 79.1633C87.754 78.194 88.0736 77.2594 88.5596 76.4098C89.2352 75.4363 90.2072 74.7072 91.3309 74.3313C91.0877 75.6254 90.9746 76.9407 90.9934 78.2573Z" fill="black"/>
</g>
<path d="M90.2709 78.4528L80.7964 80.9813L79.7542 77.754C79.7542 77.754 82.5196 71.2818 79.1028 69.6178C79.5351 69.2921 83.1769 67.8709 83.1769 67.8709L87.091 66.6866C87.8372 66.4853 90.8512 67.8235 91.6151 70.7903C91.8875 71.8384 91.7928 72.7799 90.2591 78.2396C90.2769 78.3107 90.2709 78.3817 90.2709 78.4528Z" fill="#008B4B"/>
<path d="M89.4893 54.2571C90.1407 54.4939 90.9461 56.0336 90.8691 59.7464C90.8039 62.8967 89.8565 63.8915 89.3828 64.2705C88.6732 64.6257 87.8905 64.8103 87.097 64.8093V66.6865C87.097 66.6865 88.3287 67.8708 88.2517 68.7709C88.1748 69.671 86.4753 70.3105 85.3265 69.7776C84.4874 69.3045 83.7618 68.6537 83.2006 67.8708V63.5481C83.1141 63.6477 83.0086 63.7292 82.8904 63.7877C82.7721 63.8462 82.6433 63.8806 82.5116 63.8889C82.3799 63.8971 82.2478 63.8791 82.1231 63.8359C81.9985 63.7926 81.8836 63.725 81.7854 63.6369C81.6004 63.5103 81.4428 63.3479 81.3217 63.1593C81.2006 62.9707 81.1186 62.7597 81.0805 62.5389C81.0424 62.318 81.049 62.0918 81.0999 61.8736C81.1508 61.6553 81.2449 61.4495 81.3768 61.2682C81.9689 60.4925 83.0052 60.38 83.4079 61.1557C83.9091 59.9391 84.8063 58.9272 85.9542 58.2838C87.8254 57.1468 88.8439 56.1342 89.4893 54.2571Z" fill="#FFA8A7"/>
<path d="M87.6121 59.8354C87.6147 59.9476 87.5825 60.058 87.52 60.1512C87.4575 60.2445 87.3676 60.3162 87.2628 60.3565C87.2183 60.3719 87.1706 60.3762 87.1241 60.3691C87.0775 60.362 87.0334 60.3437 86.9955 60.3157C86.9576 60.2877 86.9271 60.2509 86.9066 60.2085C86.8861 60.1661 86.8762 60.1193 86.8779 60.0722C86.8753 59.9599 86.9075 59.8496 86.97 59.7563C87.0325 59.6631 87.1224 59.5914 87.2272 59.5511C87.2718 59.5357 87.3194 59.5314 87.3659 59.5385C87.4125 59.5456 87.4566 59.5639 87.4945 59.5919C87.5324 59.6199 87.5629 59.6567 87.5834 59.6991C87.6039 59.7415 87.6138 59.7883 87.6121 59.8354Z" fill="#37474F"/>
<path d="M87.7069 62.4645L88.5596 62.5237C88.5346 62.6537 88.4668 62.7716 88.367 62.8585C88.2672 62.9455 88.1411 62.9965 88.0089 63.0033C87.772 62.9856 87.6358 62.7309 87.7069 62.4645Z" fill="#F28F8F"/>
<path d="M90.6204 57.8219L89.8802 57.4725C89.9243 57.358 90.0092 57.2639 90.1185 57.2081C90.2278 57.1524 90.3538 57.139 90.4724 57.1705C90.5254 57.2032 90.5713 57.246 90.6075 57.2966C90.6437 57.3472 90.6694 57.4045 90.6832 57.4652C90.697 57.5258 90.6985 57.5886 90.6878 57.6499C90.677 57.7111 90.6541 57.7696 90.6204 57.8219Z" fill="#37474F"/>
<path d="M86.5463 59.2075L87.2865 58.4555C87.2472 58.4156 87.1999 58.3844 87.1478 58.364C87.0956 58.3437 87.0397 58.3346 86.9838 58.3374C86.9278 58.3402 86.8731 58.3548 86.8232 58.3803C86.7733 58.4057 86.7294 58.4415 86.6943 58.4851C86.5916 58.571 86.521 58.6893 86.4941 58.8205C86.4672 58.9517 86.4856 59.0881 86.5463 59.2075Z" fill="#37474F"/>
<path d="M90.4486 58.7932C90.452 58.9056 90.4202 59.0163 90.3576 59.1098C90.2949 59.2032 90.2046 59.2747 90.0992 59.3143C90.0542 59.3299 90.0061 59.3342 89.959 59.3268C89.9119 59.3194 89.8674 59.3005 89.8294 59.2719C89.7913 59.2432 89.7609 59.2056 89.7409 59.1624C89.7208 59.1192 89.7117 59.0717 89.7143 59.0241C89.7126 58.912 89.7451 58.802 89.8075 58.7089C89.87 58.6158 89.9593 58.544 90.0637 58.503C90.1087 58.4874 90.1569 58.4831 90.2039 58.4905C90.251 58.4979 90.2955 58.5167 90.3335 58.5454C90.3716 58.5741 90.402 58.6117 90.422 58.6549C90.4421 58.6981 90.4512 58.7456 90.4486 58.7932Z" fill="#37474F"/>
<path d="M88.7196 59.0299L88.7729 61.3808L89.9395 60.682L88.7196 59.0299Z" fill="#F28F8F"/>
<path d="M87.097 64.8094C86.1614 64.9278 84.231 64.8509 83.929 64.1166C84.0384 64.4773 84.2794 64.7837 84.604 64.9752C85.1962 65.3542 87.097 65.4371 87.097 65.4371V64.8094Z" fill="#F28F8F"/>
<path d="M80.8497 80.9754L80.453 79.566L81.4952 80.8037L80.8497 80.9754Z" fill="#008B4B"/>
<path d="M80.0741 81.1826C79.6488 79.1567 79.0728 77.1655 78.3509 75.2255C77.3561 72.4956 78.4693 70.1388 79.1385 69.6177C79.8076 69.0966 83.2125 67.8708 83.2125 67.8708C84.4442 71.3764 84.7817 76.0723 84.8114 79.9154L80.0741 81.1826Z" fill="#008B4B"/>
<path opacity="0.4" d="M80.0741 81.1826C79.6488 79.1567 79.0728 77.1655 78.3509 75.2255C77.3561 72.4956 78.4693 70.1388 79.1385 69.6177C79.8076 69.0966 83.2125 67.8708 83.2125 67.8708C84.4442 71.3764 84.7817 76.0723 84.8114 79.9154L80.0741 81.1826Z" fill="black"/>
<path d="M78.3924 81.6327L75.0112 82.5387C74.9166 82.4751 74.8275 82.4038 74.7447 82.3255C74.7447 82.3255 76.3435 76.1552 76.8528 74.1064C77.362 72.0575 77.7529 70.6482 79.1267 69.6178C81.596 71.2225 80.4531 75.6815 80.4531 75.6815L78.3924 81.6327Z" fill="#008B4B"/>
<path opacity="0.4" d="M78.3924 81.6327L75.0112 82.5387C74.9166 82.4751 74.8275 82.4038 74.7447 82.3255C74.7447 82.3255 76.3435 76.1552 76.8528 74.1064C77.362 72.0575 77.7529 70.6482 79.1267 69.6178C81.596 71.2225 80.4531 75.6815 80.4531 75.6815L78.3924 81.6327Z" fill="black"/>
</g>
<path d="M29.1603 42.2008V30.4701C29.1247 28.1962 30.6051 25.9164 33.6074 24.1873C39.529 20.7587 49.1575 20.7587 55.0909 24.1873C58.0932 25.9164 59.5735 28.1962 59.538 30.4701V42.1593C59.538 44.4214 58.0813 48.4658 55.0909 50.189C49.1693 53.6176 39.5408 53.6176 33.6074 50.189C30.6466 48.4836 29.1662 44.4687 29.1603 42.2245V42.2008Z" fill="#EBEBEB"/>
<path d="M44.349 15.9148L69.4151 30.3872L44.349 44.8595L19.283 30.3872L44.349 15.9148Z" fill="#F5F5F5"/>
<path d="M31.8072 37.6174L44.1537 30.5707C44.2046 30.5415 44.2608 30.5227 44.319 30.5152C44.3773 30.5078 44.4364 30.5119 44.493 30.5272C44.5496 30.5426 44.6027 30.569 44.6491 30.6049C44.6956 30.6408 44.7345 30.6855 44.7636 30.7365C44.7928 30.7874 44.8116 30.8436 44.8191 30.9018C44.8265 30.96 44.8224 31.0191 44.807 31.0758C44.7916 31.1324 44.7652 31.1855 44.7294 31.2319C44.6935 31.2783 44.6488 31.3172 44.5978 31.3464L32.6895 38.1266L31.8072 37.6174Z" fill="#E0E0E0"/>
<path d="M69.4151 30.3871V31.4234L44.3491 45.8898V44.8595L69.4151 30.3871Z" fill="#E6E6E6"/>
<path d="M19.283 30.3871V31.4234L44.3491 45.8898V44.8595L19.283 30.3871Z" fill="#F0F0F0"/>
<path d="M31.1853 38.2926L31.9492 38.7308C32.0647 38.5421 32.2255 38.3854 32.417 38.2748L32.6835 38.1208L31.813 37.6234C31.5559 37.7961 31.3413 38.0249 31.1853 38.2926Z" fill="#E0E0E0"/>
<path d="M59.5676 37.1082L44.3491 47.4413L29.1721 37.1318L44.3491 45.8899L59.5676 37.1082Z" fill="#E0E0E0"/>
<path d="M30.2084 50.4791C30.4208 50.5887 30.6563 50.6459 30.8953 50.6459C31.1343 50.6459 31.3698 50.5887 31.5822 50.4791L32.7132 57.7804C32.7132 59.1602 29.1306 59.1602 29.1306 57.7804L30.2084 50.4791Z" fill="#F5F5F5"/>
<path d="M30.1433 54.6479L29.9183 58.6509C29.8444 58.6286 29.773 58.5988 29.7051 58.5621L30.1433 54.6479Z" fill="#EBEBEB"/>
<path d="M31.8368 58.6805L31.3631 52.1667L32.0677 58.5857C31.9927 58.6219 31.9156 58.6535 31.8368 58.6805Z" fill="#EBEBEB"/>
<path d="M31.0315 58.8108H30.8065L30.9249 53.6412L31.0315 58.8108Z" fill="#EBEBEB"/>
<path d="M30.8894 51.0891C31.1519 51.0826 31.4061 50.9958 31.6177 50.8404C31.7077 50.774 31.7689 50.6756 31.7887 50.5655C31.8085 50.4554 31.7855 50.3419 31.7243 50.2482C31.6597 50.1561 31.5617 50.0928 31.4511 50.0718C31.3405 50.0507 31.2261 50.0737 31.1322 50.1357C31.0758 50.1904 31.0004 50.2209 30.922 50.2209C30.8435 50.2209 30.7681 50.1904 30.7117 50.1357C30.6657 50.0947 30.6116 50.0638 30.5529 50.0448C30.4942 50.0259 30.4323 50.0193 30.3709 50.0257C30.3096 50.032 30.2502 50.051 30.1967 50.0815C30.1431 50.112 30.0964 50.1533 30.0597 50.2029C30.023 50.2524 29.9969 50.309 29.9833 50.3692C29.9697 50.4293 29.9687 50.4916 29.9804 50.5521C29.9922 50.6127 30.0164 50.6701 30.0516 50.7207C30.0868 50.7714 30.1321 50.8142 30.1847 50.8463C30.3885 50.9988 30.6349 51.0837 30.8894 51.0891Z" fill="#E0E0E0"/>
<path d="M30.919 49.9521C30.977 49.9529 31.0347 49.9421 31.0885 49.9204C31.1424 49.8988 31.1914 49.8666 31.2327 49.8259C31.274 49.7851 31.3068 49.7365 31.3292 49.683C31.3516 49.6294 31.3631 49.5719 31.3631 49.5139V39.163C31.3637 38.9302 31.4252 38.7017 31.5416 38.5002C31.658 38.2986 31.8251 38.131 32.0263 38.0142L44.5979 30.849C44.6977 30.7919 44.7711 30.6977 44.8021 30.5869C44.8331 30.4761 44.8193 30.3576 44.7637 30.2569C44.7359 30.2069 44.6985 30.1629 44.6537 30.1274C44.6088 30.0919 44.5573 30.0657 44.5022 30.0503C44.4472 30.0349 44.3896 30.0306 44.3328 30.0375C44.276 30.0445 44.2212 30.0627 44.1715 30.0911L31.5704 37.268C31.2345 37.462 30.9554 37.7407 30.7611 38.0764C30.5667 38.412 30.464 38.7929 30.463 39.1807V49.5317C30.4653 49.5892 30.4789 49.6458 30.5031 49.6981C30.5273 49.7503 30.5615 49.7974 30.6038 49.8364C30.6462 49.8755 30.6958 49.9058 30.7499 49.9256C30.804 49.9455 30.8615 49.9545 30.919 49.9521Z" fill="#FAFAFA"/>
<path d="M31.8901 49.5139C31.8913 49.3216 31.8354 49.1333 31.7294 48.9728C31.6234 48.8123 31.4721 48.6869 31.2948 48.6125C31.1174 48.5381 30.922 48.518 30.7332 48.5548C30.5444 48.5916 30.3708 48.6836 30.2344 48.8192C30.098 48.9548 30.0049 49.1278 29.967 49.3164C29.929 49.5049 29.9479 49.7005 30.0212 49.8783C30.0946 50.0561 30.219 50.2081 30.3789 50.3151C30.5387 50.422 30.7267 50.4791 30.919 50.4791C31.0463 50.4799 31.1724 50.4555 31.2902 50.4074C31.408 50.3592 31.5151 50.2883 31.6053 50.1985C31.6956 50.1088 31.7672 50.0022 31.8161 49.8847C31.865 49.7672 31.8901 49.6412 31.8901 49.5139Z" fill="#F5F5F5"/>
<path d="M29.9596 49.5672C30.0001 49.6673 30.0617 49.7576 30.1401 49.8319C30.2186 49.9061 30.3122 49.9626 30.4145 49.9974C30.5167 50.0323 30.6253 50.0447 30.7328 50.0338C30.8403 50.0229 30.9442 49.9889 31.0374 49.9343C31.1563 49.8627 31.2547 49.7615 31.323 49.6406C31.3913 49.5197 31.4272 49.3833 31.4272 49.2444C31.4272 49.1056 31.3913 48.9691 31.323 48.8482C31.2547 48.7274 31.1563 48.6262 31.0374 48.5546C31.2185 48.5796 31.3888 48.6555 31.5285 48.7736C31.6682 48.8916 31.7714 49.0469 31.8262 49.2213C31.8811 49.3958 31.8852 49.5823 31.8382 49.759C31.7912 49.9357 31.6949 50.0954 31.5606 50.2195C31.4263 50.3437 31.2595 50.4271 31.0797 50.4601C30.8998 50.4931 30.7142 50.4743 30.5446 50.406C30.375 50.3376 30.2283 50.2225 30.1216 50.074C30.0149 49.9255 29.9526 49.7497 29.9419 49.5672H29.9596Z" fill="#EBEBEB"/>
<path d="M202.473 43.7995L197.896 41.1644L200.413 40.6315L202.917 42.3783L202.473 43.7995Z" fill="#E0E0E0"/>
<path d="M194.461 20.2139C194.461 13.108 190.109 9.80963 184.762 12.8948L176.862 17.4544C171.533 20.5396 167.169 28.8535 167.169 35.9831C167.169 36.2732 167.169 36.5752 167.169 36.8298C167.169 36.9897 167.169 37.1259 167.169 37.2799C167.169 37.4338 167.198 37.5582 167.21 37.6944C167.222 37.8306 167.246 38.0082 167.269 38.1622C167.389 39.0037 167.599 39.8297 167.897 40.6256C168.021 40.9217 168.152 41.2177 168.294 41.4664C168.36 41.6038 168.435 41.7364 168.519 41.8632L168.596 41.9876C168.728 42.1997 168.88 42.3981 169.052 42.5797C169.147 42.6863 169.235 42.7988 169.336 42.8995L169.644 43.1956C169.751 43.2785 169.851 43.3791 169.964 43.462C170.07 43.5477 170.183 43.6249 170.301 43.693L170.651 43.8943C171.103 44.1386 171.594 44.3047 172.101 44.3858C172.14 44.3763 172.181 44.3763 172.22 44.3858C172.356 44.3858 172.48 44.4154 172.617 44.4154C172.76 44.4272 172.905 44.4272 173.049 44.4154C173.43 44.4195 173.809 44.3778 174.18 44.291C174.402 44.247 174.621 44.1916 174.837 44.1252C175.529 43.9133 176.193 43.619 176.815 43.2488L184.714 38.6892C185.256 38.3749 185.774 38.0226 186.266 37.6352C186.266 37.5404 186.266 37.4575 186.266 37.3687C186.266 37.2799 186.266 37.0904 186.266 36.9838C186.266 36.7469 186.266 36.5042 186.266 36.2614C186.248 30.2036 189.896 23.0562 194.461 20.2139Z" fill="#E0E0E0"/>
<path d="M195.794 15.0916L191.204 12.4506C191.234 12.4506 191.672 15.6423 191.672 15.6423L195.077 16.045L195.794 15.0916Z" fill="#E0E0E0"/>
<path d="M174.588 46.1267L170.349 43.7226L172.901 42.6271L174.588 46.1267Z" fill="#E0E0E0"/>
<path d="M176.862 43.3199C176.832 45.0747 176.268 46.7787 175.246 48.2052C175.056 48.4539 175.346 48.673 175.56 48.5605C176.527 48.0582 177.385 47.3677 178.082 46.5294C179.421 44.9465 180.358 43.0632 180.812 41.04L176.862 43.3199Z" fill="#E0E0E0"/>
<path d="M175.293 48.5485L179.882 51.1895C179.882 51.1895 182.458 49.0163 182.458 44.6166L177.478 44.2791C177.478 44.2791 177.36 47.1451 175.293 48.5485Z" fill="#E0E0E0"/>
<path d="M187.515 35.604C187.515 35.825 187.515 36.0382 187.515 36.2435C187.515 36.3619 187.515 36.4626 187.515 36.5751C187.515 36.6876 187.515 36.7824 187.551 36.889C187.586 36.9955 187.551 37.1258 187.592 37.2442C187.661 37.7688 187.784 38.2848 187.959 38.7839C187.985 38.8748 188.016 38.9638 188.054 39.0503C188.097 39.1693 188.147 39.2859 188.202 39.3997C188.248 39.5097 188.302 39.6166 188.362 39.7195C188.409 39.8226 188.464 39.9217 188.528 40.0156L188.587 40.1103C188.691 40.2734 188.806 40.4297 188.931 40.5781C188.995 40.6644 189.067 40.7456 189.144 40.8209L189.369 41.04C189.446 41.112 189.527 41.1792 189.612 41.2413C189.693 41.304 189.778 41.3614 189.866 41.413C189.955 41.4663 190.038 41.5196 190.133 41.567L190.405 41.6973L190.689 41.798C190.863 41.8504 191.039 41.8939 191.216 41.9282H191.305C191.404 41.9373 191.503 41.9373 191.601 41.9282C191.707 41.9403 191.815 41.9403 191.921 41.9282C192.176 41.9281 192.43 41.9023 192.679 41.8512C192.879 41.8173 193.077 41.7719 193.271 41.715C193.791 41.5557 194.29 41.3351 194.757 41.0578L200.679 37.6351C201.207 37.3302 201.705 36.9753 202.165 36.5751C202.331 36.433 202.497 36.279 202.663 36.1251C202.961 35.847 203.244 35.5524 203.51 35.2428L203.889 34.8993C203.989 34.7809 204.084 34.6565 204.185 34.5322C204.209 34.4891 204.239 34.4493 204.273 34.4137C204.668 33.8924 205.032 33.3487 205.363 32.7853C205.452 32.6373 205.535 32.4833 205.624 32.3293C205.712 32.1754 205.795 32.0214 205.878 31.8615C205.961 31.7016 206.038 31.5418 206.121 31.3878L206.346 30.9022C206.423 30.7423 206.494 30.5706 206.565 30.4167C206.689 30.1324 206.802 29.8245 206.903 29.5521C206.903 29.4988 206.944 29.4455 206.962 29.3922C207.027 29.2264 207.08 29.0606 207.134 28.8948C207.24 28.575 207.335 28.2553 207.43 27.9237C207.638 27.1454 207.794 26.3541 207.897 25.555C207.897 25.4188 207.927 25.2886 207.945 25.1524C207.963 25.0162 207.945 24.9214 207.974 24.803C208.004 24.6846 207.974 24.5661 207.974 24.4477C207.974 24.2266 207.974 24.0075 207.974 23.7904C207.974 18.461 204.712 15.968 200.697 18.2833L194.775 21.7119C190.778 24.0154 187.515 30.2509 187.515 35.604Z" fill="#E0E0E0"/>
<path d="M210.112 20.5573L205.558 17.9399L203.841 19.1539L209.153 22.3693L210.112 20.5573Z" fill="#E0E0E0"/>
<path d="M194.479 44.0482L189.902 41.4131L193.49 40.3413L194.479 44.0482Z" fill="#E0E0E0"/>
<path d="M199.82 38.2095C199.82 39.1569 201.005 40.4478 202.361 40.6906C202.544 40.7261 202.497 41.1288 202.278 41.2828C201.47 41.7217 200.537 41.8761 199.631 41.721C199.042 41.7034 198.469 41.5297 197.969 41.2175C197.47 40.9053 197.062 40.466 196.789 39.9445L199.82 38.2095Z" fill="#008B4B"/>
<path d="M189.345 15.5298L181.44 20.0954C176.11 23.1805 171.752 31.4944 171.752 38.6181C171.752 38.9142 171.752 39.2103 171.752 39.4708C171.752 39.6307 171.752 39.7669 171.752 39.9208C171.752 40.0748 171.782 40.1932 171.799 40.3294C171.817 40.4656 171.835 40.6551 171.859 40.8032C171.966 41.6415 172.164 42.4656 172.451 43.2606C172.575 43.5626 172.705 43.8528 172.847 44.1074C172.913 44.243 172.988 44.3736 173.073 44.4982C173.097 44.5415 173.125 44.583 173.155 44.6226C173.284 44.8463 173.435 45.0566 173.605 45.2503C173.7 45.3569 173.795 45.4753 173.896 45.57L174.198 45.8661C174.304 45.949 174.411 46.0497 174.517 46.1326C174.625 46.2169 174.737 46.2941 174.855 46.3635L175.21 46.5649C175.661 46.8082 176.149 46.9743 176.655 47.0564C176.693 47.0433 176.735 47.0433 176.774 47.0564C176.91 47.0564 177.04 47.0564 177.17 47.0564C177.314 47.0651 177.459 47.0651 177.603 47.0564C177.983 47.058 178.362 47.0163 178.734 46.932C178.955 46.8879 179.175 46.8326 179.391 46.7662C180.081 46.5524 180.745 46.2604 181.369 45.8957C181.339 47.6498 180.773 49.3528 179.746 50.7751C179.557 51.0297 179.847 51.2488 180.066 51.1363C181.035 50.6336 181.893 49.9408 182.589 49.0993C183.924 47.5163 184.86 45.6359 185.318 43.6159L184.726 43.9416L189.244 41.3361C189.682 41.0841 190.103 40.8053 190.506 40.5012C190.471 40.3508 190.445 40.1986 190.429 40.0452C190.429 39.9445 190.393 39.7965 190.381 39.6425C190.36 39.5112 190.346 39.3787 190.34 39.2458V39.1747C190.334 39.0761 190.334 38.9772 190.34 38.8786C190.34 38.6536 190.34 38.4168 190.34 38.1799C190.34 32.1872 193.893 25.4307 198.464 22.7838L198.968 22.4877C198.92 15.6364 194.615 12.4861 189.345 15.5298Z" fill="#F0F0F0"/>
<path d="M205.304 20.9067L199.382 24.3294C195.373 26.6506 192.104 32.8861 192.104 38.2392C192.104 38.4583 192.104 38.6715 192.104 38.8787C192.104 39.086 192.104 39.0978 192.104 39.2103C192.104 39.3228 192.104 39.4176 192.134 39.5242C192.144 39.6414 192.159 39.758 192.181 39.8735C192.247 40.4007 192.37 40.919 192.549 41.4191C192.571 41.5108 192.603 41.6001 192.643 41.6856C192.683 41.8029 192.731 41.9176 192.785 42.029C192.833 42.1404 192.886 42.2491 192.945 42.3547C192.994 42.458 193.052 42.5571 193.117 42.6508C193.131 42.6844 193.149 42.7162 193.17 42.7455C193.283 42.9113 193.395 43.0653 193.514 43.2133C193.582 43.2983 193.655 43.3794 193.733 43.4561L193.958 43.6752C194.035 43.7472 194.116 43.8145 194.201 43.8765C194.279 43.9405 194.362 43.9979 194.449 44.0483C194.538 44.1016 194.621 44.1549 194.716 44.2022L194.988 44.3325L195.273 44.4332C195.446 44.4856 195.622 44.5291 195.8 44.5635H195.888C195.987 44.5725 196.086 44.5725 196.184 44.5635C196.293 44.5784 196.402 44.5784 196.51 44.5635C196.765 44.5649 197.018 44.5411 197.268 44.4924C197.468 44.458 197.666 44.4125 197.86 44.3562C198.381 44.1991 198.88 43.9784 199.347 43.6989L201.348 42.5501C201.626 43.0661 202.035 43.4994 202.534 43.8062C203.033 44.113 203.605 44.2823 204.19 44.297C205.098 44.4498 206.03 44.2934 206.837 43.8529C207.051 43.7167 207.104 43.314 206.914 43.2607C205.558 43.0179 204.38 41.727 204.38 40.7796L205.28 40.2585C205.807 39.9522 206.305 39.5973 206.766 39.1985C206.932 39.0564 207.098 38.9024 207.258 38.7484C207.558 38.4704 207.843 38.1759 208.111 37.8661C208.217 37.7418 208.324 37.6233 208.43 37.4812C208.537 37.3391 208.626 37.2444 208.726 37.12L208.815 37.0016C209.21 36.4802 209.573 35.9365 209.905 35.3731L210.171 34.9172C210.26 34.7632 210.343 34.6093 210.426 34.4494C210.509 34.2895 210.58 34.1296 210.663 33.9756L210.894 33.4901C210.971 33.3243 211.036 33.1585 211.107 33.0045C211.231 32.7203 211.35 32.4123 211.45 32.1399L211.504 31.9801C211.569 31.8143 211.628 31.6485 211.675 31.4827C211.788 31.157 211.877 30.8431 211.977 30.5115C212.186 29.7332 212.342 28.9419 212.445 28.1429C212.445 28.0067 212.475 27.8764 212.487 27.7402C212.498 27.604 212.487 27.5033 212.516 27.3908C212.546 27.2783 212.516 27.154 212.516 27.0355C212.516 26.8164 212.516 26.5914 212.516 26.3723C212.581 21.0607 209.313 18.5914 205.304 20.9067Z" fill="#F0F0F0"/>
<path d="M157.73 99.2374C155.491 98.5387 153.194 100.351 151.69 104.01C150.186 107.67 147.029 116.978 146.562 119.46C146.094 121.941 156.682 127.341 156.385 127.199C156.089 127.057 157.73 99.2374 157.73 99.2374Z" fill="#263238"/>
<path d="M152.809 185.373C152.489 185.491 152.412 186.095 152.365 187.292C152.329 188.198 152.134 189.779 153.194 190.092C154.254 190.406 155.811 190.246 156.492 189.394C157.339 188.328 157.913 187.392 159.121 186.089C160.175 184.964 161.306 183.91 161.733 182.329C162.118 180.896 161.798 180.28 160.821 179.866C159.482 179.274 157.374 181.157 156.326 181.453C155.42 181.707 153.123 185.254 152.809 185.373Z" fill="#263238"/>
<path d="M152.809 184.265V185.734C153.36 186.087 153.997 186.282 154.651 186.3C155.306 186.318 155.952 186.157 156.522 185.835C156.587 185.693 156.907 183.733 156.907 183.733L152.809 184.265Z" fill="#FFA8A7"/>
<path d="M164.705 193.841C164.705 193.841 164.285 195.12 164.06 196.209C163.876 197.098 163.622 198.578 163.93 199.253C164.237 199.928 165.457 200.354 167.334 200.337C168.554 200.337 170.455 201.16 171.752 201.882C173.049 202.605 175.897 202.93 177.312 202.765C178.982 202.569 180.717 201.58 180.99 200.905C181.262 200.23 180.901 199.49 176.957 197.808C176.922 197.808 171.474 196.032 169.561 193.918L164.705 193.841Z" fill="#263238"/>
<path d="M164.705 192.254C164.705 192.254 164.705 193.343 164.705 193.965C164.705 194.587 165.44 195.517 167.346 195.451C168.685 195.404 169.614 195.043 169.561 193.941V192.349L164.705 192.254Z" fill="#FFA8A7"/>
<path d="M151.85 164.766C152.177 162.163 152.758 159.599 153.585 157.109C153.585 157.109 153.064 150.506 152.809 144.247C152.537 137.485 152.809 128.981 152.696 127.3C152.696 127.3 174.517 122.882 174.908 130.699C175.299 138.515 174.044 158.412 173.789 161.846C173.534 165.281 172.936 168.319 172.226 173.885C171.515 179.451 169.561 192.348 169.561 192.348C168.806 192.733 167.968 192.926 167.121 192.909C166.274 192.893 165.445 192.667 164.705 192.254C164.705 192.254 163.172 176.621 163.332 172.659C163.456 169.717 163.962 166.803 164.836 163.99L164.06 151.939C163.693 146.332 163.308 143.649 163.219 141.204L162.751 140.967C162.751 140.967 162.272 150.643 162.017 154.077C161.762 157.512 161.212 160.804 160.241 167.182C159.376 172.712 156.812 184.419 156.812 184.419C154.319 185.77 152.833 184.248 152.833 184.248C152.833 184.248 151.186 169.562 151.85 164.766Z" fill="#455A64"/>
<path d="M163.219 141.221C163.219 141.221 157.925 138.61 155.278 136.259C155.278 136.259 157.736 139.723 160.969 141.263C160.969 141.263 162.118 153.278 162.112 153.041L162.775 141.198L163.219 141.221Z" fill="#37474F"/>
<path d="M167.933 96.7622L166.642 103.868L160.223 103.4L161.567 95.3411L167.933 96.7622Z" fill="#FFA8A7"/>
<path d="M153.443 102.879C154.076 100.949 156.528 98.8465 158.979 99.3262C162.625 99.943 166.219 100.84 169.727 102.009C171.971 102.808 174.014 104.75 174.204 112.141L175.341 134.145L172.623 134.737L171.675 129.751L171.237 134.737C168.395 135.448 163.462 134.862 160.223 134.145C153.472 132.671 152.661 129.87 152.661 129.87C152.661 129.87 152.572 117.488 152.773 112.141C152.963 107.569 153.004 104.182 153.443 102.879Z" fill="#37474F"/>
<path d="M172.682 88.3417C172.682 88.3417 174.239 90.6452 174.038 90.888C173.678 91.1306 173.276 91.3052 172.853 91.4031L172.682 88.3417Z" fill="#FFA8A7"/>
<path d="M167.933 81.0463C169.431 81.8043 172.018 83.2018 172.729 88.6793C173.463 94.3048 172.498 96.1168 171.74 96.8629C171.225 97.3662 168.43 97.3958 167.032 96.9754C165.256 96.4484 161.336 94.9502 159.536 92.0605C157.416 88.6615 156.942 84.1078 159.334 82.2958C162.692 79.7495 166.665 80.4068 167.933 81.0463Z" fill="#FFA8A7"/>
<path d="M173.043 82.9294C172.551 84.2795 171.722 87.5838 168.276 88.9635C168.276 88.9635 167.784 86.8554 166.014 87.0804C164.243 87.3055 163.941 89.5616 165.031 90.965C166.12 92.3684 167.174 91.8592 167.174 91.8592C167.174 91.8592 167.411 94.8792 165.398 96.2471C165.398 96.2471 162.964 97.7867 160.388 96.6024C159.204 96.0694 157.587 93.2922 156.628 91.0124C154.591 86.1922 154.301 82.3254 157.374 81.1056C157.753 78.9146 158.742 78.0915 160.726 77.6829C164.995 76.8006 168.223 79.6074 171.811 79.1159C173.688 78.8554 173.605 81.3898 173.043 82.9294Z" fill="#37474F"/>
<path d="M157.303 81.8398L155.29 80.5963C155.368 80.4568 155.473 80.3345 155.6 80.2369C155.726 80.1392 155.871 80.0682 156.026 80.028C156.181 79.9879 156.342 79.9795 156.5 80.0034C156.658 80.0272 156.81 80.0828 156.946 80.1668C157.082 80.2508 157.199 80.3615 157.292 80.4921C157.384 80.6228 157.448 80.7707 157.482 80.927C157.515 81.0834 157.517 81.2448 157.486 81.4017C157.455 81.5586 157.393 81.7076 157.303 81.8398Z" fill="#37474F"/>
<path d="M167.459 99.35L168.193 101.476C168.193 101.476 167.654 102.423 165.363 102.471C163.071 102.518 160.625 101.79 159.867 100.813C159.695 100.621 159.567 100.394 159.493 100.147C159.42 99.9003 159.402 99.6401 159.441 99.3855C159.441 99.3855 160.353 97.3722 161.217 97.461L161.075 98.3374C161.075 98.3374 161.271 99.0539 163.349 99.6046C166.582 100.463 167.459 99.35 167.459 99.35Z" fill="#455A64"/>
<path d="M185.875 113.479C186.799 112.419 187.154 110.068 188.386 108.457C189.617 106.847 190.073 105.668 190.559 106.373C191.204 107.303 189.748 109.168 190.073 109.334C190.399 109.5 191.601 111.975 191.726 113.337C191.85 114.699 188.238 118.133 188.238 118.133L185.875 113.479Z" fill="#FFA8A7"/>
<path d="M167.459 99.3499C167.608 99.3469 167.755 99.3845 167.884 99.4585C168.014 99.5326 168.12 99.6403 168.193 99.7703C168.555 100.424 168.88 101.098 169.164 101.79L168.193 101.476L167.459 99.3499Z" fill="#455A64"/>
<path d="M189.973 109.144C189.973 109.144 194.337 108.765 194.971 109.144C195.604 109.523 195.415 111.412 194.971 112.573C194.526 113.733 192.3 114.486 190.233 115.883C190.233 115.67 189.973 109.144 189.973 109.144Z" fill="#FFA8A7"/>
<path d="M169.164 101.813C171.041 102.471 172.682 103.223 174.434 106.515C176.685 110.743 180.948 117.506 180.948 117.506L185.857 113.177C185.857 113.177 186.597 112.46 187.977 114.74C188.381 115.354 188.637 116.053 188.725 116.783C188.812 117.513 188.728 118.253 188.48 118.945C188.48 118.945 182.813 125.594 181.73 126.607C180.646 127.62 178.852 126.832 177.685 125.239C176.519 123.646 169.146 114.438 169.146 114.438C169.146 114.438 165.143 109.121 169.164 101.813Z" fill="#37474F"/>
<path d="M219.8 90.7577H205.819C205.291 90.7577 204.785 90.5481 204.412 90.1749C204.039 89.8018 203.829 89.2957 203.829 88.768V66.5562C203.829 64.8082 204.524 63.1318 205.76 61.8958C206.996 60.6598 208.672 59.9654 210.42 59.9654H215.216C216.961 59.9701 218.633 60.6666 219.865 61.9021C221.097 63.1376 221.789 64.8113 221.789 66.5562V88.768C221.789 89.2957 221.58 89.8018 221.207 90.1749C220.834 90.5481 220.327 90.7577 219.8 90.7577Z" fill="#37474F"/>
<path d="M203.462 83.1781C202.106 87.1751 199.832 98.6749 199.832 98.6749C199.832 98.6749 195.095 104.466 193.549 105.87C192.703 106.651 190.796 108.055 190.796 108.055L194.26 110.601C197.388 108.195 200.326 105.552 203.048 102.696C203.653 102.051 204.078 101.259 204.279 100.398L206.648 90.2366C206.648 90.2366 206.648 82.0648 207.897 80.993C209.147 79.9212 209.508 79.6962 209.508 79.6962C207.903 79.5777 204.528 80.0337 203.462 83.1781Z" fill="#F28F8F"/>
<path d="M210.248 79.5777C208.04 79.3231 205.209 79.3704 203.829 81.8397C202.45 84.309 200.152 97.076 200.152 97.076C200.152 97.076 202.325 98.7636 204.67 98.734L210.248 79.5777Z" fill="#008B4B"/>
<path d="M204.108 91.4741C204.505 93.3773 204.658 95.3235 204.564 97.2654C204.392 99.8236 202.627 104.288 202.627 104.288C202.627 104.288 204.007 105.804 207.897 105.194C211.065 104.703 209.946 95.1277 208.128 93.2921C207.068 92.1967 205.63 91.5466 204.108 91.4741Z" fill="#008B4B"/>
<path opacity="0.3" d="M204.108 91.4741C204.505 93.3773 204.658 95.3235 204.564 97.2654C204.392 99.8236 202.627 104.288 202.627 104.288C202.627 104.288 204.007 105.804 207.897 105.194C211.065 104.703 209.946 95.1277 208.128 93.2921C207.068 92.1967 205.63 91.5466 204.108 91.4741Z" fill="black"/>
<path d="M211.427 159.099C211.452 159.536 211.342 159.97 211.113 160.342C210.527 161.31 209.838 162.211 209.058 163.031C207.963 164.215 206.322 165.607 205.144 166.631C204.493 167.223 204.469 168.064 205.404 168.366C207.148 168.791 208.989 168.534 210.55 167.649C211.735 167.022 213.381 164.097 214.352 163.682C215.471 163.179 216.093 162.93 216.472 162.415C216.758 162.122 216.937 161.741 216.979 161.333C217.021 160.925 216.924 160.516 216.703 160.171C216.176 159.188 215.382 157.678 215.057 157.849L215.157 158.157C214.903 158.957 212.724 159.886 211.604 159.667L211.427 159.099Z" fill="#37474F"/>
<path d="M222.838 125.689C223.341 120.36 224.786 111.785 223.305 105.437L203.646 106.479C203.101 112.739 202.461 132.28 203.148 134.518C203.942 137.159 211.03 155.439 211.438 159.116C211.467 159.548 211.357 159.977 211.125 160.342C210.54 161.312 209.851 162.216 209.07 163.037C208.537 163.629 207.886 164.221 207.199 164.813C207.141 164.898 207.106 164.995 207.098 165.097C207.098 165.689 208.59 165.873 209.467 165.618C210.56 165.233 211.501 164.509 212.155 163.552C212.658 162.883 213.789 161.598 214.524 160.632C214.769 160.334 214.977 160.008 215.145 159.661C215.341 159.228 215.375 158.738 215.24 158.282L215.193 158.133C214.808 156.935 214.57 155.694 214.482 154.438C214.21 150.406 213.517 141.091 212.877 138.61C212.433 136.802 211.759 135.059 210.87 133.423L213.114 115.96C213.114 115.96 213.351 131.356 214.05 135.282C214.601 138.426 214.814 142.358 215.459 147.753C216.051 152.917 216.738 162.012 216.738 162.012C216.756 162.015 216.774 162.015 216.792 162.012V166.359H220.469V163.836C220.469 162.697 220.564 161.56 220.753 160.437C221.345 157.002 222.577 149.145 222.832 146.486C223.234 142.27 221.712 136.97 221.712 136.97C221.712 136.97 222.346 130.888 222.838 125.689Z" fill="#FFA8A7"/>
<path d="M215.909 79.7613C215.909 79.7613 221.197 80.3535 221.831 80.6555C216.869 84.1433 220.889 91.9065 220.889 91.9065L218.989 97.8695C221.103 100.576 222.926 102.186 224.057 105.153C225.313 108.469 226.426 113.402 226.13 123.51C221.393 127.063 206.98 126.678 201.366 123.51C201.366 123.51 202.313 114.586 203.432 107.652C204.173 103.075 205.92 98.0886 205.623 96.401C203.397 89.5556 203.255 88.3239 203.657 86.7962C204.765 82.4971 209.147 79.5896 210.225 79.5896L215.909 79.7613Z" fill="#008B4B"/>
<path opacity="0.6" d="M215.909 79.7613C215.909 79.7613 221.197 80.3535 221.831 80.6555C216.869 84.1433 220.889 91.9065 220.889 91.9065L218.989 97.8695C221.103 100.576 222.926 102.186 224.057 105.153C225.313 108.469 226.426 113.402 226.13 123.51C221.393 127.063 206.98 126.678 201.366 123.51C201.366 123.51 202.313 114.586 203.432 107.652C204.173 103.075 205.92 98.0886 205.623 96.401C203.397 89.5556 203.255 88.3239 203.657 86.7962C204.765 82.4971 209.147 79.5896 210.225 79.5896L215.909 79.7613Z" fill="white"/>
<path d="M216.756 164.517V163.99C216.294 165.761 215.371 167.377 214.08 168.674C212.895 169.746 211.296 170.989 210.882 172.191C210.467 173.393 212.783 173.932 214.311 173.778C215.791 173.597 217.155 172.884 218.148 171.771C219.119 170.658 219.101 169.9 219.551 169.284C220.001 168.668 221.049 167.993 221.292 167.282C221.368 166.619 221.295 165.948 221.079 165.316C220.907 164.659 220.718 163.931 220.487 163.99V164.399C219.954 164.818 219.293 165.041 218.616 165.032C218.1 165.044 216.75 164.932 216.756 164.517Z" fill="#37474F"/>
<path d="M220.469 164.387C219.936 164.806 219.276 165.03 218.598 165.02C218.053 165.02 216.727 164.932 216.732 164.517V163.99C216.271 165.761 215.347 167.377 214.056 168.674L213.162 169.473C212.534 170.172 212.712 170.782 214.186 170.906C215.661 171.031 216.957 170.143 218.071 168.775C219.02 167.399 219.824 165.928 220.469 164.387Z" fill="#FFA8A7"/>
<path d="M206.778 63.5953C205.831 64.1579 204.658 66.5561 204.771 71.5421C204.871 75.782 206.245 76.8301 206.938 77.1321C207.631 77.4341 208.957 77.2505 210.248 77.0373V79.5777C210.248 79.5777 208.472 81.6562 208.572 82.8227C208.673 83.9893 211.154 84.2617 212.83 83.1247C214.04 82.1865 215.081 81.0491 215.909 79.7613L215.88 73.9167C215.88 73.9167 216.644 74.6509 217.935 73.5258C219 72.5961 219.356 71.021 218.527 70.1801C218.311 69.9778 218.051 69.8298 217.767 69.7485C217.483 69.6673 217.183 69.6551 216.894 69.7131C216.604 69.771 216.332 69.8974 216.101 70.0816C215.87 70.2659 215.687 70.5027 215.566 70.7723C215.566 70.7723 214.849 68.7767 211.871 67.8115C209.182 66.9173 207.72 65.9048 206.778 63.5953Z" fill="#FFA8A7"/>
<path d="M209.508 70.4822C209.508 70.5865 209.539 70.6886 209.596 70.7756C209.654 70.8627 209.736 70.9309 209.832 70.9719C209.928 71.0128 210.034 71.0247 210.137 71.0059C210.239 70.9872 210.334 70.9388 210.41 70.8666C210.485 70.7944 210.537 70.7017 210.561 70.5999C210.584 70.4981 210.577 70.3918 210.54 70.2941C210.503 70.1964 210.438 70.1116 210.354 70.0503C210.27 69.989 210.169 69.9539 210.065 69.9492C209.993 69.9477 209.922 69.9602 209.855 69.9861C209.789 70.0121 209.728 70.0509 209.676 70.1004C209.624 70.1499 209.583 70.2091 209.554 70.2746C209.525 70.3401 209.51 70.4106 209.508 70.4822Z" fill="#37474F"/>
<path d="M209.366 74.0707L208.128 74.4674C208.15 74.55 208.188 74.6274 208.241 74.6948C208.293 74.7623 208.359 74.8185 208.433 74.8599C208.508 74.9014 208.59 74.9274 208.675 74.9363C208.76 74.9451 208.846 74.9367 208.928 74.9116C209.095 74.8546 209.234 74.7354 209.315 74.5789C209.397 74.4223 209.415 74.2403 209.366 74.0707Z" fill="#F28F8F"/>
<path d="M205.138 68.8418L206.216 68.0957C206.17 68.0228 206.11 67.96 206.04 67.911C205.969 67.862 205.889 67.8279 205.805 67.8108C205.721 67.7936 205.634 67.7937 205.55 67.8111C205.466 67.8286 205.386 67.8629 205.316 67.9121C205.171 68.0138 205.072 68.1676 205.039 68.3411C205.006 68.5145 205.041 68.6941 205.138 68.8418Z" fill="#37474F"/>
<path d="M211.06 69.2445L209.976 68.4984C210.022 68.4257 210.081 68.363 210.152 68.3139C210.222 68.2648 210.302 68.2304 210.386 68.2127C210.47 68.195 210.556 68.1944 210.641 68.2109C210.725 68.2275 210.805 68.2608 210.876 68.3089C211.019 68.4126 211.118 68.5669 211.152 68.7405C211.186 68.9142 211.153 69.0943 211.06 69.2445Z" fill="#37474F"/>
<path d="M205.387 70.0914C205.386 70.196 205.415 70.2986 205.472 70.3864C205.529 70.4743 205.611 70.5434 205.706 70.5852C205.802 70.6271 205.908 70.6398 206.011 70.6217C206.115 70.6037 206.21 70.5557 206.286 70.4838C206.362 70.4118 206.415 70.3191 206.439 70.2172C206.462 70.1153 206.455 70.0087 206.419 69.9106C206.382 69.8126 206.318 69.7275 206.233 69.6659C206.149 69.6043 206.048 69.569 205.943 69.5643C205.8 69.5611 205.661 69.6147 205.557 69.7134C205.452 69.8121 205.391 69.9479 205.387 70.0914Z" fill="#37474F"/>
<path d="M207.897 69.7893L207.815 72.9988L206.127 72.4777L207.897 69.7893Z" fill="#F28F8F"/>
<path d="M210.248 77.0374C211.61 76.8538 214.393 76.0485 214.855 74.9412C214.68 75.5021 214.337 75.9959 213.872 76.3564C213.031 77.0729 210.248 77.8842 210.248 77.8842V77.0374Z" fill="#F28F8F"/>
<path d="M219.906 94.6187L216.17 99.6757L218.988 97.8696L219.906 94.6187Z" fill="#008B4B"/>
<path d="M190.47 108.055C189.671 109.085 189.179 111.086 188.759 111.762C188.338 112.437 187.835 113.023 188.759 113.147C189.683 113.272 191.033 111.465 191.536 110.37C191.791 109.752 192.272 109.255 192.88 108.978C192.448 108.83 192.673 107.095 192.371 106.853C192.371 106.853 190.796 107.498 190.47 108.055Z" fill="#F28F8F"/>
<path d="M190.233 115.871C191.068 115.249 191.098 114.485 191.258 113.272C191.418 112.058 194.763 110.743 194.87 111.649C194.977 112.555 195.279 113.313 194.278 114.414C193.277 115.516 191.761 116.688 190.233 115.871Z" fill="#F28F8F"/>
<path d="M215.909 79.7612C215.909 79.7612 220.86 80.1935 221.831 80.6554C222.802 81.1173 224.419 83.9123 222.974 87.9686C221.529 92.0248 220.214 96.7976 220.362 97.7569C220.51 98.7162 223.963 103.679 223.963 103.679C223.01 104.382 221.933 104.898 220.789 105.2L219.012 101.34L219.427 105.443C217.642 105.877 215.809 106.076 213.973 106.035C213.973 106.035 212.297 90.2721 215.909 79.7612Z" fill="#008B4B"/>
<path d="M228.108 99.0952C228.505 96.7621 228.108 95.9983 227.291 93.7125L223.145 96.395C223.485 97.2578 223.685 98.1694 223.738 99.0952C223.702 99.7703 222.784 106.462 221.926 108.795C221.771 109.21 221.467 109.552 221.073 109.754C220.219 110.276 219.445 110.918 218.775 111.661C218.142 112.253 217.632 112.36 217.698 112.561C217.795 112.779 217.97 112.954 218.189 113.051C218.408 113.148 218.654 113.161 218.882 113.088C219.398 112.92 219.893 112.694 220.356 112.413C219.945 113.284 219.397 114.083 218.734 114.782C217.212 116.404 217.076 117.458 219.918 117.677C221.695 117.813 223.181 116.819 224.786 112.999C225.283 111.599 225.692 110.169 226.012 108.718C226.876 105.408 227.717 101.446 228.108 99.0952Z" fill="#FFA8A7"/>
<path d="M221.831 80.6555C223.827 81.5497 224.395 83.3143 225.135 85.908C225.875 88.5016 228.197 96.2826 228.197 96.2826C228.197 96.2826 226.207 98.6512 223.459 97.988L219.906 89.3603C219.906 89.3603 218.248 83.7288 221.831 80.6555Z" fill="#008B4B"/>
</svg>
