<svg width="227" height="206" viewBox="0 0 227 206" fill="none" xmlns="http://www.w3.org/2000/svg">
<path d="M172.172 59.375L158.25 70.3125V12.5C158.25 11.6712 158.579 10.8763 159.165 10.2903C159.751 9.70424 160.546 9.375 161.375 9.375H217.625C218.454 9.375 219.249 9.70424 219.835 10.2903C220.421 10.8763 220.75 11.6712 220.75 12.5V56.25C220.75 57.0788 220.421 57.8737 219.835 58.4597C219.249 59.0458 218.454 59.375 217.625 59.375H172.172ZM170.009 53.125H214.5V15.625H164.5V57.4531L170.009 53.125ZM186.375 31.25H192.625V37.5H186.375V31.25ZM173.875 31.25H180.125V37.5H173.875V31.25ZM198.875 31.25H205.125V37.5H198.875V31.25Z" fill="#FAE17D"/>
<path d="M165.035 87.6C165.035 87.6 165.035 87.6 165.035 87.2145C159.604 72.3854 149.749 59.5823 136.804 50.5372C123.858 41.4921 108.447 36.6415 92.6542 36.6415C76.8617 36.6415 61.4503 41.4921 48.5048 50.5372C35.5592 59.5823 25.7042 72.3854 20.2729 87.2145C20.2729 87.2145 20.2729 87.2145 20.2729 87.6C14.2074 104.334 14.2074 122.666 20.2729 139.4C20.2729 139.4 20.2729 139.4 20.2729 139.785C25.7042 154.614 35.5592 167.418 48.5048 176.463C61.4503 185.508 76.8617 190.358 92.6542 190.358C108.447 190.358 123.858 185.508 136.804 176.463C149.749 167.418 159.604 154.614 165.035 139.785C165.035 139.785 165.035 139.785 165.035 139.4C171.101 122.666 171.101 104.334 165.035 87.6ZM32.8375 128.917C30.1645 118.813 30.1645 108.187 32.8375 98.0833H47.175C45.9419 108.324 45.9419 118.676 47.175 128.917H32.8375ZM39.1583 144.333H49.95C51.7593 151.208 54.3454 157.854 57.6583 164.144C50.0988 158.994 43.7795 152.227 39.1583 144.333ZM49.95 82.6666H39.1583C43.713 74.7971 49.9515 68.0321 57.4271 62.8562C54.1939 69.1558 51.6855 75.8017 49.95 82.6666ZM84.7917 172.854C75.324 165.906 68.6747 155.782 66.0604 144.333H84.7917V172.854ZM84.7917 128.917H62.7458C61.3074 118.689 61.3074 108.311 62.7458 98.0833H84.7917V128.917ZM84.7917 82.6666H66.0604C68.6747 71.2179 75.324 61.0934 84.7917 54.1458V82.6666ZM145.842 82.6666H135.05C133.241 75.792 130.655 69.1457 127.342 62.8562C134.901 68.0059 141.221 74.7728 145.842 82.6666ZM100.208 54.1458C109.676 61.0934 116.325 71.2179 118.94 82.6666H100.208V54.1458ZM100.208 172.854V144.333H118.94C116.325 155.782 109.676 165.906 100.208 172.854ZM122.254 128.917H100.208V98.0833H122.254C123.693 108.311 123.693 118.689 122.254 128.917ZM127.573 164.144C130.886 157.854 133.472 151.208 135.281 144.333H146.073C141.452 152.227 135.132 158.994 127.573 164.144ZM152.162 128.917H137.825C138.452 123.802 138.761 118.653 138.75 113.5C138.758 108.347 138.45 103.198 137.825 98.0833H152.162C154.836 108.187 154.836 118.813 152.162 128.917Z" fill="#FAE17D"/>
</svg>
